/* XPM */
static char *_d177cf91d164a1193a4965b475dc33e5XpoCau0UdJL0Sf6[] = {
/* columns rows colors chars-per-pixel */
"60 60 151 2 ",
"   c #DE551E",
".  c #DA5C1F",
"X  c #E74516",
"o  c #E94516",
"O  c #E64718",
"+  c #E84719",
"@  c #E54B1A",
"#  c #E8491C",
"$  c #E2521D",
"%  c #CB542A",
"&  c #DD5A21",
"*  c #E84D23",
"=  c #E55424",
"-  c #E95027",
";  c #E05E22",
":  c #E7562A",
">  c #E9522A",
",  c #E45E29",
"<  c #E95B36",
"1  c #EA5D39",
"2  c #CD6F25",
"3  c #C86B2E",
"4  c #D56524",
"5  c #DB6223",
"6  c #D26D25",
"7  c #DA6927",
"8  c #DF6029",
"9  c #D76E2A",
"0  c #DD6C2B",
"q  c #CF7127",
"w  c #CF772C",
"e  c #C77A2A",
"r  c #D5742B",
"t  c #D8712C",
"y  c #D27E2F",
"u  c #CD6F31",
"i  c #D47C32",
"p  c #E7663E",
"a  c #EA603C",
"s  c #9B6E47",
"d  c #97714A",
"f  c #98714A",
"g  c #EC6442",
"h  c #EC6748",
"j  c #EC6A4B",
"k  c #ED6F52",
"l  c #EE7155",
"z  c #EE755C",
"x  c #F0745C",
"c  c #47C521",
"v  c #4BC624",
"b  c #51C627",
"n  c #52C728",
"m  c #54C92A",
"M  c #5AC92C",
"N  c #6EC92E",
"B  c #62CB31",
"V  c #6ACC36",
"C  c #74CB34",
"Z  c #75CA3B",
"A  c #7CCD3A",
"S  c #BF8225",
"D  c #BD862B",
"F  c #BC8B2D",
"G  c #BD8D32",
"H  c #BC9333",
"J  c #B59C38",
"K  c #B89A38",
"L  c #9CBA36",
"P  c #97BF38",
"I  c #9BBE3B",
"U  c #ABA02C",
"Y  c #AEA435",
"T  c #A8AB36",
"R  c #AFA73A",
"E  c #ABAC38",
"W  c #B2A034",
"Q  c #B8A330",
"!  c #B2A73D",
"~  c #BCAB39",
"^  c #A6B43A",
"/  c #A5B93D",
"(  c #C3852E",
")  c #CB882D",
"_  c #CC8B37",
"`  c #D28734",
"'  c #CA9135",
"]  c #C9963A",
"[  c #C39B3B",
"{  c #C9993C",
"}  c #C3A13D",
"|  c #C8A23F",
" . c #C0A83E",
".. c #86CA37",
"X. c #8ECD36",
"o. c #89C63A",
"O. c #86CD3D",
"+. c #8DCD39",
"@. c #94C536",
"#. c #90CC36",
"$. c #93C63A",
"%. c #92CD38",
"&. c #8BD039",
"*. c #96D13B",
"=. c #A2C03E",
"-. c #978147",
";. c #949642",
":. c #989643",
">. c #9E9B4A",
",. c #A49C4B",
"<. c #8DA142",
"1. c #A0A748",
"2. c #BCB644",
"3. c #B9B946",
"4. c #B9BD49",
"5. c #C4A741",
"6. c #C0AB40",
"7. c #9EC641",
"8. c #8BD042",
"9. c #ACCC47",
"0. c #B7C147",
"q. c #B5C549",
"w. c #B2CB4B",
"e. c #B3CD4B",
"r. c #A7D147",
"t. c #A3D444",
"y. c #A7D446",
"u. c #A0D642",
"i. c #AAD347",
"p. c #AED046",
"a. c #ACD247",
"s. c #A9D545",
"d. c #A7D942",
"f. c #A7D944",
"g. c #A6D845",
"h. c #A6DB45",
"j. c #A7D946",
"k. c #A6D845",
"l. c #A8DA43",
"z. c #A9D945",
"x. c #A8DA45",
"c. c #A9DB46",
"v. c #A8DA47",
"b. c #AADA46",
"n. c #A8DA45",
"m. c #A9D248",
"M. c #ABD648",
"N. c #AAD749",
"B. c #ABD349",
"V. c #A8D949",
"C. c #AADA49",
/* pixels */
"x.x.x.x.x.x.x.x.x.x.x.x.x.x.x.x.x.x.x.x.x.x.x.x.x.x.x.x.x.x.*.X.X.X.X.X.X.X.X.X.X.X.X.X.X.X.+.X.X.X.X.X.X.X.X.X.X.X.X.X.",
"x.x.x.x.x.x.x.x.x.x.x.x.x.x.x.x.x.x.x.x.x.x.x.x.x.x.x.x.x.h.*.X.X.X.X.X.X.X.X.X.X.X.X.X.X.X.X.X.X.X.X.X.X.X.X.X.X.X.X.X.",
"x.x.x.x.x.x.x.x.x.x.x.x.x.x.x.x.x.x.x.x.x.x.x.x.x.x.x.x.x.h.*.X.X.X.X.X.X.X.X.X.X.X.X.X.X.X.X.X.X.X.X.X.X.X.X.X.X.X.X.X.",
"x.x.x.x.x.x.x.x.x.x.x.x.x.x.x.x.x.x.x.x.x.x.x.x.x.h.x.x.x.l.%.X.X.X.X.X.X.X.X.X.X.X.X.X.X.X.X.X.X.X.X.X.X.X.X.X.X.X.X.X.",
"x.x.x.x.x.x.x.x.x.x.x.x.x.x.x.x.x.x.x.x.x.x.x.x.x.x.h.h.x.x.*.X.#.#.X.+.8.8.O.+.X.X.+.X.X.X.X.X.X.X.X.X.X.X.X.X.X.X.X.X.",
"x.x.x.x.x.x.x.x.x.x.x.x.x.x.x.x.x.x.x.x.x.x.x.x.x.x.x.x.x.x.%.X.+.A B b v v b b M V +.X.X.X.X.X.X.X.X.X.X.X.X.X.X.X.X.X.",
"x.x.x.x.x.x.x.x.x.x.x.x.x.x.x.x.x.x.x.x.x.x.x.x.x.h.x.x.c.t.$.o.A M v c c c c c c b V +.X.X.X.X.X.X.X.X.X.X.X.X.X.X.X.X.",
"x.x.x.x.x.x.x.x.x.x.x.x.x.x.x.x.x.x.x.x.x.x.x.x.x.x.x.c.s.1.-.<.Z m c c c c c c c v V %.+.X.X.X.*.X.X.X.X.X.X.X.X.X.X.X.",
"x.x.x.x.x.x.x.x.x.x.x.x.x.x.x.x.x.x.x.x.x.x.x.x.x.x.x.x.r.>.f ;.o.Z M v c c c c n V O.X.X.X.X.X.X.X.X.X.X.X.X.X.X.X.X.X.",
"x.x.x.x.x.x.x.x.x.x.x.x.x.x.x.x.x.x.x.x.C.x.h.x.C.x.x.x.r.>.f ;.o.X...O.C N V A O...X.X.X.X.#.#.X.X.X.X.X.X.X.X.X.X.*.X.",
"x.x.x.x.x.x.x.x.x.x.x.x.x.x.x.x.x.x.x.x.x.x.x.x.x.x.x.l.r.>.f ;.%.X.X.#.X.X.X.X.X.X.X.X.X.X.X.#.X.X.X.X.X.X.X.X.X.X.X.X.",
"x.x.x.x.x.x.x.x.x.x.x.x.x.x.x.x.x.x.l.x.x.x.x.x.x.x.x.C.m.,.s :.$.X.X.X.X.X.X.X.X.X.*.X.X.X.X.X.X.X.X.X.X.X.X.X.X.X.X.X.",
"x.x.x.x.x.x.x.x.x.x.x.x.x.x.x.x.x.x.x.x.x.x.x.h.t.m.0.2.] u % 3 G J / $.#.X.#.X.X.X.X.X.X.X.X.X.X.X.X.X.X.X.X.X.X.X.X.X.",
"x.x.x.x.x.x.x.x.x.x.x.x.x.x.x.x.c.x.x.x.x.x.x.0.{ r 7 & = @ @ @   & 4 2 D ^ #.X.X.X.X.X.X.X.X.X.X.X.X.X.X.X.X.X.X.X.X.X.",
"x.x.x.x.x.x.x.x.x.x.x.x.x.x.x.x.x.x.x.x.x.i.2.i , : - # O X X X o X O +   2 Y @.X.X.X.X.X.X.X.X.X.X.X.X.X.X.X.X.X.X.X.X.",
"x.x.x.x.x.x.x.x.x.x.x.x.x.x.x.x.x.x.x.x.9.' 0 p h j j < # X X X X o X X X + . D P X.X.X.X.X.X.X.X.X.X.X.X.X.X.X.X.X.X.X.",
"x.x.x.x.x.x.x.x.x.x.x.x.x.x.x.x.x.d.x.p.[ 8 1 k z z z h * X X X X X X X X X X $ F @.#.X.X.X.X.X.X.X.X.X.X.X.X.X.X.X.X.X.",
"x.x.x.x.x.x.x.x.x.x.x.x.x.x.x.x.x.C.s.] 5 < l z z z z j > X X X X X X X X X X X . F @.+.X.X.X.X.#.X.X.X.X.X.X.X.X.X.X.X.",
"x.x.x.x.x.x.x.x.x.x.x.x.x.x.x.x.x.x.3.5 + h z z z z z g * X X X X X X X X X X X X 5 T #.X.X.X.X.X.X.X.X.X.X.X.X.X.X.X.X.",
"x.x.x.x.x.x.x.x.x.x.x.x.x.x.x.x.l.q.y $ * j z z z z z 1 # X X X X X X X X X X X X @ w / X.X.X.X.X.X.X.X.X.X.X.#.X.X.X.X.",
"x.x.x.x.x.x.x.x.x.x.x.x.x.x.x.x.x.{ ; X * j z z z z j > X X X X X o X X X X X X X X   H X.X.X.X.X.X.X.X.X.X.X.X.X.X.X.X.",
"x.x.x.x.x.x.x.x.x.x.x.x.x.x.x.x.N.r + X # a l z k g > O X X X X X o X X X X X X X X + 6 $.X.X.+.X.X.X.+.X.X.X.X.X.X.X.X.",
"x.x.x.x.x.x.x.x.x.x.x.x.x.x.x.x.w.& + X o * 1 a < * X X X X X X X X X X X X X o X X X . $.#.X.X.X.X.X.X.+.X.X.X.X.X.X.X.",
"x.x.x.x.x.x.x.x.x.x.x.x.x.x.x.x.2.; O X o + # # + o X X X X X X X X X X X X X X X X X . ! #.X.X.X.#.X.X.X.X.X.X.X.X.X.X.",
"x.x.x.x.x.x.x.x.x.x.x.x.x.x.x.x.| $ X X X X X X X X X X X X X X X X X X X X X X X X X   K X.X.X.X.X.X.X.X.X.X.X.X.X.X.X.",
"x.x.x.x.x.x.x.x.x.x.x.x.x.x.x.x._ @ X X X X X o X X X X X X X X X X X X X X X X X X X $ F X.X.X.X.X.X.X.X.X.X.X.X.X.X.X.",
"x.x.x.x.x.x.x.x.x.x.x.x.x.x.x.x.) $ X X X X X X X X X X X X o X X X X X X X X X X X X @ ( X.X.X.X.X.X.X.X.X.X.X.X.X.X.X.",
"x.x.x.x.x.x.x.x.x.x.x.x.x.x.x.x.) $ X o X X X o o X X X X X X X X X X X X X X X X X X   F X.X.X.X.X.X.X.X.X.X.X.X.X.X.X.",
"x.x.x.x.x.x.x.x.x.x.x.x.x.x.x.x.5.$ + + X X X X X X X X X X X X X X X X X X X X X X X   ! #.X.X.X.X.X.X.X.X.X.X.X.X.X.X.",
"t.h.t.h.x.s.t.h.h.t.h.t.x.x.t.h.3.& X X X X X X X X X X X X X X X X X X X X X X X X X . / %.%.%.#.%.%.%.*.#.*.#.%.%.%.%.",
"%.*.#.%.#.#.%.*.#.%.%.#.%.%.%.%.*.. O o X X X X X X X X X X X X X X X X X X X X X X X 4 B.t.h.x.h.t.t.x.x.t.d.g.x.h.t.h.",
"X.X.X.X.X.X.X.X.X.X.X.X.X.X.X.#.$.q @ X X o X o X X X X X o X X X X X X X X X X X X O ) t.x.x.x.x.x.x.x.x.h.h.h.x.x.x.x.",
"X.X.X.X.X.X.X.X.X.X.X.X.X.X.X.X.X.J & X X X X X X X X X X X X X X o X o X X X X X X 5 6.c.c.c.h.x.x.x.x.x.x.x.x.x.x.x.x.",
"X.X.X.X.X.X.X.X.X.X.X.X.X.X.X.X.X.L e @ X X X X X X X X X X X X X X X X X X X X X $ _ 9.h.h.c.c.x.x.x.x.x.x.x.x.x.x.x.x.",
"X.X.X.X.X.X.X.X.X.X.X.X.X.X.X.X.X.X.L 4 X X X X X X X X X X X X X o X X X X X X + r e.x.x.x.v.v.x.x.x.x.x.x.x.x.x.x.x.x.",
"X.X.X.X.X.X.X.X.X.#.X.X.&.X.X.X.X.X.X.F & @ X X X X X X X X X X X o o X X o X @ 7 } h.h.x.l.v.v.x.x.x.x.x.x.x.x.x.x.x.x.",
"X.X.X.X.X.X.X.X.X.X.X.X.#.X.X.X.X.X.X.%.R 5 O + X X X X X O X X X X X X X + + t 4.C.x.x.x.x.x.x.x.x.x.x.x.x.x.x.x.x.x.x.",
"X.X.X.X.X.X.X.X.X.X.X.X.#.X.X.X.X.X.X.X.+.K 4 @ X X X X X X X X X X X X + $ t  .d.x.x.x.x.x.x.x.x.x.x.x.x.x.x.x.x.x.x.x.",
"X.X.X.X.X.X.X.X.X.X.X.X.X.X.X.X.X.X.X.#.X.X.$.) & + + O X X X X X X X O 5 { M.x.C.x.x.x.x.x.x.x.x.x.x.x.x.x.x.x.x.x.x.x.",
"X.X.X.X.X.X.X.#.X.X.X.X.X.X.X.X.X.X.X.+.X.X.#.$.R w &     @ @ @ $ $ 5 ` 4.s.b.l.x.x.x.x.x.x.x.x.x.x.x.x.x.x.x.x.x.x.x.x.",
"X.X.X.X.X.X.X.X.X.X.X.X.X.X.X.X.X.X.X.X.X.X.X.X.X.+.%.=.E U Q ~ 2.e.m.s.x.x.x.x.x.x.x.x.x.x.x.x.x.x.x.x.x.x.x.x.x.x.x.x.",
"X.X.X.X.X.X.X.#.X.X.X.X.X.X.X.X.X.X.X.X.#.&.X.X.X.+.#.X.X.X.u.x.x.x.x.x.x.x.x.x.x.x.x.x.x.x.x.x.x.x.x.x.x.x.x.x.x.x.x.x.",
"X.X.X.X.X.X.&.#.X.X.X.X.X.X.X.X.X.X.X.X.#.X.X.X.X.X.X.X.X.X.u.x.x.x.x.x.x.x.x.x.x.x.x.x.x.x.x.x.x.x.x.x.x.x.x.x.x.x.x.x.",
"X.X.X.X.X.X.X.X.X.X.X.*.X.X.X.X.X.X.X.X.X.X.X.X.X.X.X.X.X.X.u.x.x.x.x.x.x.x.x.x.x.x.x.x.x.x.x.x.x.x.x.x.x.x.x.x.x.x.x.x.",
"X.X.X.X.X.X.X.X.X.X.X.X.X.X.X.X.X.X.X.X.X.X.X.X.X.X.X.X.X.X.*.x.h.x.x.x.x.x.x.x.x.x.x.x.x.x.x.x.x.x.x.x.x.x.x.x.x.x.x.x.",
"X.X.X.X.X.X.X.X.X.X.X.X.X.X.X.X.X.#.X.X.X.X.X.X.#.X.X.X.X.X.g.x.x.x.x.x.h.x.x.x.x.x.x.x.x.x.x.x.x.x.x.x.x.x.x.x.x.x.x.x.",
"X.*.X.X.X.X.X.X.X.X.X.X.X.X.X.X.X.X.X.X.X.X.X.X.+.X.X.X.X.X.u.x.x.x.x.x.x.x.x.x.x.x.x.x.x.x.x.x.x.x.x.x.x.x.x.x.x.x.x.x.",
"X.X.X.X.X.X.X.X.X.X.X.X.X.X.X.X.X.X.X.X.X.X.X.X.#.X.X.X.X.X.u.c.x.x.x.x.x.x.x.x.x.x.x.x.x.x.x.x.x.x.x.x.x.x.x.x.x.x.x.x.",
"X.X.X.X.X.X.X.X.X.X.X.X.X.X.X.X.X.X.X.X.X.X.X.X.X.X.X.X.X.X.u.x.x.x.x.x.x.x.x.x.x.x.x.x.x.x.x.x.x.x.x.x.x.x.x.x.x.x.x.x.",
"X.X.X.X.X.X.X.X.X.X.X.X.X.X.X.X.X.X.X.X.X.X.X.X.X.X.X.X.X.X.u.x.x.x.x.x.x.x.x.x.x.x.x.x.x.x.x.x.x.x.x.x.x.x.x.x.x.x.x.x.",
"X.X.X.X.X.X.X.X.X.X.X.X.X.X.X.X.X.X.X.X.X.X.X.X.X.X.X.X.X.X.*.x.x.x.x.x.x.x.x.x.x.x.x.x.x.x.x.x.x.x.x.x.x.x.x.x.x.x.x.x.",
"X.X.X.X.X.X.X.X.X.X.X.X.X.X.*.X.X.X.X.X.X.X.X.X.X.X.X.X.X.X.g.x.x.x.x.x.x.x.x.x.x.x.x.x.x.x.x.x.x.x.x.x.x.x.x.x.x.x.x.x.",
"X.X.X.X.X.X.X.X.X.X.X.X.X.X.X.X.X.X.X.X.X.X.X.X.X.X.X.X.X.X.u.x.x.x.x.x.x.x.x.x.x.x.x.x.x.x.x.x.x.x.x.x.x.x.x.x.x.x.x.x.",
"X.X.X.X.X.X.X.X.X.X.X.X.X.X.X.X.X.X.X.X.X.X.X.X.X.X.X.X.X.X.u.x.x.x.x.x.x.x.x.x.x.x.x.x.x.x.x.x.x.x.x.x.x.x.x.x.x.x.x.x.",
"X.X.X.X.X.X.X.X.X.X.X.X.X.X.X.X.X.X.X.X.X.X.X.X.X.X.X.X.X.X.u.x.x.x.x.x.x.x.x.x.x.x.x.x.x.x.x.x.x.x.x.x.x.x.x.x.x.x.x.x.",
"X.X.X.X.X.X.X.X.X.X.X.X.X.X.X.X.X.X.X.X.X.X.X.X.X.X.X.X.X.X.u.x.x.x.x.x.x.x.x.x.x.x.x.x.x.x.x.x.x.x.x.x.x.x.x.x.x.x.x.x.",
"X.X.X.&.X.X.X.X.X.X.X.X.X.X.X.X.X.X.X.X.X.X.X.X.X.X.X.X.X.X.*.c.x.x.x.x.x.x.x.x.x.x.x.x.x.x.x.x.x.x.x.x.x.x.x.x.x.x.x.x.",
"X.X.X.#.X.X.X.X.X.X.X.X.X.X.X.X.X.&.X.X.X.X.X.X.X.X.X.X.X.X.u.c.x.x.x.x.x.x.x.x.x.x.x.x.x.x.x.x.x.x.x.x.x.x.x.x.x.x.x.x.",
"X.X.X.X.X.X.X.X.X.X.X.X.X.X.X.*.X.X.X.X.X.X.X.X.X.*.X.X.X.X.u.l.x.x.x.x.x.x.x.x.x.x.x.x.x.x.x.x.x.x.x.x.x.x.x.x.x.x.x.x.",
"X.X.X.X.X.X.X.X.X.X.X.X.X.X.X.X.X.X.X.X.X.X.X.X.X.X.X.X.X.X.u.c.x.x.x.x.x.x.x.x.x.x.x.x.x.x.x.x.x.x.x.x.x.x.x.x.x.x.x.x."
};
