/* XPM */
static char *ee055ee82aa04ef4ff4d362fba5c566aviaJpYPQOQ1DKPpD[] = {
/* columns rows colors chars-per-pixel */
"60 60 152 2 ",
"   c #DF541E",
".  c #DC5A1E",
"X  c #E74516",
"o  c #E84516",
"O  c #E64718",
"+  c #E84619",
"@  c #E54B1A",
"#  c #E9491D",
"$  c #E1521D",
"%  c #CA542C",
"&  c #DC5C21",
"*  c #DE5F28",
"=  c #E84D23",
"-  c #E35620",
";  c #E95126",
":  c #E25F25",
">  c #E7562A",
",  c #E9522A",
"<  c #EA5C36",
"1  c #EB5E3A",
"2  c #C86C2D",
"3  c #D66523",
"4  c #DC6224",
"5  c #DA6927",
"6  c #DF6029",
"7  c #D36F29",
"8  c #DE6E2E",
"9  c #CF7127",
"0  c #CF7328",
"q  c #CA7B2C",
"w  c #D07026",
"e  c #D3752B",
"r  c #D9702B",
"t  c #D67A2F",
"y  c #CD6F31",
"u  c #D47C32",
"i  c #E6653D",
"p  c #EC623E",
"a  c #9B6E47",
"s  c #97714A",
"d  c #99714A",
"f  c #EC6443",
"g  c #EC6748",
"h  c #EC6A4B",
"j  c #ED6F52",
"k  c #ED7256",
"l  c #EE755C",
"z  c #47C621",
"x  c #4AC624",
"c  c #4EC629",
"v  c #50C526",
"b  c #54C82A",
"n  c #59C92C",
"m  c #6EC92E",
"M  c #61CA30",
"N  c #6BCB35",
"B  c #74CB34",
"V  c #75CA3B",
"C  c #7CCD3A",
"Z  c #BE8126",
"A  c #BE872C",
"S  c #BD8B2D",
"D  c #BB9635",
"F  c #B89B35",
"G  c #B59C38",
"H  c #95BF37",
"J  c #98BC36",
"K  c #9DBA39",
"L  c #ABA02C",
"P  c #AEA435",
"I  c #AAAE36",
"U  c #AFA73A",
"Y  c #ACAC39",
"T  c #B2A034",
"R  c #B8A330",
"E  c #B6A03A",
"W  c #BCAB39",
"Q  c #A7B137",
"!  c #A4B73A",
"~  c #A9B13A",
"^  c #C3852E",
"/  c #CA892D",
"(  c #CF8735",
")  c #C08E35",
"_  c #CD8B37",
"`  c #C59334",
"'  c #CA9134",
"]  c #C89836",
"[  c #CA963B",
"{  c #C39B39",
"}  c #C9983B",
"|  c #C4A23E",
" . c #C0A83C",
".. c #8ECD36",
"X. c #89C63A",
"o. c #86CD3D",
"O. c #8DCD3A",
"+. c #92C636",
"@. c #90CC36",
"#. c #93C63A",
"$. c #9CC23D",
"%. c #92CD38",
"&. c #8AD03A",
"*. c #96D13B",
"=. c #A1C13C",
"-. c #968247",
";. c #939642",
":. c #9A9543",
">. c #9F9C4A",
",. c #A49C4B",
"<. c #8DA142",
"1. c #A0A748",
"2. c #B7B441",
"3. c #BDB544",
"4. c #BABB45",
"5. c #B9BC49",
"6. c #C1AC43",
"7. c #8BD042",
"8. c #ACCC47",
"9. c #B6C347",
"0. c #B7C44A",
"q. c #B2CC4B",
"w. c #A7D147",
"e. c #A3D444",
"r. c #A7D745",
"t. c #A5D446",
"y. c #A2D643",
"u. c #AAD347",
"i. c #AED046",
"p. c #ACD247",
"a. c #A8D547",
"s. c #AAD447",
"d. c #A6D843",
"f. c #A6DB43",
"g. c #A7D944",
"h. c #A6D845",
"j. c #A6DB45",
"k. c #A7D946",
"l. c #A6DA45",
"z. c #A8DA43",
"x. c #A9D945",
"c. c #A9DB44",
"v. c #A8DA45",
"b. c #A9DB46",
"n. c #A8DA47",
"m. c #A8DA45",
"M. c #A7D149",
"N. c #A9D14A",
"B. c #A9D648",
"V. c #ADD34A",
"C. c #A9DB48",
"Z. c #A9D949",
/* pixels */
"v.v.v.v.v.v.v.v.v.v.v.v.v.v.v.v.v.v.v.v.v.v.v.v.v.v.v.v.v.v.*.........%.................................................",
"v.v.v.v.v.v.v.v.v.v.v.v.v.v.v.v.v.v.v.v.v.v.v.v.v.v.v.v.v.v.*.......................................................&...",
"v.v.v.v.v.v.v.v.v.v.v.v.v.v.v.v.v.v.v.v.v.v.v.v.v.v.v.v.v.v.*...........................................%...............",
"v.v.v.v.v.v.v.v.v.v.v.v.v.v.v.v.v.v.v.v.v.v.v.v.v.v.v.v.v.v.%...............................................%.&.........",
"v.v.v.v.v.v.v.v.v.v.v.v.v.v.v.v.v.v.v.v.v.v.v.v.v.v.v.v.v.v.*...........................................................",
"v.v.v.v.v.v.v.v.v.v.v.v.v.v.v.v.v.v.v.v.v.v.v.v.v.v.v.v.v.v.*...........................................................",
"v.v.v.v.v.v.v.v.v.v.v.v.v.v.v.v.v.v.v.v.v.v.v.v.v.v.v.v.v.v.*...........................................................",
"v.v.v.v.v.v.v.v.v.v.v.v.v.v.v.v.v.v.v.v.v.v.v.v.v.v.v.v.v.v.%...........................%...............................",
"v.v.v.v.v.v.v.v.v.v.v.v.v.v.v.v.v.v.v.v.v.v.v.v.v.v.v.v.v.v.*.........................@.................................",
"v.v.v.v.v.v.v.v.v.v.v.v.v.v.v.v.v.v.v.v.v.v.v.v.v.v.v.v.v.v.*...........................................................",
"v.v.v.v.v.v.v.v.v.v.v.v.v.v.v.v.v.v.v.v.v.v.v.v.v.v.v.v.v.v.*...............%...........................................",
"v.v.v.v.v.v.v.v.v.v.v.v.v.v.v.v.v.v.v.v.v.v.v.v.v.v.v.v.v.z.%.......................................................%...",
"v.v.v.v.v.v.v.v.v.v.v.v.v.v.v.v.v.v.v.v.v.v.v.v.v.v.v.v.v.v.*...........................................................",
"v.v.v.v.v.v.v.v.v.v.v.v.v.v.v.v.v.v.v.v.v.v.v.v.v.v.v.v.v.v.*...........................................................",
"v.v.v.v.v.v.v.v.v.v.v.v.v.v.v.v.v.v.v.v.v.v.v.v.v.v.v.v.v.v.*...............%...........................................",
"v.v.v.v.v.v.v.v.v.v.v.v.v.v.v.v.v.v.v.v.v.v.v.v.v.v.v.v.v.v.%...................................%.......................",
"z.C.z.z.C.d.z.C.z.z.C.z.z.C.z.z.v.v.v.v.v.v.v.v.v.v.v.v.v.v.*.........O.7.o.&.o.........................................",
"z.d.C.C.z.C.z.d.C.C.d.z.z.d.C.C.v.v.v.v.v.v.v.v.v.v.v.v.v.v.%...O.C M b c c v x n V O...@...............................",
"C.d.C.d.z.C.z.C.d.C.d.C.C.d.C.d.v.v.v.v.v.v.v.v.d.z.v.z.v.y.#.X.C n x z z z z z z v N &.................................",
"z.C.z.z.C.d.z.C.z.z.C.z.z.C.z.z.v.v.v.v.v.v.v.v.z.v.v.v.t.1.-.<.V b z z z z z z z c N 7.................................",
"z.C.z.z.d.C.z.d.C.z.z.C.C.z.z.C.v.v.v.v.v.v.v.v.v.v.v.g.s.>.s ;.X.B n x z z z z b N o.........................%.........",
"C.d.d.C.C.z.z.C.d.C.C.d.d.C.C.d.v.v.v.v.v.v.v.v.v.v.v.v.w.>.s ;.X...X.o.B m N C o.X...........@.........................",
"z.C.C.z.C.z.z.C.z.z.z.z.z.z.z.z.v.v.v.v.v.v.v.v.v.C.v.v.N.>.d ;.#.......................................................",
"z.d.C.z.d.C.z.d.C.C.d.C.C.d.C.C.v.v.v.v.v.v.v.v.g.g.v.v.N.,.a :.#.......................................................",
"C.d.z.C.d.z.C.d.C.d.C.C.d.C.C.d.v.C.v.j.v.g.v.v.g.N.0.6.[ y % 2 D G ! #.@.................................@.@...........",
"z.C.z.C.C.z.z.C.g.C.z.z.z.z.z.z.v.v.v.v.C.v.v.9.} e 5 & $ # @ @ $ & 3 w A I %...................@.&.......&.............",
"z.C.z.d.C.z.z.C.C.g.n.g.C.z.z.C.v.v.v.v.z.u.2.u : > ; # X X X X X X X X   w P +...%.............@.....@.................",
"C.d.z.C.d.z.C.d.g.C.g.g.d.C.C.d.v.v.v.v.8.' 8 i g h h 1 # X X X X X X X X @ & A J ......@...............................",
"v.g.v.j.C.C.d.C.g.g.g.n.v.v.v.v.v.C.v.i.{ 6 p k l l l g ; X X X X X X X X X o . S H ....................................",
"g.g.g.g.d.d.d.d.g.g.g.g.g.g.t.g.g.t.u.` . p h l l l l h ; X X X X X o X X X o @ & S #.%.%.%...%...%.%.%.%.%.%.@.%.%...%.",
"%.%.@.@.%.@.%.%.@.%.%.@.%.%.@.@.%...Q 3 @ g l l l l l f = o X X X X X X X X o o o 4 2.y.g.g.g.d.t.g.g.g.g.g.d.g.g.g.g.g.",
"..................................K q @ # h l l l l k < # X X X X X X X X X X O o @ u 9.C.g.g.C.g.g.v.v.g.v.v.j.v.v.g.v.",
"..................................D $ O = g l l l l g , X X X X X X X X X X X X X O $ [ v.v.g.v.v.v.v.v.v.v.v.v.v.v.v.v.",
"............................&...#.0 @ o # f k k k f > o X X o X X X X X X o X o X X # 7 B.v.v.v.v.v.v.v.v.v.v.v.v.v.v.v.",
"........................@...@.@.$.. X X X ; 1 p < = O o X X X X X X X X X X o X X X X & q.v.v.v.v.v.v.v.v.v.v.v.v.v.v.v.",
"................................I . X X X o # @ o X X o X X X X X X X X X X X X X X X & 3.v.v.v.v.v.v.v.v.v.v.v.v.v.v.v.",
"................@.&.............T $ X X X X X X o o X X X X X X X X X X o X X X X X o $ 6.v.v.v.v.v.v.v.v.v.v.v.v.v.v.v.",
"................@...............A @ X X X X X X X o X X X X O X X X X X X X X o X X X $ _ z.v.v.v.v.v.v.v.v.v.v.v.v.v.v.",
"................................Z   X X X X X X X o X o X X X X o X X X X X X X X X o @ / v.v.x.v.v.v.v.v.v.v.v.v.v.v.v.",
"................................S @ X X X X X X X X X o X X X X X X X o X o X X X X o $ ] v.v.x.v.v.v.v.v.v.v.v.v.v.v.v.",
"..................%.............G - o O X X X X X X X X X X X X o X X X X X X X X X o $ 6.c.z.C.v.v.v.v.v.v.v.v.v.v.v.v.",
"................................Y . o o X X X X X X X X X X X X X X X X X X X X X X o . 0.c.C.z.v.v.v.v.v.v.v.v.v.v.v.v.",
"................................7.& X X X X X X X X X X X X X X X X X X X X X X X X X 5 V.f.f.z.v.v.v.v.v.v.v.v.v.v.v.v.",
"..%.............................%.0 @ X X X X X X X X X X X X X X X X X X X X X X X @ q g.C.z.C.v.v.v.v.v.v.v.v.v.v.v.v.",
"..................................G . O X X X X X X X X X X X X X X X X X X X X X O 6 3.g.v.v.g.v.v.v.v.v.v.v.v.v.v.v.v.",
"....................%.............J q @ X o X X X X X X X X X X X X X X X X X o o - _ V.v.v.v.v.v.v.v.v.v.v.v.v.v.v.v.v.",
"................................@...K 3 X X X X X X X X X X X X X X X X X X X X @ r q.g.v.g.v.v.v.v.v.v.v.v.v.v.v.v.v.v.",
"......................................S 4 @ X X X X X X X X X X X X o X X X X @ 5 | g.v.g.v.v.v.v.v.v.v.v.v.v.v.v.v.v.v.",
"................................%.....%.I 3 O X X o X X X X X X X X X X X o @ 7 5.v.v.v.v.v.v.v.v.v.v.v.v.v.v.v.v.v.v.v.",
"........................................*.F 3 @ O X X X X X X X X X X o # $ r  .u.v.v.v.v.v.v.v.v.v.v.v.v.v.v.v.v.v.v.v.",
"..................................&.%.......$.^ & # O X X X X X X o o # 6 } V.z.v.v.v.v.v.v.v.v.v.v.v.v.v.v.v.v.v.v.v.v.",
"..............................................+.Y e . $ $ @ @ @ @ $ 4 _ 5.u.v.z.v.v.v.v.v.v.v.v.v.v.v.v.v.v.v.v.v.v.v.v.",
"............%.................%...................@.*.=.Q L R W 4.q.u.t.z.v.v.v.v.v.v.v.v.z.z.v.v.v.v.v.v.v.v.v.v.v.v.v.",
"..............................&...............@.............y.f.v.v.v.v.z.v.v.v.v.v.v.v.z.z.v.v.v.v.v.v.v.v.v.v.v.v.v.v.",
"............................................................y.z.z.v.v.v.v.v.v.v.v.v.v.d.v.v.v.v.v.v.v.v.v.v.v.v.v.v.v.v.",
"..................%.................@.......@...............y.C.v.v.v.v.v.v.v.v.v.v.v.v.v.v.v.v.v.v.v.v.v.v.v.v.v.v.v.v.",
"..........%.................................................*.z.v.v.v.v.v.v.v.v.v.v.v.v.v.v.v.v.v.v.v.v.v.v.v.v.v.v.v.v.",
"............................................................y.C.v.v.v.v.v.v.v.v.v.v.v.v.v.v.v.v.v.v.v.v.v.v.v.v.v.v.v.v.",
"........................................................%...y.C.v.v.v.v.v.v.v.v.v.v.v.v.v.v.v.v.v.v.v.v.v.v.v.v.v.v.v.v.",
"..................................................%.@.&...%.*.z.v.v.v.v.v.v.v.v.v.v.v.v.v.v.v.v.v.v.v.v.v.v.v.v.v.v.v.v."
};
