/* XPM */
static char *fb62d97f0fd64419f8a00ccda74e1385K1IZ1LoFfiZ54SfP[] = {
/* columns rows colors chars-per-pixel */
"60 60 152 2 ",
"   c #E74416",
".  c #E84416",
"X  c #E84516",
"o  c #E64619",
"O  c #E84518",
"+  c #E84718",
"@  c #E84719",
"#  c #E74819",
"$  c #E6481A",
"%  c #E54C1C",
"&  c #E54D1C",
"*  c #E84A1E",
"=  c #E2521E",
"-  c #E5501F",
";  c #D74D20",
":  c #D35825",
">  c #D55926",
",  c #DE5A21",
"<  c #DB5F25",
"1  c #E84B20",
"2  c #E84D22",
"3  c #E94F26",
"4  c #E35420",
"5  c #E25421",
"6  c #E25721",
"7  c #E15D23",
"8  c #E05E26",
"9  c #E95128",
"0  c #EA5630",
"q  c #DE6125",
"w  c #DF6327",
"e  c #DD672A",
"r  c #DC692B",
"t  c #DC6C2C",
"y  c #C57A22",
"u  c #C47A24",
"i  c #CF792D",
"p  c #D0712B",
"a  c #CF7A30",
"s  c #CE7B32",
"d  c #D57F35",
"f  c #996D4A",
"g  c #986E4B",
"h  c #EC6443",
"j  c #EC6646",
"k  c #EC6847",
"l  c #ED6D4F",
"z  c #ED7055",
"x  c #ED7459",
"c  c #EE745A",
"v  c #EE765C",
"b  c #46C521",
"n  c #47C622",
"m  c #49C622",
"M  c #49C623",
"N  c #4BC625",
"B  c #4EC727",
"V  c #5FC729",
"C  c #54C82B",
"Z  c #5CCA2F",
"A  c #64CB35",
"S  c #6FCC39",
"D  c #6CCD3B",
"F  c #78C83E",
"G  c #7FCE3F",
"H  c #7DCF43",
"J  c #B59430",
"K  c #BB9C3A",
"L  c #BC9B3C",
"P  c #ABA02B",
"I  c #ADAE3D",
"U  c #B4AD34",
"Y  c #BDA936",
"T  c #B0A93C",
"R  c #B2A83D",
"E  c #B1AA3D",
"W  c #A5B337",
"Q  c #A4B73C",
"!  c #ABB03A",
"~  c #C3842B",
"^  c #CE802A",
"/  c #C68533",
"(  c #C98534",
")  c #C28B33",
"_  c #D18434",
"`  c #D38439",
"'  c #D18B39",
"]  c #D18A3B",
"[  c #CB993D",
"{  c #CB983E",
"}  c #8DC135",
"|  c #8DC536",
" . c #8DC936",
".. c #8ECB36",
"X. c #8BCF34",
"o. c #8ECC35",
"O. c #8FCD36",
"+. c #8ECD37",
"@. c #87C438",
"#. c #87CE3E",
"$. c #8CC938",
"%. c #8FC938",
"&. c #91CE37",
"*. c #96C43A",
"=. c #99C63C",
"-. c #9BC63F",
";. c #90CB39",
":. c #92CD38",
">. c #92CC3A",
",. c #96D03A",
"<. c #978147",
"1. c #9B854A",
"2. c #959547",
"3. c #9E9948",
"4. c #B2AC43",
"5. c #ACB643",
"6. c #A3BB40",
"7. c #A5BE42",
"8. c #B0B242",
"9. c #B9B844",
"0. c #BDB848",
"q. c #BBBD4A",
"w. c #BDBC4C",
"e. c #D09541",
"r. c #C6A142",
"t. c #C5A743",
"y. c #C3B14A",
"u. c #C3B751",
"i. c #8ECF41",
"p. c #83D147",
"a. c #89D24C",
"s. c #94D043",
"d. c #94D149",
"f. c #91D34C",
"g. c #96D451",
"h. c #A4CF44",
"j. c #B7C34B",
"k. c #B5C749",
"l. c #A0D641",
"z. c #A3D244",
"x. c #A4D245",
"c. c #A4D444",
"v. c #A6D745",
"b. c #A5D844",
"n. c #A7D845",
"m. c #A8DA46",
"M. c #AAD748",
"N. c #AFD44C",
"B. c #AFD44D",
"V. c #A9DB49",
"C. c #BCC554",
"Z. c #BDCF5F",
/* pixels */
"m.m.m.m.m.m.m.m.m.m.m.m.m.m.m.m.m.m.m.m.m.m.m.m.m.m.m.m.m.m.,.o.O.O.O.O.O.O.O.O.O.O.O.O.O.O.O.O.O.O.O.O.O.O.O.O.O.O.O.O.",
"m.m.m.m.m.m.m.m.m.m.m.m.m.m.m.m.m.m.m.m.m.m.m.m.m.m.m.m.m.m.,.o.O.O.O.O.O.O.O.O.O.O.O.O.O.O.O.O.O.O.O.O.O.O.O.O.O.O.O.O.",
"m.m.m.m.m.m.m.m.m.m.m.m.m.m.m.m.m.m.m.m.m.m.m.m.m.m.m.m.m.m.,.o.O.O.O.O.O.O.O.O.O.O.O.O.O.O.O.O.O.O.O.O.O.O.O.O.O.O.O.O.",
"m.m.m.m.m.m.m.m.m.m.m.m.m.m.m.m.m.m.m.m.m.m.m.m.m.m.m.m.m.m.,.o.O.O.O.O.O.O.O.O.O.O.O.O.O.O.O.O.O.O.O.O.O.O.O.O.O.O.O.O.",
"m.m.m.m.m.m.m.m.m.m.m.m.m.m.m.m.m.m.m.m.m.m.m.m.m.m.m.m.m.m.,.o.&.o.+.O.o.o.o.&.O.O.O.O.O.O.O.O.O.O.O.O.O.O.O.O.O.O.O.O.",
"m.m.m.m.m.m.m.m.m.m.m.m.m.m.m.m.m.m.m.m.m.m.m.m.m.m.m.m.m.m.,.o.+.o.&.O.+.:.o.o.O.O.O.O.O.O.O.O.O.O.O.O.O.O.O.O.O.O.O.O.",
"m.m.m.m.m.m.m.m.m.m.m.m.m.m.m.m.m.m.m.m.m.m.m.m.m.m.m.m.m.m.,.o.+.&.o.o.&.o.&.o.O.O.O.O.O.O.O.O.O.O.O.O.O.O.O.O.O.O.O.O.",
"m.m.m.m.m.m.m.m.m.m.m.m.m.m.m.m.m.m.m.m.m.m.m.m.m.m.m.m.m.m.,.o.+.+.+.o.,.o.o...O.O.O.O.O.O.O.O.O.O.O.O.O.O.O.O.O.O.O.O.",
"m.m.m.m.m.m.m.m.m.m.m.m.m.m.m.m.m.m.m.m.m.m.m.m.m.m.m.m.m.m.,.o.&.o.&.o.&.o.O...o.O.O.O.O.O.O.O.O.O.O.O.O.O.O.O.O.O.O.O.",
"m.m.m.m.m.m.m.m.m.m.m.m.m.m.m.m.m.m.m.m.m.m.m.m.m.m.m.m.m.m.,.o.....o.&.o.&...&.o.O.O.&.O.O.O.O.O.O.O.O.O.O.O.O.O.O.O.O.",
"m.m.m.m.m.m.m.m.m.m.m.m.m.m.m.m.m.m.m.m.m.m.m.m.m.m.m.m.m.m.,.o...;...;.i.p.#.,.X.o.O.O.O.O.O.O.O.O.O.O.O.O.O.O.O.O.O.O.",
"m.m.m.m.m.m.m.m.m.m.m.m.m.m.m.m.m.m.m.m.m.m.m.m.m.m.m.m.m.m.,.o...f.D B N N M N Z a.O.O.O.O.O.O.O.O.O.O.O.O.O.O.O.O.O.O.",
"m.m.m.m.m.m.m.m.m.m.m.m.m.m.m.m.m.m.m.m.m.m.m.m.m.m.m.m.m.n.,.o.G M b n n n n n n m A s.&.o.+.O.O.O.O.O.O.O.O.O.O.O.O.O.",
"m.m.m.m.m.m.m.m.m.m.m.m.m.m.m.m.m.m.m.m.m.m.m.m.m.m.m.m.v.3.<.2.H n b b n n n b b n Z d.+.o.&.O.O.O.O.O.O.O.O.O.O.O.O.O.",
"m.m.m.m.m.m.m.m.m.m.m.m.m.m.m.m.m.m.m.m.m.m.m.m.m.m.n.m.v.1.g <.o.H C b n n b M M D &.o.+.&.o.&.O.O.O.O.O.O.O.O.O.O.O.O.",
"m.m.m.m.m.m.m.m.m.m.m.m.m.m.m.m.m.m.m.m.m.m.m.m.m.m.V.n.v.1.g <.o.o.@.p.S V V H g...o.&.o.&.+.+.O.O.O.O.O.O.O.O.O.O.O.O.",
"m.m.m.m.m.m.m.m.m.m.m.m.m.m.m.m.m.m.m.m.m.m.m.m.m.m.n.m.n.1.g <.o.o.:.;.o.&.o.o.o.o.o.,.&.o.o.+.O.O.O.O.O.O.O.O.O.O.o.&.",
"m.m.m.m.m.m.m.m.m.m.m.m.m.m.m.m.m.m.m.m.m.m.m.m.m.m.n.n.v.1.g <.$.o.o.o.o.o.o...+.&.o.o.+.+.:.o.O.O.O.O.O.O.O.O.O.&.+.+.",
"m.m.m.m.m.m.m.m.m.m.m.m.m.m.m.m.m.m.m.m.m.m.m.m.m.V.k.t.` > ; : s J Q >.:.o.o.X.o.&.o.+.o.+.o.&.O.O.O.O.O.O.O.O.O.O.&.o.",
"m.m.m.m.m.m.m.m.m.m.m.m.m.m.m.m.m.m.m.m.m.m.m.x.w._ 4 O . . . . . . - i R | o.,.+.+.+.+.$.X.&.o.O.O.O.O.O.O.O.O.O.O.+.+.",
"m.m.m.m.m.m.m.m.m.m.m.m.m.m.m.m.m.m.m.m.m.n.y.w 2 9 9 * . . . # . O O . o , K &.&.o.o.o.:.o.o.&.O.O.O.O.O.O.O.O.O.O.O.O.",
"m.m.m.m.m.m.m.m.m.m.m.m.m.m.m.m.m.m.m.m.v.w.4 9 l x x 0   O . . . # . # .   o R o.+.:.o.&.o.&.o.O.O.O.O.O.O.O.O.O.O.O.O.",
"m.m.m.m.m.m.m.m.m.m.m.m.m.m.m.m.m.m.m.z.] % j x v v c v 2 . # . . . # . # . . O s | +.o.o.o.o.&.O.O.O.O.O.O.O.O.O.O.O.O.",
"m.m.m.m.m.m.m.m.m.m.m.m.m.m.m.m.m.m.n.0.o 3 x v v v v v 3 . # . # . . . # . @ .   ! ..:.o.:.&.o.O.O.O.O.O.O.O.O.O.O.O.O.",
"m.m.m.m.m.m.m.m.m.m.m.m.m.m.m.m.m.m.q.6 O h v v v v v x * . # . . @ . . . @ . . . = I :.O.o.O.O.O.O.O.O.O.O.O.O.,.o.o.+.",
"m.m.m.m.m.m.m.m.m.m.m.m.m.m.m.m.m.h.r . * z v v v v v j . . # . . @ . @ . . @ . . . q | O.O.O.O.O.O.O.O.O.O.O.O.o.o.o.+.",
"m.m.m.m.m.m.m.m.m.m.m.m.m.m.m.m.m.u.# . * z v v v c j * . # . . . . @ . @ @ . . # .   I O.O.O.O.O.O.O.O.O.O.O.O.o.&.o.o.",
"m.m.m.m.m.m.m.m.m.m.m.m.m.m.m.m.m.d . . . j v v v z 2 . . . . # @ . . . . . . @ # .   i O.O.O.O.O.O.O.O.O.O.O.O.o.&.o.&.",
"m.m.m.m.m.m.m.m.m.m.m.m.m.m.m.m.N.7 . . . * 0 j 0 * . @ # @ . . . . @ @ # . . . . . . 6 =.&.&.O.O.&.O.&.O.O.&.O.,.X...&.",
"b.b.b.b.b.b.b.b.b.b.b.b.b.b.b.v.9.O . # @ . * O . @ . . . . . @ @ . . . . . # O . # o O ! &.&.&.O.O.O.O.O.O.O.O.o.o.o.o.",
"&.&.&.&.&.&.&.&.&.&.&.&.&.&.&.&.L . . # @ . . . . O @ . . . . @ @ . . . . @ . . # . . # r.b.b.b.b.b.b.b.b.b.b.b.n.b.b.n.",
"o.o.o.o.o.o.o.o.o.o.o.o.......&.u # . . . . @ # . . . . @ @ . . . . @ @ . . # . . . # . ^ m.m.m.m.b.m.m.m.m.m.m.m.m.n.m.",
"&.&.o.o.+.&.o.O.O.O.O.O.O.O.O.O.y . . O O . # . . . O . @ . @ . @ . . . . . @ . . . @ . i m.m.m.m.m.m.m.m.m.m.m.m.m.m.m.",
"o.o.o.&.o.&.+.&.O.O.O.O.O.O.O.O.~ . O O . O . O . # . # . . . . . @ . @ . @ . @ . @ . @ [ m.m.m.m.m.m.m.m.m.m.m.m.m.m.m.",
"o.o.o.&.o.+.&.+.O.O.O.O.O.O.O.O.R . . . O . O . O . . . @ . . . @ . @ . @ . @ . @ . @ . y.m.m.m.m.m.m.m.m.m.m.m.m.m.m.m.",
",.&.o.o.&.+.o.+.O.O.O.O.O.O.O.O.W $ # O . O . O . O . # . @ . @ . @ . . . . . @ . . . 6 k.m.m.m.m.m.m.m.m.m.m.m.m.m.m.m.",
"o.o.o.&.o.&.:.o.O.O.O.O.O.O.O.O.=.6   . . . . # O . @ . . . @ . . . @ . @ . . . @ . . w m.m.m.m.m.m.m.m.m.m.m.m.m.m.m.m.",
"o.o.&.o.&.o.o.o.O.O.O.O.O.O.O.O.&.(     @ # . . . # . @ . @ . . . @ . . . . . @ . . . [ m.m.m.m.m.m.m.m.m.m.m.m.m.m.m.m.",
"o.o.:.&.o.+.+.&.O.O.O.O.O.O.O.O.:.5.. @ . . O . . . @ . @ . @ . @ . @ . @ . . . . . @ Z.m.m.m.m.m.m.m.m.m.m.m.m.m.m.m.m.",
"+.+.o.o.&.X.o.+.O.O.O.O.O.O.O.O.;.| p . . @ . . . # . . . . . @ . . . @ . @ . @ . @ ' m.m.m.m.m.m.m.m.m.m.m.m.m.m.m.m.m.",
"O.O.O.O.O.O.O.O.O.O.O.O.O.O.O.O.O.O.=.= + + . # . . . # . + + X . . . @ . O # . . t N.m.m.m.m.m.m.m.m.m.m.m.m.m.m.m.m.m.",
"O.O.O.O.O.O.O.O.O.O.O.O.O.O.O.O.O.O.&.! & + . # # O . . . . . + @ @ . . . . . . 6 Q m.m.m.m.m.m.m.m.m.m.m.m.m.m.m.m.m.m.",
"O.O.O.O.O.O.O.O.O.O.O.O.O.O.O.O.O.O.o.O.I 6 # # . . # . + . . + . . # . # . . q j.m.m.m.m.m.m.m.m.m.m.m.m.m.m.m.m.m.m.m.",
"O.O.O.O.O.O.O.O.O.O.O.O.O.O.O.O.O.&.+.o.&.Q 6 O . # . . # . . + . @ . . # O r 7.m.m.m.m.m.m.m.m.m.m.m.m.m.m.m.m.m.m.m.m.",
"O.O.O.O.O.O.O.O.O.O.O.O.O.O.O.O.+.+.&.&.+.+.*.) # . . # . . + X . . + . - t.m.m.m.m.m.m.m.m.m.m.m.m.m.m.m.m.m.m.m.m.m.m.",
"O.O.O.O.O.O.O.O.O.O.O.O.O.O.O.O.+.+.o.+.+.o.o.;.4.( 6 & + . X + O 2 7 { C.m.m.m.m.m.m.m.m.m.m.m.m.m.m.m.m.m.m.m.m.m.m.m.",
"O.O.O.O.O.O.O.O.O.O.O.O.O.O.O.O.o.o.o.&.o.:.,.o.o.;.&.-.W P U Y q.N.V.m.m.m.m.m.m.m.m.m.m.m.m.m.m.m.m.m.m.m.m.m.m.m.m.m.",
"O.O.O.O.O.O.O.O.O.O.O.O.O.O.O.O.o.,.o.+.o.o.o.o.&.o.o.o.&.&.l.m.n.m.m.m.m.m.m.m.m.m.m.m.m.m.m.m.m.m.m.m.m.m.m.m.m.m.m.m.",
"O.O.O.O.O.O.O.O.O.O.O.O.O.O.O.O.O.O.O.O.O.O.O.O.O.O.O.O.O.O.l.m.m.m.m.m.m.m.m.m.m.m.m.m.m.m.m.m.m.m.m.m.m.m.m.m.m.m.m.m.",
"O.O.O.O.O.O.O.O.O.O.O.O.O.O.O.O.O.O.O.O.O.O.O.O.O.O.O.O.O.O.l.m.m.m.m.m.m.m.m.m.m.m.m.m.m.m.m.m.m.m.m.m.m.m.m.m.m.m.m.m.",
"O.O.O.O.O.O.O.O.O.O.O.O.O.O.O.O.O.O.O.O.O.O.O.O.O.O.O.O.O.X.,.m.m.m.m.m.m.m.m.m.m.m.m.m.m.m.m.m.m.m.m.m.m.m.m.m.m.m.m.m.",
"O.O.O.O.O.O.O.O.O.O.O.O.O.O.O.O.O.O.O.O.O.O.O.O.O.O.O.O.O.O.l.m.m.m.m.m.m.m.m.m.m.m.m.m.m.m.m.m.m.m.m.m.m.m.m.m.m.m.m.m.",
"O.O.O.O.O.O.O.O.O.O.O.O.O.O.O.O.O.O.O.O.O.O.O.O.O.O.O.O.O.O.l.m.m.m.m.m.m.m.m.m.m.m.m.m.m.m.m.m.m.m.m.m.m.m.m.m.m.m.m.m.",
"O.O.O.O.O.O.O.O.O.O.O.O.O.O.O.O.O.O.O.O.O.O.O.O.O.O.O.O.O.O.l.m.m.m.m.m.m.m.m.m.m.m.m.m.m.m.m.m.m.m.m.m.m.m.m.m.m.m.m.m.",
"O.O.O.O.O.O.O.O.O.O.O.O.O.O.O.O.O.O.O.O.O.O.O.O.O.O.O.O.O.O.l.m.m.m.m.m.m.m.m.m.m.m.m.m.m.m.m.m.m.m.m.m.m.m.m.m.m.m.m.m.",
"O.O.O.O.O.O.O.O.O.O.O.O.O.O.O.O.O.O.O.O.O.O.O.O.O.O.O.O.O.O.l.m.m.m.m.m.m.m.m.m.m.m.m.m.m.m.m.m.m.m.m.m.m.m.m.m.m.m.m.m.",
"O.O.O.O.O.O.O.O.O.O.O.O.O.O.O.O.O.O.O.O.O.O.O.O.O.O.O.O.O.O.,.m.m.m.m.m.m.m.m.m.m.m.m.m.m.m.m.m.m.m.m.m.m.m.m.m.m.m.m.m.",
"O.O.O.O.O.O.O.O.O.O.O.O.O.O.O.O.O.O.O.O.O.O.O.O.O.O.O.O.O.O.b.m.m.m.m.m.m.m.m.m.m.m.m.m.m.m.m.m.m.m.m.m.m.m.m.m.m.m.m.m.",
"O.O.O.O.O.O.O.O.O.O.O.O.O.O.O.O.O.O.O.O.O.O.O.O.O.O.O.O.+.O.,.m.m.m.m.m.m.m.m.m.m.m.m.m.m.m.m.m.m.m.m.m.m.m.m.m.m.m.m.m.",
"O.O.O.O.O.O.O.O.O.O.O.O.O.O.O.O.O.O.O.O.O.O.O.O.O.O.O.O.&.&.b.m.m.m.m.m.m.m.m.m.m.m.m.m.m.m.m.m.m.m.m.m.m.m.m.m.m.m.m.m."
};
