/* XPM */
static char *f4748db8e8324f9392114d159161e11cILyc8Wb2TJwtmZEq[] = {
/* columns rows colors chars-per-pixel */
"60 60 210 2 ",
"   c #7BB26F",
".  c #76AC7B",
"X  c #7CB279",
"o  c #7EB677",
"O  c #8ECE2D",
"+  c #91CE2C",
"@  c #8CD02B",
"#  c #91D12A",
"$  c #8ECD36",
"%  c #8DCC3A",
"&  c #88C638",
"*  c #91CC35",
"=  c #91CC3A",
"-  c #99CF3B",
";  c #91C73E",
":  c #8CD033",
">  c #8FD038",
",  c #91D135",
"<  c #95D13A",
"1  c #98D039",
"2  c #9ED93F",
"3  c #A5D73E",
"4  c #A6DA3C",
"5  c #A8DB3D",
"6  c #A0D636",
"7  c #83BB6D",
"8  c #84BC73",
"9  c #89BE7C",
"0  c #86BA7B",
"q  c #91BF7F",
"w  c #8DCC42",
"e  c #8CCB4B",
"r  c #8FC64F",
"t  c #94C744",
"y  c #92CA41",
"u  c #99CE46",
"i  c #91CE4A",
"p  c #9FD742",
"a  c #98D447",
"s  c #8ECA54",
"d  c #8BC65C",
"f  c #8ECD59",
"g  c #8BC756",
"h  c #91C559",
"j  c #8FD153",
"k  c #9ED850",
"l  c #A1D643",
"z  c #A5DB45",
"x  c #A8DA45",
"c  c #A6DA4A",
"v  c #A9D94B",
"b  c #A8D649",
"n  c #A4D652",
"m  c #A9D753",
"M  c #A5D953",
"N  c #A9DA52",
"B  c #A5DA5D",
"V  c #A8DC5E",
"C  c #A6D75A",
"Z  c #A6E047",
"A  c #B0E243",
"S  c #8AC563",
"D  c #8BC56D",
"F  c #88C761",
"G  c #91C462",
"H  c #98CC6A",
"J  c #9BD26C",
"K  c #8DC27A",
"L  c #88C174",
"P  c #96C87A",
"I  c #9BD074",
"U  c #A3D665",
"Y  c #A4D863",
"T  c #A3D36D",
"R  c #A4D96A",
"E  c #A9DA65",
"W  c #A3CF76",
"Q  c #A4D472",
"!  c #A2D47C",
"~  c #A6D970",
"^  c #606AB9",
"/  c #596CC9",
"(  c #5D7FCB",
")  c #5D7ACB",
"_  c #5B7DD2",
"`  c #5C7BDB",
"'  c #5B76DD",
"]  c #607DCD",
"[  c #737BCE",
"{  c #647DDB",
"}  c #6A7BDC",
"|  c #617CD7",
" . c #5672E6",
".. c #557EE2",
"X. c #5B7AE5",
"o. c #5A75ED",
"O. c #557CEE",
"+. c #5C7CED",
"@. c #5E77F3",
"#. c #567DF4",
"$. c #5B7CF6",
"%. c #5C77FB",
"&. c #567CFC",
"*. c #5B7CFA",
"=. c #4D76E8",
"-. c #637DE2",
";. c #607CEC",
":. c #6075EC",
">. c #607EF3",
",. c #617CFD",
"<. c #6B968C",
"1. c #70988F",
"2. c #65899B",
"3. c #64819F",
"4. c #6C9E94",
"5. c #6B969E",
"6. c #729597",
"7. c #76A68D",
"8. c #75A98D",
"9. c #7AAA8E",
"0. c #79A98A",
"q. c #7EB287",
"w. c #7AAA95",
"e. c #79A29B",
"r. c #7CAB9A",
"t. c #77A598",
"y. c #6485A5",
"u. c #6B92AB",
"i. c #6898A5",
"p. c #7196AA",
"a. c #729EAB",
"s. c #789DAD",
"d. c #648CB5",
"f. c #6A8AB2",
"g. c #6386BB",
"h. c #6489B8",
"j. c #698DBC",
"k. c #6D92BB",
"l. c #6992B6",
"z. c #729CB4",
"x. c #77A2AC",
"c. c #7DA1AC",
"v. c #5C83C3",
"b. c #5D82CB",
"n. c #5E82D2",
"m. c #5E81D9",
"M. c #6483C4",
"N. c #6189C5",
"B. c #6C8DC4",
"V. c #6283CB",
"C. c #6D91C1",
"Z. c #6282D2",
"A. c #6B84D8",
"S. c #7480D4",
"D. c #748AC6",
"F. c #5B82E3",
"G. c #5E80EB",
"H. c #5A82F6",
"J. c #5B81FC",
"K. c #5F88FA",
"L. c #6B82E9",
"P. c #778FEF",
"I. c #758DE5",
"U. c #7E97E5",
"Y. c #7F97ED",
"T. c #81AF87",
"R. c #8CB982",
"E. c #84B384",
"W. c #91BA89",
"Q. c #83AD92",
"!. c #82AB99",
"~. c #84B193",
"^. c #8BB598",
"/. c #92BC99",
"(. c #87AFA6",
"). c #80A9AB",
"_. c #8DB3A6",
"`. c #90B7A2",
"'. c #8EB9B2",
"]. c #9AC688",
"[. c #9ACB85",
"{. c #98C791",
"}. c #A3D382",
"|. c #8195DC",
" X c #89A4CF",
".X c #91AAD7",
"XX c #8096EC",
"oX c #829AF3",
"OX c #889DFA",
"+X c #96AFE7",
"@X c #9DB5E9",
"#X c #9CB0E3",
"$X c #8EA1FF",
"%X c #94A4FF",
"&X c #A5B4ED",
"*X c #B4BDF3",
"=X c #AEC8EB",
"-X c #AFC7FF",
";X c #AEC6F6",
":X c #BAC4FE",
">X c #B5C9FF",
",X c #BBCCFF",
"<X c #B0C5FF",
"1X c #BBD0FF",
"2X c #D4E3FF",
"3X c #D4EBFF",
"4X c #D8EBFF",
"5X c #DDF0FF",
"6X c #E2F6FF",
"7X c #EBFCFF",
/* pixels */
"$ $ $ $ $ $ $ $ % $ $ $ $ $ $ $ $ @ $ $ $ * * $ $ % $ = ; t l x x x x 5 5 x c c c z 5 5 m b 5 5 5 z x x x x x x x x x x ",
"$ $ $ $ $ = $ $ $ $ $ = $ $ = $ : $ $ $ * * * * $ $ % = ; - 4 x v v x 5 5 x z 4 c z 5 x c v x x x x x x x x v x x x x x ",
"$ $ $ $ $ $ $ $ $ $ $ $ $ $ $ $ $ $ $ O O * % = $ $ % y % - 4 z c m v z x 5 5 5 z v x x x x c v x x x z x x z x x z x x ",
"$ $ $ $ $ $ $ $ $ $ $ $ $ $ $ % % $ $ $ # * ; = $ $ % y * * 4 z v v v v x 4 5 5 x x x x x x v v x x x x x x x x x x x x ",
"$ $ $ $ $ % = $ $ $ $ = $ $ $ % w w % ; * $ $ * $ : $ $ O + 3 z 5 Z z x v v x z x 5 x x 5 x z x x x x x x z x x z x x x ",
"$ $ $ $ $ $ $ $ $ $ $ $ $ $ $ $ w w y % * * * O $ $ $ $ O * z z 5 4 z c z x x v x x x x x x 5 x x x x x x x x x x x x x ",
"$ $ $ = $ $ $ $ $ $ $ $ = $ $ $ % $ $ = = = $ $ O : % w % w k k z z M c z 4 v v m b x 5 5 5 5 x z x x x x x x x x x x x ",
"$ $ $ $ $ $ $ $ $ $ $ $ $ $ $ $ $ $ * = $ = $ $ $ e d L 8 K [.P ! T Y M z 4 x m m v x 5 5 5 x 5 x x x x z x x x x x x x ",
"$ = $ $ $ $ $ $ $ $ $ $ $ $ $ * @ $ = = $ $ $ = f o w.x.d.h.h.f.c.Q.[.R z 4 z x m b x 5 5 x x z x x x x z x x x x x x x ",
"$ % $ $ $ $ $ $ % $ $ = $ * $ : # @ = y = % w g o 4.d.b.L.X.+.-.Z.f.w.q Y c z x v b x x x x z c x x x x x x x x x x x z ",
"$ $ $ $ $ = $ $ $ $ $ $ $ $ $ $ @ @ % y % i d X i.b._ X.;.$.>.@.+.` ] p.W.J z 5 m m x 5 c b x x x x x z x x x x x x x x ",
"$ $ $ $ $ $ $ $ $ $ $ $ $ $ $ $ O O % % % h 0 5.n.#.$.*.$.@.%.,.*.,.@.b.6.[.V z m m x x v v v v x x x x x x x x x x x x ",
"$ $ $ $ $ $ $ $ $ $ $ $ $ $ $ % $ % % w $ S a.( $.%.*.*.$.#.$.*.&.*.&.@.] ).! c v v v b x x x x x x x x x x x x x x z x ",
"$ $ $ $ $ % $ $ $ $ $ $ $ $ $ $ % w % ; = 7 k.o.*.&.&.&.$.$.*.*.*.#.%.,.o.B.P c v x m v x 5 x x x x x x x z z x z v x x ",
"$ $ $ $ $ $ $ $ $ = $ $ $ $ = $ $ $ % w i   N.%.*.$.#.#.&.J.*.#.J.H.#.*.:.] R.C v v x x x x x x x x x x x x x x x x x x ",
"= $ $ $ = $ $ $ $ % $ $ $ $ $ $ $ : $ w s . b.%.$.H.H.H.&.&.*.$.=.K.#.%.,.V.E.U n v x x x x x v x z x x v x x x x x x x ",
"% : % $ $ $ $ $ : $ $ % $ > $ $ $ $ $ % d 8.b.%.$.$.$.#.*.*.H.&.$.H.$.$.*.V.T.Q m x z c z z x x x b x x x x x x b x x x ",
"$ % > $ : $ $ $ $ % : : $ $ $ $ = $ $ w F 8.b.$.*.*.*.#.*.&.*.$.*.*.*.#.*.b.Q.Q m x c z z x x x x x x x x x x x x x b x ",
"$ $ $ $ $ $ $ $ % $ $ $ $ $ $ $ $ $ $ % S 8.b.$.$.*.$.$.*.&.$.&.*.>.$.#.*.b.Q.Q m x x c x x x x x x x x x x x x x x x x ",
"$ $ $ $ $ $ $ % $ $ $ $ $ % $ $ % $ : w S 8.b.*.*.$.&.H.&.*.*.$.*.$.$.#.H.V.Q.Q m x x z x x x x x x x x x x x x x x x x ",
"$ * = $ $ * = $ $ $ * = * $ = = % $ O w S 8.b.@.$.&.$.*.$.*.&.$.*.$.H.#.>.] Q.Q m x x v x z b x x x x x z z x z x x x x ",
"$ $ * * * = * * $ * $ * = $ * * % $ $ w F 8.( *.*.$.*.$.*.*.*.$.*.$.&.#.*.] Q.Q m x x v z x x x x x x z z z z z x x x x ",
"$ $ $ $ $ $ $ $ $ $ $ $ $ $ $ $ % $ $ w S 8.( $.$.%.*.$.*.*.*.$.$.*.#.H.*.V.Q.Q m x b x v x x b x x x x x x x x x x z x ",
"$ $ $ $ $ = $ $ $ $ $ $ $ $ $ $ $ $ O w S 8.b.*.*.$.$.*.*.*.@.*.*.*.#.$.*.b.Q.Q m b x v z x x x x x x x z x x x x x x z ",
"$ $ % $ : % : % : $ $ $ % : $ $ $ < : % F 8.b.@.$.,.$.$.*.*.*.*.*.$.#.#.*.b.Q.~ m x z c x x x x x x x x x x x x x x x x ",
"> $ > $ > $ : > = : > > $ > > $ % = $ w S w.b.*.*.@.*.$.*.*.*.$.*.$.#.#.*.b.Q.Q m x z z c x x x x x x x b x x x x x x x ",
"$ $ $ $ $ $ $ $ $ $ & * $ $ $ $ $ $ $ $ S 9.b.@.$.*.$.$.*.*.*.$.$.*.$.#.*.b.Q.Q m v c c x Z z x b x x x x x b A x x x x ",
"= < $ $ = > = $ * = * = = > = * = = * y S 9.V.,.%.$.$.*.*.*.$.*.$.*.$.#.H.b.Q.Q m x z z c z l z x x x b x b 3 b x x x x ",
"* * * $ $ * * $ * $ * * * $ * * = * + ; S 7.V.*.@.*.*.#.&.*.#.*.%.H.*.#.$.b.Q.W M x c Z Z Z c z Z z z z x x x x z z z Z ",
"* * * $ * * * * * $ * * * * * * ; * * w S 8.( @.*.*.$.H.*.&.$.*.$.*.H.$.$.b.Q.T M z z c p z Z z z z z z x x z z x z z z ",
"l p l p l p l p l p l p l l l p l p 2 a I ~.V.K.%.$.$.$.&.&.&.H.$.@.$.#.*.b.T.H u - < < - , 1 - 1 1 - 1 1 1 1 < - < 1 < ",
"b l c z z c b l z c z z b l c z v v z Y [.).| @.$.*.*.&.&.&.*.*.&.*.*.$.*.( e.9 r w $ $ $ $ * $ $ O * $ + $ * * * $ * * ",
"x z x z x z x z x z x z x z x v x b N I '.B.` :.@.J.*.&.&.&.%.,.*.&.*.%.:.) k.w.D s w $ : $ % % % = * $ = $ = $ * $ = $ ",
"x x x x z x x x x x x x x x x x v m R R.u.] U.oXL.;.*.&.*.*.,.%.J.*.@.L.OX|.g.u.. F e $ > : % w % $ $ $ $ $ $ $ $ $ $ $ ",
"x x x x x x x x x x x x x x x x p Y ].1.f.@X4X5X>XU.X.*.J.H.+.#.#.X.Y.,X5X4X@Xy.<.8 e $ = * % % $ $ $ $ $ $ $ $ $ $ $ $ ",
"x x x x x x x x x x x x x x x z c R /.2. X4X7X7X7X>X{ @.&.#.O.H.@.-.-X6X7X7X5X.X2.T.g * * * * * $ $ $ $ $ $ $ $ $ $ $ $ ",
"x x x x x x x x x x x x x x x z c J (.f.=X7X:X*X2X2XI.;.O.#.H.&.@.P.3X4X*X:X5X;Xy.!.S > = $ + # $ $ $ $ $ $ = $ $ $ $ $ ",
"x x x x x z x z x x x x x z x z l T `.3..X,X[ ^ &X>XA.>.$.&.&.*.$.L.-X#X^ S.,X+Xy.w.d % = $ @ @ $ $ $ * $ $ $ $ $ $ $ $ ",
"x x x x x x x x x x x x x x x x 6 m ].6.D.$X} / XXoX .*.%.&.$.>.$. .OXoX/ { $XA.5.0 e @ : : O $ $ $ $ % $ $ $ $ $ = $ $ ",
"z x x x x x x v x z z x x x x x A b T W.y.{ X.X.;.$.%.%.%.,.%.$.*.*.@.G.' ` | f.8.F & @ : : % $ % $ $ $ $ $ $ $ $ $ $ $ ",
"x x x x x z x x x x x x x x x x x x m W `.C.m.#.&.&.&.*.%.@.@.>.&.J.#.O.$.` j.w.D w : : : % w w $ $ $ $ $ $ $ $ $ $ $ $ ",
"x x x x x x x x x x x x x x x x x v v E {.s.n.H.&.&.&.*.$.>.$.$.&.J.O.#.*.F.a.9 w $ $ $ : & w > $ $ $ $ $ % $ $ = $ $ $ ",
"x x x z v x x x x x x z x x x x x x l B }.!.b.G.&.&.*.*.$.$.#.#.#.J.G.#.*.m.e.K w + $ $ + * % ; = $ $ $ = $ $ $ $ $ $ $ ",
"x x x x x x x x x x x x x x x x x x l n Q ~.v.H.&.&.H.*.$.$.H.#.#.H.#.J.*._ 7.S ; + + O + + = ; = $ $ $ $ $ $ $ $ $ $ $ ",
"z x x x x x z x x x x x x x x z z Z z n Q ~.v.G.H.H.#.*.*.*.#.H.#.@.H.H.&.b.9.G t * $ : + + = = = $ $ $ $ $ $ $ $ $ $ $ ",
"x x x x x x x x x x x x z x x z 4 z A c T /.v.O.G.O.*.*.@.*.&.&.&.%.#.$.H.v.q.h t $ $ : + O + * = $ $ $ $ $ $ $ $ $ % $ ",
"x z x x x x x x x x z x v x x x x 4 x l C ].C...G.H.%.@.,.%.&.&.*.%.H.O.F.d.7 w = % % % % : * * $ $ $ $ % = $ $ $ $ $ $ ",
"x x x x x x x x z x x x x x x x v 5 x x N I x.b.F.$.$.%.%.,.&.*.%.*.H.F.v.i.S $ * = w w % % $ $ $ $ $ $ $ $ $ $ $ $ $ = ",
"x x x x x x x z x x x x x x x v c z A 4 2 R {.u.V.` @.%.*.&.*.*.%.H.+.b.i.q.e , * * % % $ $ $ $ $ $ $ $ $ $ $ $ $ $ $ $ ",
"x x x x x x x x x z x x x x x x v l 5 5 z V }./.p.M.` +.$.$.#.O.+.` v.i.0.D e O $ * % $ $ O : $ $ $ $ $ $ $ $ $ = % $ $ ",
"x x x x x x x x x x x x x x x x x 4 x x c n Y Q R.e.j.Z.;.>.$.G.Z.h.4.o d i w % = * $ % $ $ $ O $ $ $ $ $ $ $ $ $ $ $ $ ",
"x x c x x x x x x x x x z x x x 5 5 x v b p c M T ].^.s.k.g.g.h.z.r.8 f w & % y * * $ $ % % $ $ $ $ $ $ $ $ $ $ $ $ $ $ ",
"x x x x x v x x x z x x x x x x 5 5 x x c x x v c B R J I P q 9 L F g w > % % $ # # O $ w w % : $ = $ $ $ $ $ $ $ $ $ $ ",
"x x x x x l x x x x x x x x x x b x x 5 x x x x x 5 z Z z p ; ; e % $ $ % > * O @ + O $ % w % % $ $ $ $ $ $ $ = = $ $ $ ",
"x x x x x x x x x x x x x x x c b v x 5 5 5 x x x 4 4 4 z p u ; O @ $ % % * * # + * $ % $ % $ % $ $ $ $ $ $ $ $ $ $ $ $ ",
"x z x x x x x x x x x x x z x v v v x 5 5 5 5 x x x 4 4 z 3 - * # @ $ = = * $ $ = % % $ $ $ $ $ $ $ $ $ $ $ $ $ $ $ $ $ ",
"x x x x x x x x x x x x x x x x v v x x x x x x v c v b v x * + + * = $ * * * = ; y % $ $ O $ O $ % $ $ $ $ $ $ $ $ $ $ ",
"x x x x x x x x x z x x x x x z x x z z x v z x v b m c c l + + * % = = * * $ = % = $ $ + @ $ : $ $ $ $ $ $ $ $ $ $ $ $ ",
"x x x x z x x x x x x x x x x z c c c c c c v x c b c z v z = * * $ $ % % % % $ $ $ $ @ $ $ $ = $ $ = $ $ = $ $ $ $ % = ",
"x x z v x x x x z x x x x x x c c c c c c c v v c z c z x l - * + $ % % ; w % $ $ @ + @ O $ $ $ % $ $ $ $ $ $ $ $ $ $ $ "
};
