/* XPM */
static char *_e40a6c4f90045eaecac758056af9095w5hP5BJ2Fi23HrqD[] = {
/* columns rows colors chars-per-pixel */
"60 60 10 1 ",
"  c #A7D948",
". c #95CF3D",
"X c #8DCB38",
"o c #8ECC39",
"O c #A4D746",
"+ c #96D03E",
"@ c #90CD3A",
"# c #9ED442",
"$ c #9FD543",
"% c white",
/* pixels */
"                              .Xoooooooooooooooooooooooooooo",
"                              .Xoooooooooooooooooooooooooooo",
"                              .Xoooooooooooooooooooooooooooo",
"                              .Xoooooooooooooooooooooooooooo",
"                              .Xoooooooooooooooooooooooooooo",
"                              .Xoooooooooooooooooooooooooooo",
"                              .Xoooooooooooooooooooooooooooo",
"                              .Xoooooooooooooooooooooooooooo",
"                              .Xoooooooooooooooooooooooooooo",
"                              .Xoooooooooooooooooooooooooooo",
"                              .Xoooooooooooooooooooooooooooo",
"                              .Xoooooooooooooooooooooooooooo",
"                              .Xoooooooooooooooooooooooooooo",
"                              .Xoooooooooooooooooooooooooooo",
"                              .Xoooooooooooooooooooooooooooo",
"                              .Xoooooooooooooooooooooooooooo",
"                              .Xoooooooooooooooooooooooooooo",
"                              .Xoooooooooooooooooooooooooooo",
"                              .Xoooooooooooooooooooooooooooo",
"                              .Xoooooooooooooooooooooooooooo",
"                              .Xoooooooooooooooooooooooooooo",
"                              .Xoooooooooooooooooooooooooooo",
"                              .Xoooooooooooooooooooooooooooo",
"                              .Xoooooooooooooooooooooooooooo",
"                              .Xoooooooooooooooooooooooooooo",
"                              .Xoooooooooooooooooooooooooooo",
"                              .Xoooooooooooooooooooooooooooo",
"                              .Xoooooooooooooooooooooooooooo",
"                              .XXXXXXXXXXXXXXXXXXXXXXXXXXXXX",
"OOOOOOOOOOOOOOOOOOOOOOOOOOOOOO+@@@@@@@@@@@@@@@@@@@@@@@@@@@@@",
"@@@@@@@@@@@@@@@@@@@@@@@@@@@@@@#OOOOOOOOOOOOOOOOOOOOOOOOOOOOO",
"XXXXXXXXXXXXXXXXXXXXXXXXXXXXXX$                             ",
"oooooooooooooooooooooooooooooX$                             ",
"oooooooooooooooooooooooooooooX$                             ",
"oooooooooooooooooooooooooooooX$                             ",
"oooooooooooooooooooooooooooooX$                             ",
"oooooooooooooooooooooooooooooX$                             ",
"oooooooooooooooooooooooooooooX$                             ",
"oooooooooooooooooooooooooooooX$                             ",
"oooooooooooooooooooooooooooooX$                             ",
"oooooooooooooooooooooooooooooX$                             ",
"oooooooooooooooooooooooooooooX$                             ",
"oooooooooooooooooooooooooooooX$                             ",
"oooooooooooooooooooooooooooooX$                             ",
"oooooooooooooooooooooooooooooX$                             ",
"oooooooooooooooooooooooooooooX$                             ",
"oooooooooooooooooooooooooooooX$                             ",
"oooooooooooooooooooooooooooooX$                             ",
"oooooooooooooooooooooooooooooX$                             ",
"oooooooooooooooooooooooooooooX$                             ",
"oooooooooooooooooooooooooooooX$                             ",
"oooooooooooooooooooooooooooooX$                             ",
"oooooooooooooooooooooooooooooX$                             ",
"oooooooooooooooooooooooooooooX$                             ",
"oooooooooooooooooooooooooooooX$                             ",
"oooooooooooooooooooooooooooooX$                             ",
"oooooooooooooooooooooooooooooX$                             ",
"oooooooooooooooooooooooooooooX$                             ",
"oooooooooooooooooooooooooooooX$                             ",
"oooooooooooooooooooooooooooooX$                             "
};
