/* XPM */
static char *_13a112ca1a44b23852095fd725ccc214NPffqySku4mBAZv[] = {
/* columns rows colors chars-per-pixel */
"60 60 96 2 ",
"   c #E68F1B",
".  c #E58E1A",
"X  c #E68E1A",
"o  c #E58F1A",
"O  c #E58F1B",
"+  c #E68F1A",
"@  c #E79320",
"#  c #EA9929",
"$  c #EF9E31",
"%  c #F2A235",
"&  c #F2A134",
"*  c #ED9B2D",
"=  c #EA9829",
"-  c #E99727",
";  c #E6901C",
":  c #EFA338",
">  c #F2A73D",
",  c #FCB24B",
"<  c #FFB650",
"1  c #FEB550",
"2  c #F8AD46",
"3  c #F0A43A",
"4  c #EDA034",
"5  c #E7911E",
"6  c #EEA237",
"7  c #F2A63C",
"8  c #FBB14B",
"9  c #FFB64F",
"0  c #FEB54F",
"q  c #F7AD45",
"w  c #EFA439",
"e  c #EDA033",
"r  c #F7AD44",
"t  c #EFA339",
"y  c #EA9727",
"u  c #FBB14A",
"i  c #FFB54F",
"p  c #F7AC44",
"a  c #E7911F",
"s  c #EE9C2E",
"d  c #F3A83E",
"f  c #F0A439",
"g  c #F4A73D",
"h  c #E89321",
"j  c #F09F31",
"k  c #FCB34C",
"l  c #F8AD45",
"z  c #FBAF47",
"x  c #E99422",
"c  c #F8AE46",
"v  c #FBB048",
"b  c #E99322",
"n  c #FCB24C",
"m  c #F3A83F",
"M  c #F3A73E",
"N  c #FDB34C",
"B  c #EFA337",
"V  c #F4A83F",
"C  c #EFA237",
"Z  c #FDB34D",
"A  c #F4A940",
"S  c #FDB44E",
"D  c #F5AA41",
"F  c #EEA337",
"G  c #F9AF48",
"H  c #F6AB43",
"J  c #F0A53A",
"K  c #FAAF48",
"L  c #F1A53A",
"P  c #FEB44E",
"I  c #F5AA42",
"U  c #F6AA42",
"Y  c #F1A53B",
"T  c #FAB048",
"R  c #F1A63C",
"E  c #FBB049",
"W  c #FEB54E",
"Q  c #F7AC43",
"!  c #F1A63B",
"~  c #F9AF47",
"^  c #F5A940",
"/  c #FDB44D",
"(  c #F9AE47",
")  c #FEB650",
"_  c #FAB049",
"`  c #F6AB42",
"'  c #EF9D2F",
"]  c #F5A93F",
"[  c #E99321",
"{  c #EA9828",
"}  c #EEA034",
"|  c #E7921F",
" . c #EE9D2F",
".. c #F1A134",
"X. c #EC9B2C",
"o. c white",
/* pixels */
"                                                                                                                        ",
"                                                                                                                        ",
"                                                                                                                        ",
"                                                                                                                        ",
"                                                                                                                        ",
"                                                                                                                        ",
"                                                                                                                        ",
"                  . . . . . . . . . . . . . . . . . . . . . . . . . . . . . . . . . . . . . . . . . . X                 ",
"                o O                                                                                 O o                 ",
"              + . @ # # # # # $ % % % % % % % % % % % % % % % % % % % % % % % % % % % % & * = # # # - ; .               ",
"              X . - : : : : : > , < < < < < < < < < < < < < < < < < < < < < < < < < < 1 2 3 : : : : 4 5 .               ",
"              X . - : : : : 6 6 7 8 < < < < < < < < < < < < < < < < < < < < < < 9 < 0 q w 6 : : : : e 5 .               ",
"              X . - : : : : : 6 6 7 8 < < < < < < < < < < < < < < < < < < < < < < 0 r t 6 : : : : : e 5 .               ",
"              X . - : : : : : : 6 6 7 8 < < < < < < < < < < < < < < < < < < 9 < 0 q t 6 : : : : : : e 5 .               ",
"              X . y : 6 : : : : : 6 6 7 u < < < < < < < < < < < < < < < < i < 0 p t 6 : : : : : : : 4 a .               ",
"              . . s d 6 6 : : : : : 6 6 7 u < < < < < < < < < < < < < < i < 0 p t 6 : : : : : : 6 f g h .               ",
"              . . j k d 6 6 : : : : : 6 6 7 u < < < < < < < < < < < < < < 0 p : 6 : : : : : : 6 t l z x .               ",
"              . . j < k d 6 6 : : : : : 6 6 > k < < < < < < < < < < 9 < 0 c f 6 : : : : : : 6 w q 0 v b .               ",
"              . . j < < k d 6 6 : : : : : 6 6 d n < < < < < < < < i < 0 c 3 6 : : : : : : 6 w l 0 < v b .               ",
"              . . j < < < k m 6 6 : : : : : 6 6 M n < < < < < < i < 0 c f 6 : : : : : : 6 w l 0 < < v b .               ",
"              . . j < < < < N m B 6 : : : : : 6 6 > , < < < < < < 0 c f 6 : : : : : : 6 f l 0 < 9 < v b .               ",
"              . . j < < < < < N V C 6 : : : : : 6 6 > , < < 9 < 0 c f 6 : : : : : : 6 f l 0 < 9 < < v b .               ",
"              . . j < < < < < < Z A : 6 : : : : : 6 6 > , < < 0 c f 6 : : : : : : 6 3 c 0 < 9 < < < v b .               ",
"              . . j < < < < < < < S D : 6 : : : : : 6 6 > , 0 l f 6 : : : : : F 6 3 G 1 < 9 < < < < v b .               ",
"              . . j < < < < < < i < S D : 6 : : : : : 6 6 > H f 6 : : : : : 6 6 J K 1 < < < < < < < v b .               ",
"              . . j < < < < < < < i < S D : 6 : : : : : 6 6 : 6 : : : : : : 6 L K 0 < < < < < < < < v b .               ",
"              . . j < < < < < < < < < < S D : 6 : : : : : 6 6 : : : : : : 6 L K 0 < < < < < < < < < v b .               ",
"              . . j < < < < < < < < < < < P I : 6 : : : : : : : : : : 6 6 L K 1 < < < < < < < < < < v b .               ",
"              . . j < < < < < < < < < < i < P U : 6 : : : : : : : : B 6 Y T < < < < < < < < < < < < v b .               ",
"              . . j < < < < < < < < < < < i < P U : 6 : : : : : : : 6 J T < < < < < < < < < < < < < v b .               ",
"              . . j < < < < < < < < < < < i < 0 p : 6 : : : : : : : 6 Y u < < < < < < < < < < < < < v b .               ",
"              . . j < < < < < < < < < < i < 0 r w 6 : : : : : : : : 6 6 7 u < < < < < < < < < < < < v b .               ",
"              . . j < < < < < < < < < i < 0 p t 6 : : : : : : : : : : 6 6 7 u < < < < < < < < < < < v b .               ",
"              . . j < < < < < < < < i < 0 p t 6 : : : : : 6 6 : : : : : 6 6 7 u < < < < < < < < < < v b .               ",
"              . . j < < < < < < < i < 0 p t 6 : : : : : : 6 6 6 : : : : : 6 6 7 u < < < < < < < < < v b .               ",
"              . . j < < < < < < i < 0 p t 6 : : : : : 6 6 Y A : 6 : : : : : 6 6 R u < < < < < < < < v b .               ",
"              . . j < < < < < < < 0 p : 6 : : : : : 6 6 Y E W H : 6 : : : : : 6 6 R u < < < < < < < v b .               ",
"              . . j < < < < < < S H : 6 : : : : : 6 6 R E < < 0 Q : 6 : : : : : 6 6 ! T 0 < < < < < v b .               ",
"              . . j < < < 9 < S D : 6 : : : : : 6 6 R u < < i < 0 Q : 6 : : : : : 6 6 3 ~ 0 < < < < v b .               ",
"              . . j < < i < S D : 6 : : : : : 6 6 ! u < < < < < < 0 Q : 6 : : : : : 6 6 3 ~ 0 < < < v b .               ",
"              . . j < < < S ^ : 6 : : : : : 6 6 R u < < < < < < i < 0 Q : 6 : : : : : : 6 3 ~ 0 < < v b .               ",
"              . . j < < / ^ : 6 : : : : : 6 6 7 u < < < < < < < < i < 0 p t 6 : : : : : : 6 3 ( 0 < v b .               ",
"              . . j < / ^ : 6 : : : : : : 6 R u < < < < < < < < < < 9 < 0 p : 6 : : : : : : 6 3 ( ) v b .               ",
"              . . j / A : 6 : : : : : : 6 L _ < < < < < < < < < < < < < < W ` : 6 : : : : : : 6 3 ~ v x .               ",
"              . . ' A : 6 : : : : : 6 6 Y T ) < < < < < < < < < < < < < i < P ` : 6 : : : : : : 6 3 ] [ .               ",
"              X . { : 6 : : : : : 6 6 Y _ ) < < < < < < < < < < < < < < < i < P ` : 6 : : : : : : : } | .               ",
"              X . - : : : : : : : 6 Y _ < < < < < < < < < < < < < < < < < < 9 < W ` : 6 : : : : : : e 5 .               ",
"              X . - : : : : : : 6 Y _ ) < < < < < < < < < < < < < < < < < < < < < W ` : 6 : : : : : e 5 .               ",
"              X . - : : : : 6 6 Y _ ) < < < < < < < < < < < < < < < < < < < < < 9 < P ` : 6 : : : : e 5 .               ",
"              X . - : : : : : R u < < < < < < < < < < < < < < < < < < < < < < < < < < 0 Q t : : : : 4 5 .               ",
"              + . @ # # # # #  .% % % % % % % % % % % % % % % % % % % % % % % % % % % % ..X.= # # # - ; .               ",
"                o O                                                                                 O o                 ",
"                  . . . . . . . . . . . . . . . . . . . . . . . . . . . . . . . . . . . . . . . . . . X                 ",
"                                                                                                                        ",
"                                                                                                                        ",
"                                                                                                                        ",
"                                                                                                                        ",
"                                                                                                                        ",
"                                                                                                                        ",
"                                                                                                                        "
};
