/* XPM */
static char *_581526004864711e4d0b316b66d7767UIZb7SwRfEUBHUpN[] = {
/* columns rows colors chars-per-pixel */
"60 60 220 2 ",
"   c #1E1A0E",
".  c #1C170D",
"X  c #1C1B15",
"o  c #1F1E1A",
"O  c #1A1613",
"+  c #221C0E",
"@  c #241E12",
"#  c #291F14",
"$  c #221F1B",
"%  c #281E1F",
"&  c #1B3416",
"*  c #262114",
"=  c #2B2315",
"-  c #25221D",
";  c #2C251A",
":  c #2E281C",
">  c #302616",
",  c #312917",
"<  c #302719",
"1  c #332B19",
"2  c #392E1C",
"3  c #3C311D",
"4  c #373B16",
"5  c #292520",
"6  c #2D2A23",
"7  c #2A2824",
"8  c #332921",
"9  c #3C3324",
"0  c #3D372A",
"q  c #41351E",
"w  c #48381F",
"e  c #423521",
"r  c #453A23",
"t  c #4A3E26",
"y  c #4B3E28",
"u  c #46392A",
"i  c #533D29",
"p  c #004502",
"a  c #065A06",
"s  c #19560E",
"d  c #194F11",
"f  c #1A5511",
"g  c #1E5C11",
"h  c #254614",
"j  c #34491C",
"k  c #225012",
"l  c #0A6608",
"z  c #146F0F",
"x  c #176611",
"c  c #177111",
"v  c #27671B",
"b  c #27771A",
"n  c #385623",
"m  c #2F7020",
"M  c #327B22",
"N  c #4D4127",
"B  c #4D4129",
"V  c #444025",
"C  c #53452B",
"Z  c #59442D",
"A  c #56482D",
"S  c #5A4B2E",
"D  c #504227",
"F  c #455824",
"G  c #534530",
"H  c #554B32",
"J  c #5C4D31",
"K  c #5B4834",
"L  c #5F5032",
"P  c #5A5437",
"I  c #605C2D",
"U  c #604E34",
"Y  c #6A4E35",
"T  c #635234",
"R  c #6A5536",
"E  c #665D35",
"W  c #6B5A36",
"Q  c #665539",
"!  c #6B553A",
"~  c #6D5B3A",
"^  c #725E3C",
"/  c #70563C",
"(  c #5F692A",
")  c #476F31",
"_  c #5A6934",
"`  c #4E632B",
"'  c #677B2E",
"]  c #6B683D",
"[  c #74613D",
"{  c #7A643E",
"}  c #726B3F",
"|  c #6C7934",
" . c #747937",
".. c #6D5C41",
"X. c #735D44",
"o. c #6A6640",
"O. c #756242",
"+. c #7A6542",
"@. c #746C42",
"#. c #7D6A45",
"$. c #736449",
"%. c #7D644A",
"&. c #77684A",
"*. c #7D6B4A",
"=. c #7B7844",
"-. c #81674C",
";. c #826D4C",
":. c #836C44",
">. c #84714D",
",. c #89734D",
"<. c #877C4B",
"1. c #866D52",
"2. c #867251",
"3. c #8A7553",
"4. c #8B7A56",
"5. c #8D7A59",
"6. c #8A7458",
"7. c #927C5C",
"8. c #91775A",
"9. c #8F7E60",
"0. c #957C63",
"q. c #987F64",
"w. c #9A7F68",
"e. c #907560",
"r. c #A07E65",
"t. c #348828",
"y. c #39952A",
"u. c #498F2D",
"i. c #6C8132",
"p. c #758539",
"a. c #769635",
"s. c #73AB38",
"d. c #528E43",
"f. c #7F9153",
"g. c #73914A",
"h. c #74BC58",
"j. c #7ED15F",
"k. c #83A838",
"l. c #88BA3B",
"z. c #8DCD37",
"x. c #8EC43B",
"c. c #8ECC39",
"v. c #88C336",
"b. c #90CC3A",
"n. c #8ED236",
"m. c #8FD038",
"M. c #91D33B",
"N. c #94D93B",
"B. c #91D337",
"V. c #88874C",
"C. c #88974C",
"Z. c #8F8254",
"A. c #918D56",
"S. c #94825C",
"D. c #9B8D5E",
"F. c #948B5B",
"G. c #869F5E",
"H. c #9B935E",
"J. c #9D9D5A",
"K. c #949656",
"L. c #8FAE46",
"P. c #93AD4A",
"I. c #8CB942",
"U. c #8FB545",
"Y. c #91BC43",
"T. c #92B24A",
"R. c #9EBF4C",
"E. c #9BA757",
"W. c #9AA955",
"Q. c #A1BA4D",
"!. c #A1A958",
"~. c #A3B45A",
"^. c #A4B556",
"/. c #968362",
"(. c #9A8666",
"). c #9B8A65",
"_. c #9C846A",
"`. c #9E8969",
"'. c #978F61",
"]. c #9D9362",
"[. c #9D9A62",
"{. c #A28B6B",
"}. c #A1856F",
"|. c #A19568",
" X c #98AA62",
".X c #8FBB6C",
"XX c #A6B267",
"oX c #95C745",
"OX c #99D542",
"+X c #8ECA44",
"@X c #A4C64D",
"#X c #A5D647",
"$X c #A7DC46",
"%X c #A8DA47",
"&X c #A8DC46",
"*X c #A6D549",
"=X c #A8D749",
"-X c #A8D74A",
";X c #A7D949",
":X c #A7D949",
">X c #A8D949",
",X c #A9D949",
"<X c #A9DA4A",
"1X c #A8D949",
"2X c #B0DD4C",
"3X c #A4C254",
"4X c #A6C951",
"5X c #AAC65C",
"6X c #ADD856",
"7X c #B2D756",
"8X c #B9C95C",
"9X c #A9E147",
"0X c #ABE14A",
"qX c #B1E54C",
"wX c #AFE750",
"eX c #B7E45B",
"rX c #8DC464",
"tX c #91C062",
"yX c #97D66D",
"uX c #CBF498",
/* pixels */
">X>X>X>X>X>X>X>X>X>X>X>X>X>X>X>X>X>X>X>X>X>X>X>X>X>X-X>X$X<XOXc.b.z.z.z.c.c.c.c.c.c.c.c.c.c.c.c.c.c.c.c.c.c.c.c.c.z.c.c.",
">X>X>X>X>X>X>X>X>X>X>X>X>X>X>X>X<X>X>X>X>X>X>X>X>X&X&X7X!.].].I @.E.Y.m.z.c.c.b.c.b.c.c.c.c.c.c.c.c.c.c.c.c.c.c.c.c.c.c.",
">X>X>X>X>X>X>X>X>X>X>X>X>X>X>X>X>X>X>X>X>X>X=X%X>X^.V.] *.%...A T -.1.H.x.b.b.c.z.c.c.c.c.c.c.c.c.c.c.c.c.c.c.c.c.c.c.c.",
">X>X>X>X>X>X>X>X>X>X>X>X>X>X>X>X<X>X;X>X%X=X&X3XD.^ / S / ^ D t S S W *.Z.b.M.z.c.c.c.c.c.c.c.c.c.c.c.c.c.c.c.c.c.c.c.c.",
">X>X>X>X>X>X>X>X>X>X>X>X>X>X>X>X>X>X=X;X-X>X%XZ./ ~ ^ H ~ ~ N N J A O.T ! ] l.B.c.c.c.c.c.c.c.c.c.c.c.c.c.c.c.c.c.c.b.c.",
">X>X>X>X>X>X>X>X>X>X>X>X>X>X>X>X>X>X>X#X&X0X .R [ ^ ~ r C A y N B N J C N t @.oXc.z.c.z.c.c.c.c.c.c.c.c.c.c.c.c.c.c.c.c.",
">X>X>X>X>X>X>X>X>X>X>X>X>X>X>X>X<X>X>X$X5XA.C T [ ~ A N t B N N t N N r S O.w.<.v.m.z.c.c.c.c.c.c.c.c.c.c.c.c.c.c.c.c.c.",
">X>X>X>X>X>X>X>X>X>X>X>X>X>X>X>X>X-X9X^.q.O.Z i { T y B D B y B N N J N C C O.-.~ v.M.c.c.c.c.c.c.c.c.c.c.c.c.c.c.c.c.z.",
">X>X>X>X>X>X>X>X>X;X;X>X>X>X>X>X-X&X5X1.[ { Q t W J t B T N L T J J S r y t T C r ] x.c.z.c.c.c.c.c.c.b.c.c.c.c.c.c.c.c.",
">X>X>X>X>X>X>X>X>X>X>X>X>X>X>X>X,X*X'.^ [ [ [ N B t t t Q S S W S W ~ C A D r A &.e.<.x.c.c.c.c.c.c.c.c.c.c.c.c.c.c.c.c.",
">X>X>X>X>X>X>X>X>X>X>X%X>X>X>X>X&X^.e.[ [ W T Z t A T Q L W t *.O.R [ 3.R e $.{./.4.K I m.c.c.c.c.c.c.c.c.c.c.c.c.c.c.c.",
">X>X>X>X>X>X>X>X>X>X>X>X;X>X;X;X>X].7.+.^ { C t y J O.O.#.2.3 ~ {.S.`.&.r C +.5.^ R W J U.m.c.c.c.c.c.c.c.c.c.c.c.c.c.c.",
">X>X>X>X>X>X>X>X>X>X;X>X>X>X;X;X&XH.^ O.{ W t t U T J W O.J = @ t $...q D t R ^ [ ~ S u i.N.x.c.c.c.c.c.c.c.c.b.c.c.c.c.",
">X>X>X>X>X>X>X>X>X>X>X>X>X>X;X9X6X=.~ O.[ T t N J +.J t 3 + = 3 > = 2 B O.A S { W S t t ( b.b.c.c.c.c.c.c.c.c.c.c.c.c.c.",
">X>X>X>X>X>X>X>X;X<X>X>X-X<X0X^.S.W C ^ T C N D *.+.+.J @ # = 1 3 8 ; ..,.D y A S B r D ~ V.b.b.c.c.c.c.c.c.c.c.c.c.b.c.",
">X>X>X>X>X>X>X>X>X<X>X>X&X*X=.%.R [ Z B S N r &.3.X.^ C # # # 1 : 5 O $.4.Z y t y t X.5./.%.( M.c.c.c.c.c.c.c.c.c.c.c.c.",
">X>X>X>X>X>X>X>X;X;X;X$X<XK.D C [ A B N r D S L O.^ Q 3 + + @ > - - o V 7.^ t N t 2.{.{.[ ^ ^ l.c.z.c.c.c.c.b.c.c.c.c.c.",
">X>X>X>X>X>X>X>X>X=X&XR.4.;.#.T A A r ~ 2.-.8.T C T r * + + @ * - - - - ..~ S r ~ 7.2.*.W T ! a.N.b.c.c.c.c.c.b.c.c.c.c.",
">X>X>X>X>X>X>X>X>X>X0XK.X.^ [ [ y r P 7.7.:.*.[ B 3 @ = , * + * - - - o 9 Q N t T +.+.~ ~ W t  .M.c.c.c.m.c.c.z.c.c.c.c.",
">X>X>X>X>X>X>X;X-X&X@X^ [ { T [ A C ;.^ [ ^ ^ ^ A * - ; 1 , * - - - - 5 X q S A D ~ +.J ^ Q t w v.c.z.c.c.c.c.c.c.c.c.c.",
">X>X>X>X;X;X<X;X<X$X4X6.{ [ [ T C Q 2.[ ^ O.[ S : ; * 1 1 1 = - 5 - - - ; +.^ T C B A t N r t Z a.N.b.b.c.c.c.c.c.c.c.c.",
">X>X>X>X<X<X=X<X=XwXXX-.+.Y [ t t H ^ ~ T T R :   * # 1 2 > * - - - 5 O J :.[ [ S r K &.$.&.;.X.p.N.c.b.c.c.c.c.c.c.c.c.",
">X>X>X<X<X;X-X<XOXeXuX2.6.F.C y N T A O.N t 2 * + @ # , 1 @ - - - - 5 X u #.[ S S B R ,.>.;.;.! ' N.c.c.c.c.c.c.b.c.c.c.",
">X>X>X<X-X<X<X-XwXI.d.rXu.G.i r S :.A T C q + @ @ @ , , * $ - - - - - o e { R ^ D A y J ~ { S e ' N.x.c.z.c.c.c.c.c.c.c.",
">X>X>X>X>X<X;X<XeXu.a l x x t ..*.T D D q # * * + + * + - - - - - - 5 - u #.^ R N R U B C S C u i.N.b.c.c.c.c.c.c.c.c.c.",
">X>X>X>X>X>X=XeXg.p ` F n n U :.L S B t # # 1 1 * @ * * : - - - - - - - - B L r T ^ R W N t i !  .c.c.z.c.z.c.c.c.c.c.c.",
">X>X>X>X>X>X;X2Xs._ 8.;.Y u ;.X.T S i 2 * = 1 : > + @ > 1 - - - - - - - - o * ; $.*.[ [ R B D ^ ^ l.N.b.c.c.c.c.c.c.c.c.",
">X>X=X>X>X>X-X$X7XD.+.+.J r U :.L t t > * + 1 1 ;   = , = - - - - - - - - - - * 1.+.~ T C r A C i ( +Xz.z.c.c.c.c.c.c.c.",
">X>X>X>X>X>X>X9X^.e.;.{ T y r A y N t @ + + 1 1 * + * + * - - - - - - - - - - - *.S.W J S ~ 4.O.T ~ O.k.b.c.c.c.c.c.c.c.",
">X;X;X;X-X>X-X&X^.X.[ ~ T r A Q T B t * + ; 1 1 + = ; * - - - - - - - - - - - o 0 ..A t #.{.`.;.^ { R +.x.b.z.b.b.c.c.b.",
"b.c.c.b.c.c.c.N.C./ O.J r B 9.5.,.~ 9 @ * * *   = , , 1 * - - - - - - - - - - - $ X 1 U 5.3.^ +.C S #.Z i.0X#X;X-X;X;X>X",
"c.b.c.c.c.c.x.N.C.Z A B G /.,.[ R ^ A   + @ + + @ > , 1 = - - - $ - - - - - - - - - @ C 8.{ ^ { R H U i p.qX=X>X>X>X>X<X",
"c.c.c.c.c.c.c.x.*.+.S r O.;.^ [ L T C * = > , * = , 1 1 * - - - - - - - - - - - - - % - S ^ R r C.yX_ 3 o.7X&X>X,X>X>X>X",
"c.z.c.c.c.z.c.[.%.^ +.S T [ ^ { W L * @ 1 1 1 * @ + , 2 ; - - - - - - - - - - - - - 5 - t r A f.h.l h.M l g.<X-X>X>X>X>X",
"c.c.c.c.z.z.oX6.[ [ O.C C [ ~ J T N > @ 1 , 1 >   = 1 = @ - - - - - - - - - - - - - X P ,.Z .Xj.t.l b c l ) 8X0X=X&X>X>X",
"c.c.c.c.z.z.E.6.[ ^ ~ A r ~ { J T B 1 > 1 1 1 : @ @ @   - - - - - - - - - - - - - - X O.<.Y tXt.a x d z z v s.+X<X>X>X>X",
"M.c.c.z.z.c.<.^ ,.~ T H B C S A N A 3 + = 1 1 ; + @   * : - - - - - - 5 - - - - $ 5 5 *.*. XrXt.g k h x f g a s.wX-X>X>X",
"c.c.c.c.M.k.^ { R J B t t t e r D q   * 1 , 1 * @ @ > : 1 * - - - - - - - - - - 5 5 7 H O.u.y.d h j V j h d m ~.$X-X>X>X",
"c.c.c.c.M.l./ Q T C J t t S ..Q D , + @ @ , = + @ @ + , 1 = - - - - - - - - - - o 7 6 9 E b l h o.8.%.:.W f n 5.<X-X<X>X",
"c.c.c.c.M.k.K B C B t A 5.S.O.O.S = + @ @ @ + + + * 1 * > , - - - - - - - - % - 5 5 5 ; % x s ~ 8.^ ^ O.+.` 4 $.6X-X-X>X",
"c.c.c.c.x.A.*.^ Q A t C S.8.W T C + @ @ @ # , , * @ @ = 2 < - - - - - - - - - - 5 - - - - d n }.+.^ [ ^ { ! t K E.9X=X>X",
"c.c.c.x.H.0.+.[ { { T N t ^ [ [ e @ @ @ @ , 2 1 1 @ @ > ; * @ ; - - - - - - - - - - - - % & } 8.^ [ [ ^ R W r X.!.&X-X>X",
"c.c.+XS._.5.W [ ^ R { S r T ^ ~ t @ @ @ @ > ; 1 1 * @ @ + + > 1 ; - - o % o o o o o - - - : R [ [ ^ [ [ D N N 4.5X%X-X>X",
"c.n.J.-.5.3.+.[ O.S T ^ H N ^ L R + @ + * + # 1 1 + +     ; * 1 - o : 0 0 9 9 9 0 9 - - o : C S Q A [ L t r $.{.-X%X>X>X",
"z.+XA.~ *.[ O.[ ~ C T L S r R J R 0 @ + * @ < ; ; + . ; 2 3 1 Z S A J T T Q T T T R S C 8 9 C C B B H q J *._.].-X,X>X>X",
"n.U.0.#.W [ L ~ T C Q L r N C N y C X     . ; : > C C S Q T R T T T Q J L T T T T T T ~ ~ Q Q R L S Q $.).{.).-X%X-X>X>X",
"c.x.].q.S N C N C B C B C S J A A A t r r q H T T T T T U T U T T ~ [ [ [ [ [ [ ^ [ [ O.[ ] ^ [ +.3.).`.).w.!.0X>X>X>X>X",
"b.m.P._.<.T S S H L C W [ ~ [ ~ R W R T W ^ ~ T J T J U U U T T ~ [ [ [ [ [ X.[ [ [ [ [ ~ O.2.5._.`.).).(./.*X&X-X>X>X>X",
"c.c.m. X}._.4.:.>.>.>.4.4.#.;.*.;.;.#.*.[ [ { ^ T J T T U U S T [ [ [ ] ^ [ [ [ [ [ ^ ~ ,.).`.`.).(.(.)./.W.0X<X>X>X>X>X",
"c.c.c.M.P./.}.}._.w._._.}._.H.H.[._._.`./.[ ^ [ [ T J T J T Q ~ [ [ [ [ ^ ^ [ [ [ [ 4./.).(.(.(.(.(.(._.J.&X<X>X>X>X>X>X",
"c.b.c.c.m.x.P.T.T.T.T.P.L.T.b.z.z.I.A.(.).5.O.[ [ [ ] O.~ ^ [ [ [ [ [ [ [ [ [ [ ^ 5.`.(.5.(.).).).)._./.@X<X-X>X>X>X>X>X",
"c.b.c.c.z.z.m.n.n.m.n.m.n.n.z.z.c.m.x.{._.).`.4.*.O.+.[ [ O.[ [ [ [ [ [ O.[ [ ^ *.`.)./.(.(._.w._.(.J.@X0X-X>X>X>X>X>X>X",
"c.c.c.c.c.c.c.z.c.c.c.+Xc.c.c.c.c.c.c.+XH.w.(._.`./.*.~ [ [ [ [ [ [ ^ ] [ [ ] ^ 5.`././._.].!.!.~.-X&X&X;X>X<X>X>X>X>X>X",
"c.c.c.c.c.c.c.c.c.c.c.c.c.c.c.c.c.c.z.n.c.Y.W.K.].}.`.0.+.~ ^ [ [ [ ^ [ [ [ ^ +.q.(./._._.4X<X9X<X<X<X=X;X>X;X<X>X>X>X>X",
"c.c.c.c.c.c.c.c.c.c.c.c.c.c.c.c.c.c.c.c.c.m.c.n.v.P.].].'.5.+.O.^ [ [ [ [ [ ^ 4.(.).`.).(.4X<X>X*X;X<X;X<X<X>X>X>X>X>X>X",
"c.c.c.b.c.c.c.c.c.c.c.c.c.c.z.c.c.c.c.c.c.c.c.c.c.m.c.v.OXD._.S.>.[ [ [ [ ;./._.`.(.).(.].;X>X>X<X<X;X=X<X<X;X<X>X>X>X>X",
"c.c.c.c.c.c.c.c.c.c.c.c.c.c.b.c.c.c.c.c.c.c.c.c.c.c.c.c.z.Y._._.`./.).)./.`._.(.`.'.(.0.Q.&X>X>X;X;X;X<X>X>X>X>X>X>X>X>X",
"c.c.c.c.c.c.c.c.c.c.c.c.c.c.z.c.c.c.c.c.c.c.c.c.c.c.c.c.c.c.4X[./._._._._.(.(.(.(.w.).Q.0X-X>X>X;X<X;X;X>X>X>X>X>X>X>X>X",
"c.c.c.c.c.c.c.c.c.c.c.c.c.c.c.c.c.c.c.c.c.c.c.c.c.c.c.c.c.z.OX&X3XR.Q.[.H.].`.|.|.~.=X&X-X,X>X-X>X>X<X=X>X>X>X>X>X>X>X>X",
"c.c.c.c.c.c.c.c.c.c.c.c.c.c.c.c.c.c.c.c.c.c.c.c.c.c.c.c.c.c.;X<X&X0X0X&X&X$X6X6X%X&X%X-X>X>X>X%X>X;X<X;X>X>X>X>X>X>X>X>X"
};
