/* XPM */
static char *d2d86db79ce14e01b317617a01db33590MovQZq0hEX7wSEt[] = {
/* columns rows colors chars-per-pixel */
"60 60 193 2 ",
"   c #3F0416",
".  c #440E1B",
"X  c #441118",
"o  c #4B181D",
"O  c #521F1E",
"+  c #4B231C",
"@  c #5D3128",
"#  c #5A3824",
"$  c #632B25",
"%  c #6E2F2B",
"&  c #612725",
"*  c #693428",
"=  c #7A342E",
"-  c #733A2E",
";  c #7A3C2F",
":  c #77342E",
">  c #7B3C31",
",  c #793532",
"<  c #5B4023",
"1  c #7B432F",
"2  c #64552A",
"3  c #744130",
"4  c #7D4331",
"5  c #7C4A33",
"6  c #78672F",
"7  c #6D7A2A",
"8  c #746337",
"9  c #814434",
"0  c #814C34",
"q  c #825E35",
"w  c #805532",
"e  c #816536",
"r  c #85663A",
"t  c #897B3B",
"y  c #F47C1F",
"u  c #DC7926",
"i  c #DE7E2A",
"p  c #DC7624",
"a  c #F57E24",
"s  c #F57F28",
"d  c #896640",
"f  c #8D6E40",
"g  c #916E44",
"h  c #8F7042",
"j  c #8E7B40",
"k  c #CC7446",
"l  c #78842E",
"z  c #76972E",
"x  c #7D9536",
"c  c #878A39",
"v  c #878A35",
"b  c #95893F",
"n  c #899C37",
"m  c #969B3F",
"M  c #8BA23D",
"N  c #86A537",
"B  c #8CB739",
"V  c #86B535",
"C  c #B8B83E",
"Z  c #BAB233",
"A  c #DE942E",
"S  c #DE9A2F",
"D  c #DE9B33",
"F  c #EE8425",
"G  c #EF862A",
"H  c #EB882B",
"J  c #F18426",
"K  c #F58927",
"L  c #F18529",
"P  c #F88228",
"I  c #F1882A",
"U  c #FA8525",
"Y  c #E1932C",
"T  c #E9912F",
"R  c #F4902E",
"E  c #EE8932",
"W  c #F48E34",
"Q  c #F48B3D",
"!  c #F78737",
"~  c #EB9230",
"^  c #E3943E",
"/  c #E39E3B",
"(  c #EE933A",
")  c #F39134",
"_  c #F5953D",
"`  c #F9953D",
"'  c #F9993A",
"]  c #D3A933",
"[  c #D2AC3C",
"{  c #C5B73C",
"}  c #C3B93C",
"|  c #CBB53B",
" . c #E0A138",
".. c #E9AB3C",
"X. c #F0A83A",
"o. c #E3B03D",
"O. c #85CE36",
"+. c #8BCB37",
"@. c #8DC33A",
"#. c #87CB38",
"$. c #8ECC39",
"%. c #90C537",
"&. c #9CC73E",
"*. c #91CC3A",
"=. c #9AC93F",
"-. c #86D237",
";. c #86D138",
":. c #8DD23A",
">. c #8ED537",
",. c #94D23C",
"<. c #92DB3C",
"1. c #A9C43F",
"2. c #9DB144",
"3. c #A0B846",
"4. c #B9BD43",
"5. c #B4BE41",
"6. c #DC8D46",
"7. c #DC8B49",
"8. c #DA8755",
"9. c #E08743",
"0. c #E2874E",
"q. c #FB9340",
"w. c #FC9E4E",
"e. c #F69742",
"r. c #FC8E55",
"t. c #F78D53",
"y. c #EF9C56",
"u. c #F59354",
"i. c #F99255",
"p. c #FB9C57",
"a. c #F49659",
"s. c #FD9059",
"d. c #FA995B",
"f. c #F5985B",
"g. c #CCA645",
"h. c #D4A34C",
"j. c #DBA44E",
"k. c #D3AC4F",
"l. c #C5BD41",
"z. c #C3B849",
"x. c #D4B34E",
"c. c #DEAB58",
"v. c #C6BE51",
"b. c #C7BB52",
"n. c #D6B251",
"m. c #DEB05B",
"M. c #E3AC4A",
"N. c #EBA74D",
"B. c #F6A24C",
"V. c #F9A34D",
"C. c #FEA84F",
"Z. c #E1B24A",
"A. c #E2A552",
"S. c #E3AB52",
"D. c #E7AB57",
"F. c #F5A352",
"G. c #FBA352",
"H. c #FCA953",
"J. c #E5B452",
"K. c #FF9B60",
"L. c #F6A160",
"P. c #93CC43",
"I. c #9EC840",
"U. c #9AD644",
"Y. c #A4CB4A",
"T. c #B8CE47",
"R. c #B8CC4D",
"E. c #B6C848",
"W. c #A3D646",
"Q. c #A3DC47",
"!. c #A8DA47",
"~. c #A7D748",
"^. c #A9D749",
"/. c #A5DB49",
"(. c #AADA4A",
"). c #AADB4B",
"_. c #A8D949",
"`. c #ACD94B",
"'. c #A8D949",
"]. c #B4D24E",
"[. c #B7D14A",
"{. c #BEC953",
"}. c #9EE44B",
"|. c #A1E247",
" X c #A1E14C",
".X c #A3E04B",
"XX c #ABE24A",
"oX c #ABF048",
"OX c #ADE251",
"+X c #C0C247",
"@X c #C3C84B",
"#X c #CCC455",
"$X c #C5C857",
/* pixels */
"_._._._._._._._._._._._._._._._._._._._._._._._._._._._._._.,.+.$.$.$.+.*.$.$.$.$.$.$.$.$.$.$.$.$.$.$.$.$.$.$.$.*.$.$.$.",
"_._._._._._._._._._._._._._._._._._._._._._._._._._._._._._.,.+.$.$.$.*.$.$.$.$.$.$.$.$.$.$.$.$.$.$.$.$.$.$.$.$.$.$.$.$.",
"_._._._._._._._._._._._./._._._._._._._._._._._._._._._._.`.,.+.$.$.$.$.$.$.$.$.$.$.$.$.$.$.$.$.$.$.$.$.$.$.$.$.$.$.$.$.",
"_._._._._._._._._._._._.~._._._._._._._._._._._._._._._._.`.,.+.$.$.$.$.$.$.$.$.$.$.$.$.$.$.$.$.*.$.$.$.$.$.$.$.$.$.$.$.",
"_._._._._._._._._._._._._._._._._._._._._._._._._._._._._._.,.+.$.$.$.$.$.$.$.$.$.$.$.$.$.$.$.$.$.$.*.+.$.$.$.$.$.$.$.$.",
"_._._._._._._._.~./._._._._._._._._._._._._.!._._._._._._.`.,.+.$.$.$.$.$.$.$.$.$.$.$.$.$.$.$.$.$.$.$.*.$.$.$.$.$.$.$.$.",
"_._._._._._._._._./._._._._._._._._._._._._._._._._._._._.`.U.+.$.$.$.$.$.$.$.$.$.$.$.*.$.$.$.$.$.$.$.$.$.$.$.$.$.$.$.$.",
"_._._._._._._._._._._._._._._._._._._._._._._._._._._._._.`.*.+.$.$.$.$.$.$.$.$.$.$.*.+.$.$.$.$.$.$.$.$.$.$.$.$.$.$.$.$.",
"_._._._._._._._._._._._._._._._._._._._._._._._._._._._._._.,.+.$.$.$.$.$.$.$.*.$.$.$.$.$.$.$.$.$.$.$.$.$.$.$.$.$.$.$.$.",
"_._._._._._._._._._._._._._._._._._._._._._._._._._._._._.).,.+.$.$.$.$.$.$.$.$.$.*.$.$.$.$.$.$.$.$.$.$.$.$.$.$.$.$.$.$.",
"_._._._._._._._._._._._._._._._._.!._._._._._._._._._._._.`.,.+.$.$.$.$.$.$.$.$.$.$.$.$.$.$.+.*.$.$.$.$.$.$.$.$.$.$.$.$.",
"_._._._._._._._._._._._._._._._._._._._._._._._._._._._._.`.,.+.$.$.$.$.$.$.$.$.$.$.$.$.$.$.$.$.$.$.$.$.$.$.$.$.*.$.$.$.",
"_._._._._._._._._._._._._._._._.!._._._._._._._._._._._._._.,.$.$.$.$.$.$.$.$.$.$.$.$.$.$.$.$.$.$.$.$.$.*.$.$.$.+.*.$.$.",
"_._._._._._._._._._._._._._._._.)._._._._._._._._._._._._.`.,.+.$.$.+.*.$.$.$.$.$.$.+.$.$.$.$.$.$.$.$.$.$.$.$.$.$.$.$.$.",
"_._._._._._._._._._._._._._._._._._././._./.Q._.Q._._._._._.,.+.$.$.$.$.$.$.$.$.$.$.*.$.$.$.$.$.$.$.$.$.$.$.$.$.$.$.$.$.",
"_._._._._._._._._._._._./._._._./. X).T.T.].R.].].]._._._._.U.+.$.$.*.$.$.$.$.$.$.$.$.$.$.$.$.$.$.$.$.$.$.$.$.$.$.$.$.$.",
"_._._._._._._._._._._.).!.`./._.| ] / U Q K.s.s.s.S./.)._._.,.+.$.$.$.$.$.$.$.$.$.$.$.$.$.$.$.$.$.$.$.$.$.$.$.$.$.$.$.$.",
"_._._._._._._._._._._.).!./.+XT J a a F e.8.0.i.i.A.Q._._.).,.$.$.$.$.$.$.$.$.$.$.$.+.$.$.$.*.$.$.$.$.$.$.$.$.$.$.$.$.$.",
"_._._._._._._._._._._._.`.[ P J F G F G q.@ $ p.r.$XQ._._._.,.+.$.*.*.+.$.$.$.$.$.$.*.$.$.$.$.$.$.$.$.$.$.$.$.$.$.$.$.$.",
"_._._._._._._._._._._./.[ s J G G L G H 0.k i s.n.!._._._.`.,.+.$.$.$.$.$.$.$.$.$.$.$.$.$.$.$.$.$.$.$.$.$.$.$.$.$.$.$.$.",
"_._._._._._._._._.`./.4.U G J G J G E F Q K.p.x.Q._._._._._.,.+.$.$.$.$.$.$.$.$.$.$.$.$.$.$.$.$.$.$.$.$.$.$.$.$.$.$.$.$.",
"_._._._._._._._._.Q.`.T J G F G G F G J W n.T.|._._._._._.`.,.$.$.$.$.$.$.$.$.$.$.*.$.$.$.$.*.+.$.$.$.*.$.$.$.$.$.$.$.$.",
"_._._._._._._._.`.|.{ P G J J G J F J J I ' X.XX_._._._._.`.,.+.$.$.$.$.$.$.$.$.$.$.$.$.$.$.$.$.$.$.$.$.*.$.$.$.$.$.$.$.",
"_._._._._._._._.`.U.S P G J J J J J J F ~ o...@X/._._._._.`.,.+.$.$.$.$.$.$.$.$.$.$.$.$.$.$.$.$.$.$.$.$.$.$.$.$.$.$.$.$.",
"_._._._._._./._._./.D L L G J J J J J a [  X/.~._._._.`.`.`.*.*.*.*.*.+.*.+.$.$.$.$.$.$.$.*.$.+.$.$.$.$.$.$.$.$.*.$.$.$.",
"_._._._._._._._._.^.Y s G G J J J J F a ] }./.|. X X XQ.Q. XP.O.O.:.O.*.*.*.$.$.*.$.$.$.$.$.$.$.$.$.*.+.$.$.$.$.$.$.$.$.",
"_._._._._._._._.).)./ W ( ) ) ) W W ) W ] l.{ { { { } { { } Z C C 4.5.-.-.+.*.$.$.$.$.$.$.*.*.*.*.$.$.$.$.$.$.$.$.$.$.$.",
"_._._._._._._._.).`.J.G.y.G.G.F.F.V.V.G.` a s s s ! s a a a U e.G.p.V.N.l.+.+.*.$.$.*.+.-.+.;.O.;.;.+.:.$.$.$.$.$.$.$.$.",
"_._._._._._._._._./.J.w.B.V.w.B.B.B.B.V._ F F E ~ G G G J G G _ V.V.V.V.G.S.1.O.$.$.:.+.I.b.j.h.j.j.z.=.;.:.+.*.$.#.$.$.",
"_.~.`._._./.~.~.!.Q.J.V.B.B.B.B.V.B.V.G._ J I E G F J J J J G _ G.B.B.B.F.G.V.1.+.:.P.j.i.r.r.r.s.r.d.u.k.I.:.$.$.:.*.$.",
"$.$.$.:.$.$.$.$.*.-.4.V.B.B.V.V.V.V.B.V._ G E G J J J J G J G ' F.B.B.F.F.w.V.G.`.b.u.i.i.u.u.u.a.a.f.u.r.a.v./._.`._._.",
"$.$.$.$.$.$.$.$.*.+.=.N.B.B.B.V.B.V.B.V._ F I J J J G J J J F _ V.w.F.F.B.B.G.B.B.r.i.u.u.u.u.t.a.a.u.u.u.t.s.E.Q._._._.",
"$.$.$.$.$.$.$.$.$.$.O.4.G.V.V.V.V.V.w.V._ J J J J J J G J G J _ V.F.H.B.B.B.B.V.w.m.u.i.u.u.i.u.u.u.u.u.r.r.+X_._._._._.",
"$.$.$.$.$.$.$.$.$.+.,.:.g.p.B.B.V.V.B.F._ F J J J G J J J J J e.F.F.B.B.V.B.B.V.V.#X{.y.r.r.t.u.t.t.r.r.A.R.Q.!._._._._.",
"$.$.$.$.$.$.$.$.*.>.M e 3 g.C.B.V.V.B.G.) J J J F F G G F F F e.F.w.B.B.B.B.B.B.w.M.|.`.#Xx.D.f.d.c.x.$X_.Q._._._._._._.",
"$.$.$.$.$.$.$.$.>.c = = ; V +XN.G.G.w.G._ J K K K K P L U P F ` G.C.C.C.C.C.C.C.G.J.)._.Q./._.].`._.}./._._._._._._._._.",
"$.$.$.$.$.$.+.,.N = 4 4 ; B -.*.E.c.M.J.^ p i u u H A Y A A Y ^ 7.6.6.6.6.6.6.6.7.h./.~._._._._._./.!._.~.`././._._._._.",
"$.$.$.$.$.$.$.*.w > 1 > ; B >.*.+.+.#.,.v = 5 4 , 8 P.$.$.#.|.t % - - - % - - - % r OX~._._._.!._._._._._.!.!._._._._._.",
"$.$.$.$.$.$.$.@.4 ; > 4 1 B *.*.*.*.%.<.n = 1 1 = 6 *.*.$.#.oXb : 5 4 4 g 0 > 4 , r XX`._._._._._._._._._._._._._._._._.",
"$.$.$.$.$.$.:.@.# O 8 P.@.*.+.*.*.+.<.V 6 > 1 1 = v *.*.$.$.M e > 4 > 4 ).r = 5 > h OX/._._._._._._._._._._._._._._._._.",
"$.$.$.$.$.$.$.@.+ X N :.$.$.$.$.+.,.N + & 5 ; : r *.$.%.,.2 X % 4 , = m XX3.9 > > d OX~._._._./._.!._._._._._._._._._._.",
"$.$.$.$.$.$.:.@.# c :.$.+.$.$.$.#.<.<   & 9 5 t *.+.+.>.x o + - 0 r 2.XX_.).Y.t 0 h OX_._._.!._._._._._._._._._._._._._.",
"$.$.$.$.$.+.$.$.:.,.$.+.$.$.$.$.$.,.x 7 l M *.:.:.+.+.>.V z M B Y.XXXX~.)._.!.XX_.!._._._._._._._._._._._._._._._._._._.",
"$.$.$.*.$.$.$.$.+.+.$.$.$.$.:.$.$.*.,.<.,.>.$.$.$.*.*.+.,.>.Q.)._.`.~._._._.`._._.`._._._._._._._._._._._._._._._._._._.",
"$.$.$.$.$.$.$.$.$.$.$.$.$.$.$.$.$.$.$.+.+.$.*.$.$.$.$.$.$.+.U.`.~./.!.`._.!._._./._._._._._._._._._._._._._._._._.~._._.",
"$.$.$.$.$.$.$.$.$.$.*.$.$.$.$.$.$.$.$.$.$.$.$.$.$.$.*.$.$.+.W._._._._.~._._.!._._._._._._._._._._._._._._._._._._./._._.",
"$.*.$.$.$.:.$.$.$.$.$.$.$.$.$.$.$.$.$.$.$.$.$.$.$.$.*.$.$.$.U.`.~./._._._._._._._.!._._.~.`._._._._._._._._._._._._._._.",
"$.+.$.$.$.$.$.$.$.$.$.$.$.$.$.$.$.$.$.$.*.$.$.*.$.$.$.$.*.#.W.`.!./._._.)._._._._._._._._.!.!./._._._._._._._._._._._._.",
"$.$.$.$.$.$.$.$.$.$.$.$.$.$.$.$.$.$.*.+.*.$.$.$.$.$.$.$.$.+.W.`._._._._._._._._._._._._._._._._._._._._._._._._._._._._.",
"$.$.$.$.$.$.$.$.$.$.$.$.$.$.$.$.$.$.$.$.$.$.$.$.$.$.$.$.$.+.U._._._._._._._._._._._._._._._._._._._._._._._._._._._._._.",
"+.$.$.$.$.$.$.*.$.$.$.$.$.$.$.$.$.$.$.$.$.$.$.$.$.$.$.$.$.+.W.`._._._._._._._._._._._._._._._._._._._._._._._._._._._._.",
"*.$.$.$.$.$.$.$.*.+.*.$.$.$.$.$.$.$.$.$.$.$.$.$.$.$.$.$.$.+.W.`._._._._._._._._._._._._._._._._._._._._._._._._._._._._.",
"$.$.$.$.$.$.$.$.$.$.$.$.$.$.$.$.*.$.$.$.$.$.$.$.$.$.+.$.*.+.W._._._._._._._._._._._._._._._._._._._._._._._._._._._._._.",
"$.$.$.$.$.$.$.$.$.$.$.$.$.$.$.$.$.$.$.$.$.$.$.$.$.$.*.*.$.+.U.`._._._._._._._._._._._._._._._._._._._._._._._._._._._._.",
"$.$.$.$.$.$.$.$.$.$.$.$.$.$.$.$.$.$.$.$.$.$.$.$.$.$.$.$.$.+.W.`._._._._._._./.~._._._._._._._._._._._._._._._._._._._._.",
"$.$.$.$.$.$.$.$.$.$.$.$.$.$.$.$.$.$.$.$.$.$.$.$.$.$.$.$.$.+.U.)._._._._._._._._._._._._._._._._._._._._._._._._._._._._.",
"$.$.$.$.$.$.$.$.$.$.$.$.$.$.$.$.$.$.$.$.$.$.$.$.$.$.$.$.$.+.W.`._._._._._._._._._._._._._._._._._.~._._._._._._._._._._.",
"$.$.$.$.$.$.$.$.$.$.$.$.$.$.$.$.$.$.$.$.$.$.$.$.$.$.$.$.$.+.W.`._._._._._._._._.!._._._._._._._././._._._._._._._._._._.",
"$.$.*.+.$.$.$.$.$.$.$.$.$.$.$.$.$.$.$.$.$.$.$.$.$.$.$.*.$.+.W.`._._._._._._._._._._._._._._._._._._._._._._._._._._._./.",
"$.$.$.*.$.$.$.$.$.$.$.$.$.*.$.$.$.$.$.$.$.$.$.$.$.$.*.+.+.#.W.^._._._._._._._._._._._._._._._._._._._._._._._._._._._.~."
};
