/* XPM */
static char *e90b3d3397fb41f0f6ac623db864e145CFyp6cQUBD34d8FJ[] = {
/* columns rows colors chars-per-pixel */
"60 60 212 2 ",
"   c #74AA79",
".  c #7BB175",
"X  c #7BB37A",
"o  c #8DCE2D",
"O  c #90CD2D",
"+  c #8CD12B",
"@  c #89D127",
"#  c #91D02A",
"$  c #8ECD36",
"%  c #8DCC3A",
"&  c #8EC63D",
"*  c #91CC34",
"=  c #92CC3A",
"-  c #98CD35",
";  c #8CD033",
":  c #8CD13C",
">  c #98D135",
",  c #93D03B",
"<  c #99D039",
"1  c #97D131",
"2  c #A8DD36",
"3  c #A5DB3D",
"4  c #A9DC3D",
"5  c #A5D93A",
"6  c #82BB6E",
"7  c #88BE68",
"8  c #8ABF74",
"9  c #81B57B",
"0  c #84BA7A",
"q  c #8ABF7A",
"w  c #86B778",
"e  c #8DCC42",
"r  c #8DCB4A",
"t  c #91CB44",
"y  c #94CB4B",
"u  c #9FD84D",
"i  c #9DD649",
"p  c #88C754",
"a  c #8DC955",
"s  c #8AC65E",
"d  c #8CC85B",
"f  c #90CB52",
"g  c #92C95B",
"h  c #A3D744",
"j  c #AAD746",
"k  c #A5DB44",
"l  c #A8DA45",
"z  c #A4D649",
"x  c #AAD64B",
"c  c #A5DA4B",
"v  c #A9D94B",
"b  c #A4D552",
"n  c #A9D754",
"m  c #A4DA52",
"M  c #A9DA51",
"N  c #A4D55B",
"B  c #A9D559",
"V  c #A4DA5D",
"C  c #AFDE5C",
"Z  c #B0DC53",
"A  c #ADE24A",
"S  c #B0E154",
"D  c #8CC562",
"F  c #8BC860",
"G  c #8BC36D",
"H  c #87C365",
"J  c #92C469",
"K  c #91C465",
"L  c #9ED266",
"P  c #87C272",
"I  c #9BCB7E",
"U  c #93C779",
"Y  c #9CD270",
"T  c #A4D663",
"R  c #A4D56C",
"E  c #A7DB68",
"W  c #A5DA65",
"Q  c #A3CF76",
"!  c #A4D372",
"~  c #A2D379",
"^  c #A9D274",
"/  c #5C7EBE",
"(  c #636DB1",
")  c #5A6DCC",
"_  c #5C7EC7",
"`  c #5B7ECB",
"'  c #5875CA",
"]  c #577BD5",
"[  c #5C78D4",
"{  c #5B7ADD",
"}  c #727DC6",
"|  c #6376D5",
" . c #4E71E7",
".. c #567CE2",
"X. c #5B7AE5",
"o. c #557BEE",
"O. c #5C7CEC",
"+. c #5B76EA",
"@. c #5A76F4",
"#. c #557BF4",
"$. c #5A7CF5",
"%. c #5576FB",
"&. c #567CFA",
"*. c #5B7CFB",
"=. c #5877FA",
"-. c #637DEA",
";. c #687BE3",
":. c #6378F4",
">. c #607EFC",
",. c #6E978F",
"<. c #678A99",
"1. c #6D9C95",
"2. c #69969D",
"3. c #709490",
"4. c #75AB84",
"5. c #7BAA83",
"6. c #78A68D",
"7. c #7CAC8C",
"8. c #75A588",
"9. c #79A992",
"0. c #79A598",
"q. c #6586A3",
"w. c #6787A7",
"e. c #6996A7",
"r. c #6F9BA2",
"t. c #6B93AA",
"y. c #6E9CAB",
"u. c #7297AC",
"i. c #789FAE",
"p. c #6A85B4",
"a. c #658AB6",
"s. c #6286BD",
"d. c #618BBB",
"f. c #6C8FBA",
"g. c #6489B6",
"h. c #6891B5",
"j. c #799DB5",
"k. c #75A2A5",
"l. c #7CA6AC",
"z. c #5C83C4",
"x. c #5D83CB",
"c. c #5D82D5",
"v. c #6386C7",
"b. c #6A86C4",
"n. c #6183CA",
"m. c #638ACD",
"M. c #6885C6",
"N. c #6B92C1",
"B. c #7393C4",
"V. c #6384D6",
"C. c #648BD5",
"Z. c #6184D8",
"A. c #728AD2",
"S. c #7F96DC",
"D. c #5D81E2",
"F. c #5B80EC",
"G. c #5A81F4",
"H. c #5B81FB",
"J. c #5780F6",
"K. c #6383EB",
"L. c #6D82ED",
"P. c #6885E5",
"I. c #7189ED",
"U. c #7C92EA",
"Y. c #7E98E5",
"T. c #6381F6",
"R. c #6E8EF3",
"E. c #7287F4",
"W. c #7D9DF0",
"Q. c #82AD85",
"!. c #83AE8D",
"~. c #83B282",
"^. c #87B885",
"/. c #82B199",
"(. c #8BB49B",
"). c #8EB793",
"_. c #91BE95",
"`. c #82ACA7",
"'. c #8AB3A2",
"]. c #92B8A7",
"[. c #8FC186",
"{. c #92C282",
"}. c #9BCC84",
"|. c #97C588",
" X c #A0CF89",
".X c #A0D182",
"XX c #A1CE93",
"oX c #8EA7D6",
"OX c #9DB2DD",
"+X c #879CEF",
"@X c #8A9BFC",
"#X c #8499F9",
"$X c #99B2E3",
"%X c #8DA0FF",
"&X c #A2B6ED",
"*X c #ACBDEB",
"=X c #B6BFE8",
"-X c #ABB9FF",
";X c #A9C4EB",
":X c #B9C2EB",
">X c #AEC2FF",
",X c #B2C5FF",
"<X c #B4CBFF",
"1X c #BAC8F7",
"2X c #BFD2FF",
"3X c #D3E2FF",
"4X c #D5EAFF",
"5X c #DAEBFF",
"6X c #E2F4FF",
"7X c #EAF7FF",
"8X c #E9FAFF",
"9X c #F1FEFF",
/* pixels */
"l l l l l l l l l l l c l l l l l l l l l k l l l l l l l k < $ $ $ % $ $ $ % $ $ * $ $ $ $ $ $ % $ $ $ $ % $ $ $ $ $ $ ",
"l l l l l l l l l l l l l l l l l l l l c k l l l l l l l A < $ * $ $ $ $ $ ; * $ % $ $ $ $ $ $ $ $ * % $ $ $ $ $ % $ $ ",
"l l l l l c l l l l l l l l l l l l l l k k l l l l l l k k < $ * % $ $ $ $ $ $ % * $ $ * % $ $ $ % ; $ ; % $ $ $ $ $ * ",
"l l l l l k l l l k l l l l k l l l l l k c l l l l j l k k - $ * $ $ % $ % $ $ $ ; $ % ; % $ $ * $ $ $ * $ $ $ $ $ $ % ",
"l l l l l l l l k l l l l l l k l l l l l c l l l l l l k k < $ * $ $ $ * ; $ $ $ $ $ $ % * $ $ $ $ $ $ % $ $ $ $ $ $ $ ",
"l c l l l l l l l l l l l l l l j l l l k k l l j l l l k k < $ = $ $ $ % % $ $ $ $ $ $ % ; $ $ $ $ $ % $ $ $ $ $ $ $ $ ",
"l l k l l l k l l l l l l l l l l l l l l k l l j l l l k k < $ * $ $ $ $ $ $ $ $ $ $ $ $ $ * $ $ % ; * $ $ $ % ; % % $ ",
"l k l l l l l l l l l c l l l l j l l l k k l l j l l l k k > $ * % $ $ $ $ $ $ $ % $ $ $ $ $ % $ $ % $ $ $ $ * $ $ $ $ ",
"l l l l l l c l l l l l l c l l l l l k k l l l l l l l l c < $ * % $ $ $ $ % $ $ $ $ $ $ $ $ $ $ $ $ $ $ % $ $ $ $ $ % ",
"l l l l l l l l l l l k l l l l l l l l k l l l j l l l l A > $ * $ $ $ $ $ $ $ $ $ % $ $ $ $ $ $ $ % $ $ $ $ $ $ $ $ $ ",
"l l k l l l l l l l l l l l l l l l l l k k l l l l l l k k < $ * % $ $ % $ $ $ $ $ $ $ $ % $ % $ $ $ $ $ $ = $ $ $ $ $ ",
"l l l l l l k l l l l l l l l l l j l l k k k l l j l l k k - $ * $ $ % $ $ $ $ $ $ $ $ $ $ $ $ $ $ $ $ $ $ $ $ % $ $ $ ",
"l l l l l l l l l k l l l l l l l l l l l A k l j l l l k k < $ * $ $ $ $ $ $ $ $ $ $ $ $ $ $ $ $ , $ $ $ $ ; $ $ $ $ $ ",
"l k l k l l l l l l l l l l l l j l l l k l k l l l j l k k < $ * $ $ $ % $ $ $ , $ $ $ % $ $ $ $ $ $ $ $ $ % $ $ $ $ $ ",
"l l l l l l l l l l l l l l l l l l l l k l l l l l l l k k < $ * $ $ $ $ * $ $ $ % $ $ $ $ $ $ $ $ $ $ $ % $ $ $ $ $ $ ",
"l l l l c c l l l k 4 k l l l l l l v l k k l l l l l l l k > $ $ $ $ $ $ ; $ $ $ $ $ $ $ $ $ $ % $ $ $ $ $ % * , $ % $ ",
"l l l l c m k A 2 2 2 4 Z v k h k k S h 4 4 j l 5 l j j j 3 - O o $ $ $ o o $ $ $ $ % $ % ; $ $ % % $ o $ : & & % % % % ",
"l l l l m m c l 4 4 4 3 j j l k 3 h v x Z x B R E W b Z j j > O $ $ o $ o $ $ $ $ $ $ % % % $ $ % % o $ $ $ % & % ; % % ",
"j 4 l l c m l l 5 j l x l M A c k k l B ^ |.].'.)._.T C b Z < O % % % % % $ % % % % & % ; ; ; ; + $ * = $ o O * ; % % % ",
"l l l l j c v l v v M n c c c c M m N Q ).<.<.q.t.3.w ^ L T y t r r r r r r r r r r r r e e % ; o + = = * o O O $ % % % ",
"j 4 4 4 l l j v v h z m l c m L L !  X(.p.A.$X;XoXp.q.].XX~ 8 K D s s s s F F F F F s p p r r r $ o $ $ * * # # $ $ % % ",
"l l 4 l 4 j j l l x m W Y U P ~.7./.l.f.[ @X2X6X5X&Xb.B.`./.6.!.8.4.4.4.4.4.4.4.4.4.4.    X 9 P d r e $ * * O # o $ % % ",
"l l j x j 4 l l A m Y [.l.f.v.` C.` ] F.P.| } 1X9X3XS.[ x.x.[ ` x.x.x.x.` x.[ x.x.` x.z.z.d.N.y.!.G r % * * O o $ % % % ",
"c l M x j 4 l l i R |.1._ +.>.*.&.*.H.#.X.) ( =X7X6X+X-.$.#.H.$.$.$.*.$.$.=.*.*.&.*.*.$.O.O.O.x.e.7.D r % * - o $ % % % ",
"c l l l l l 4 j E w t.[ K.$.$.*.&.H.H.G.O.U.*X3X9X,XE.@.=.J.#.G.$.$.$.$.$.*.*.*.=.*.*.*.$.F.#.D.z.e.X d e ; * * % % % % ",
"k c l l j j 4 B }.0.n.:.*.*.$.G.&.#.#.#.T.#X,X5X-X#X:.=.*.$.#.F.G.$.$.G.$.$.*.*.*.*.*.*.$.$.#.F.D.z.1.X f ; o * % & e % ",
"k A c v l l l ! /.f.] #.*.*.$.G.G.G.G.#.@.@.-.I.-.:.@.*.*.=.#.#.$.$.#.#.$.$.*.*.*.*.*.*.*.$.$.$.J.{ d.9.a ; $ * % e & $ ",
"i c m c l l c }.l.c...H.*.&.*.#.O.$.$.*.H.*.*.*.:.*.*.*.*.*.*.$.$.$.G.H.$.*.*.*.*.*.*.*.*.*.$.&.H.#.c.y.D * O * = t % * ",
"m m c j 4 k c }.h.D.F.J.#.$.>.*.>.:.*.$.$.#.$.J.&.H.H.*.*.=.>.>.=.$.$.$.$.$.$.#.*.$.*.*.*.$.$.*.*.$.O.a.7 $ $ O * * * & ",
"u z h 5 2 3 m |.d.F.J.J.#.@.>.*.=.*.$.:.>.H.*.&.&.*.$.$.>.*.*.=.*.*.*.$.$.G.$.#.=.=.*.*.*.$.*.$.$.#.$.s.8 < = - - - * = ",
": * * - - < t P d.F.&.&.&.@.$.*.H.*.*.@.=.$.&.H.&.J.$.:.:.$.*.%.*.*.*.$.$.$.$.H.$.*.$.&.*.$.$.$.$.$.:.N.{.u h k 3 5 l l ",
"o * * O * = e 6 h.D.#.&.H.$.@.*.*.*.$.$.$.*.&.#.J.#.$.$.G.#.&.*.*.*.*.*.*.$.$.*.$.$.$.*.*.$.*.$.G.#.X.f.}.m l l 4 2 l l ",
"$ % = % O O % G r.C.O.=.*.H.J.#.>.*.*.#.H.*.H.&.H.#.G.#.H.#.=.>.*.$.:.*.$.$.>.*.*.*.*.*.=.=.>.>.@.O.V.j.I m 3 2 k l k l ",
"% % e % o o % s 6.g.{ >.*.&.#.J.=.*.*.T.=. .F.R.F.X.G.#.&.&.*.*.>.*.$.*.*.$.$.>.=.>.>.*.>.>.=.@.T.] p.'.~ c 2 4 k l l 4 ",
"$ $ % e % % % a q 1._ O.*.*.&.&.&.H.#.o.F.Y.<X4X>XW.X.@.J.H.%.*.&.$.=.=.#.$.=.*.*.*.%.&.$.G.$.$.-./ 9.I V u k k l j l l ",
"+ $ = % % e % e g 9 e.` O.*.*.&.&.H.#.o.K.+XOX3X8X1XL.@.H.J.%.H.&.*.*.H.*.*.H.*.*.*.*.*.$.#.F.P._ y.[.L c c c l v j x v ",
"$ + $ $ $ % $ $ $ p 9 r.` #.*.%.$.#.#.o.;.) ( :X7X6X#X:.@.@.&.*.*.*.=.#.$.$.#.#.@.*.G.o.o.....x.t._.~ m c c l l l l v v ",
"$ $ + $ $ $ $ $ @ $ d 0 k.N.m.x.x._ C.c.;.;.b.1X9X5X+X{ Z._ m.x.x.x.n.x.n.n.n.x.n.v.v.v.s.d.N.i.|.~ N k l c l A l l v M ",
"% ; + + $ % $ % , $ * r s . .   5.8.k.w.P.%X<X8X5X&XM.b.k.8.7.5.!.!.!.!.!.!.!.!.!.!.Q.Q.~.^.|. XE V m c c l k l l j v v ",
"e % o + $ $ % % % $ ; ; $ & t a g G U 6.s.M.$X;XoX( t./.q D R R ! R ! R ! ! ! ^ ! R ^ E T V N m k h v M 3 4 4 l j l l l ",
"% % $ ; $ = % e % e e % = % % t = y a 7 9.2.q.w.<.,.. H f r b z n n n n n B B B B B B n x l l l l l l l 4 2 4 l M v l 4 ",
"% % % % $ % % % e = e e % % % % $ % e a H X 9.9.7.X p : % $ h l l l l l l v l v n v M j l l 4 l l l l l 4 2 l v x l k 3 ",
"+ ; % % $ $ * $ * * $ $ = = = = & & & : : e p d a r r e % * i x l l l l l l l M v n v v l l l l v v j l 4 4 c v v l 4 4 ",
"+ $ $ $ $ o o $ O O * * % & * $ & % % ; + + $ $ O o & & $ $ k c l l k k l c k c l m c c c l k k l l j l l l l l l l 3 3 ",
"e % $ $ * $ o o $ $ $ $ * * * * o o $ ; o o o - * * = % % % i k k 3 k 3 3 k 3 k k A k l l k k 3 l l l v v m c h l 3 4 4 ",
"e e $ $ % $ o o $ % % $ * $ * o O o $ ; $ $ O - = = % $ & * < k k k k 3 4 4 4 3 3 k k l l l k k 4 4 l j m m k 3 k 3 k k ",
"$ $ % = $ o o o $ $ % % $ $ * * * * : $ $ $ * * = $ $ $ % * 5 l j l l l l 4 l 4 k l j v l l k k 4 l k l l c k A 3 k l k ",
"o $ % % $ $ $ $ $ * $ $ $ $ * $ $ $ $ : $ % = = & % * $ = $ h h v v v l j l l l l l j j j l l l l l k k l c k k k k l c ",
"$ $ $ = $ $ $ $ $ $ % $ $ $ $ $ $ $ % % $ $ $ = $ % $ $ % $ 5 k l v l v l l l l l l l l l l l l l c l l l l l k l l l l ",
"$ $ $ $ $ $ $ $ $ $ $ $ % $ , $ ; $ $ $ * * $ $ : ; $ $ $ $ i c l l l l l l l l c l l l l l l l l l l l l l l l k l l l ",
"$ $ $ $ $ $ $ $ $ $ * $ $ $ $ $ % $ % $ * % $ $ $ $ $ $ * * i k l l l l l l l c l l l l l l l l l l l k l l l k l l l l ",
"$ $ $ $ % $ $ $ $ $ % $ $ $ $ $ $ ; $ $ * * $ $ $ $ $ $ = * 5 z l l l l l l l l l l l l l l l l l l l l l l l l l l l l ",
"* $ $ $ $ $ $ $ % * ; $ $ $ $ $ $ $ $ $ % * % $ ; % $ $ * $ i k l l l l l k l l l l l k c l l l l l l l l l k l l l l k ",
"$ $ $ $ $ $ $ $ $ $ % $ $ $ $ % ; $ $ $ * * $ $ $ $ $ $ - $ h k l l k l l l l l l l l l l l l l l k l l l l l l l l l l ",
"$ % $ $ $ $ $ % $ $ $ % $ $ $ $ % ; $ $ * $ $ $ $ % $ $ * $ h k l l l l l c l l l l l l l l l l l l l l c l l l l l l l ",
"$ $ $ : * $ $ $ $ $ $ * ; % $ $ $ % % $ * = $ $ $ $ $ $ - $ i c l l l l l l l l l k l l l l l k l l l l l l l l l l l l ",
"$ $ $ $ , $ $ $ $ $ $ $ $ $ % $ ; ; % $ * $ $ $ $ % $ $ = * h k l l l l l l l l l l l l l l l l l k l l l l l l l l l l ",
"$ $ $ % $ $ $ $ $ $ $ % $ $ * $ % $ $ $ $ = $ % $ ; $ $ * $ h l l k l l l l l l k l l l l l l l l l l l l l l l l c k A ",
"$ $ $ $ $ $ $ $ $ $ $ $ ; % $ $ % ; $ $ * * % $ $ $ $ $ * $ i c l l l l k l l l l l l l l l l l l c l l l k l l l l k l ",
"$ $ $ $ $ $ $ % $ $ $ $ * $ $ % $ $ $ $ $ $ $ $ $ $ $ $ - o i k l c l l l l l l l l c l k l l l l l l l l l l l l l l l "
};
