/* XPM */
static char *a5af41d7f879440fd1572dcf2c0b5c0e8GGq3S8no0bS99yY[] = {
/* columns rows colors chars-per-pixel */
"60 60 113 2 ",
"   c #7CAF7E",
".  c #7FB471",
"X  c #7EB375",
"o  c #7DB178",
"O  c #7DB07B",
"+  c #8ECC35",
"@  c #8FCD36",
"#  c #8ECC37",
"$  c #8ECC39",
"%  c #8DCA3E",
"&  c #91CE37",
"*  c #96D03A",
"=  c #86BF56",
"-  c #82BA64",
";  c #82B867",
":  c #8FBC7F",
">  c #90BD7C",
",  c #8AC647",
"<  c #8CC54B",
"1  c #87C053",
"2  c #87C055",
"3  c #88C250",
"4  c #9ECE57",
"5  c #9ECD5E",
"6  c #A0D641",
"7  c #A5D844",
"8  c #A7D947",
"9  c #A8DA46",
"0  c #A5D64D",
"q  c #A7D84A",
"w  c #A1D255",
"e  c #A1D256",
"r  c #9BCA63",
"t  c #9CCC61",
"y  c #94C173",
"u  c #95C471",
"i  c #4B6ED8",
"p  c #4E70D8",
"a  c #5D7DDC",
"s  c #607EDB",
"d  c #5879ED",
"f  c #5D7DEF",
"g  c #5B7EF1",
"h  c #5E7FF3",
"j  c #597BF7",
"k  c #597CF7",
"l  c #5779F9",
"z  c #587BF9",
"x  c #5A7BF9",
"c  c #5B7CF9",
"v  c #5C7CF9",
"b  c #607FF6",
"n  c #7AAB85",
"m  c #78AA8A",
"M  c #74A397",
"N  c #75A596",
"B  c #74A29C",
"V  c #79A698",
"C  c #7EA99C",
"Z  c #6D99B4",
"A  c #769DB9",
"S  c #7DA5A9",
"D  c #6992C3",
"F  c #7096C7",
"G  c #648BD2",
"H  c #648BD3",
"J  c #698ED5",
"K  c #698ED6",
"L  c #6286DD",
"P  c #6287DE",
"I  c #6388DA",
"U  c #6389DA",
"Y  c #678BDD",
"T  c #688CD8",
"R  c #5D81EA",
"E  c #5F82EB",
"W  c #6084E6",
"Q  c #6588E0",
"!  c #6281F8",
"~  c #6383F8",
"^  c #6D8AF8",
"/  c #718EF8",
"(  c #7993F7",
")  c #7892F8",
"_  c #8DBA82",
"`  c #8CB886",
"'  c #8BB788",
"]  c #82AB9E",
"[  c #83AC9C",
"{  c #87B193",
"}  c #8299E8",
"|  c #849CF7",
" . c #8FA4F0",
".. c #89A0F7",
"X. c #93A8F7",
"o. c #A2B2E6",
"O. c #B1BEE9",
"+. c #A3B4F6",
"@. c #B6C3F6",
"#. c #BAC6F6",
"$. c #C1CBEC",
"%. c #CBD3EE",
"&. c #CCD4EE",
"*. c #C1CCF5",
"=. c #C5CFF5",
"-. c #E1E5F0",
";. c #E4E7F4",
":. c #E4E8F4",
">. c #EDEEF4",
",. c #EFF0F4",
"<. c #F0F1F2",
"1. c #F7F6F4",
"2. c #F8F7F4",
/* pixels */
"9 9 9 9 9 9 9 9 9 9 9 9 9 9 9 9 9 9 9 9 9 9 9 9 9 9 9 9 9 9 * + @ @ @ @ @ @ @ @ @ @ @ @ @ @ @ @ @ @ @ @ @ @ @ @ @ @ @ @ ",
"9 9 9 9 9 9 9 9 9 9 9 9 9 9 9 9 9 9 9 9 9 9 9 9 9 9 9 9 9 9 * + @ @ @ @ @ @ @ @ @ @ @ @ @ @ @ @ @ @ @ @ @ @ @ @ @ @ @ @ ",
"9 9 9 9 9 9 9 9 9 9 9 9 9 9 9 9 9 9 9 9 9 9 9 9 9 9 9 9 9 9 * + @ @ @ @ @ @ @ @ @ @ @ @ @ @ @ @ @ @ @ @ @ @ @ @ @ @ @ @ ",
"9 9 9 9 9 9 9 9 9 9 9 9 9 9 9 9 9 9 9 9 9 9 9 9 9 9 9 9 9 9 * + @ @ @ @ @ @ @ @ @ @ @ @ @ @ @ @ @ @ @ @ @ @ @ @ @ @ @ @ ",
"9 9 9 9 9 9 9 9 9 9 9 9 9 9 9 9 9 9 9 9 9 9 9 9 9 9 9 9 9 9 * + @ @ @ @ @ @ @ @ @ @ @ @ @ @ @ @ @ @ @ @ @ @ @ @ @ @ @ @ ",
"9 9 9 9 9 9 9 9 9 9 9 9 9 9 9 9 9 9 9 9 9 9 9 9 9 9 9 9 9 9 * + @ @ @ @ @ @ @ @ @ @ @ @ @ @ @ @ @ @ @ @ @ @ @ @ @ @ @ @ ",
"9 9 9 9 9 9 9 9 9 9 9 9 9 9 9 9 9 9 9 9 9 9 9 9 9 9 9 9 9 9 * + @ @ @ @ @ @ @ @ @ @ @ @ @ @ @ @ @ @ @ @ @ @ @ @ @ @ @ @ ",
"9 9 9 9 9 9 9 9 9 9 9 9 9 9 9 9 9 9 9 9 9 9 9 9 9 9 9 9 9 9 * + @ @ @ @ @ @ @ @ @ @ @ @ @ @ @ @ @ @ @ @ @ @ @ @ @ @ @ @ ",
"9 9 9 9 9 9 9 9 9 9 9 9 9 9 9 9 9 9 9 9 9 9 9 9 9 9 9 9 9 9 * + @ @ @ @ @ @ @ @ @ @ @ @ + + + + @ @ @ @ @ @ @ @ @ @ @ @ ",
"9 9 9 9 9 9 9 9 9 9 9 9 9 9 9 9 9 9 9 9 9 9 9 9 9 9 9 9 9 9 * + @ @ @ @ @ @ @ @ @ @ @ @ & & + + @ @ @ @ @ @ @ @ @ @ @ @ ",
"9 9 9 9 9 9 9 9 9 9 9 9 9 9 9 9 9 9 9 9 9 9 9 9 9 9 9 9 9 9 * + @ @ @ @ @ @ @ @ @ @ @ @ + + + & @ @ @ @ @ @ @ @ @ @ @ @ ",
"9 9 9 9 9 9 9 9 9 9 9 9 9 9 9 9 9 9 9 9 9 9 9 9 9 9 9 9 9 9 * + @ @ @ @ @ @ @ @ @ @ + + + * + & @ @ @ @ @ @ @ @ @ @ @ @ ",
"9 9 9 9 9 9 9 9 9 9 9 9 9 9 9 9 9 9 9 9 9 9 9 9 9 9 9 9 9 9 * + @ @ @ @ @ @ @ @ @ @ @ @ & + + + @ @ @ @ @ @ @ @ @ @ @ @ ",
"9 9 9 9 9 9 9 9 9 9 9 9 9 9 9 9 9 9 9 9 9 9 9 9 9 9 9 9 9 9 * + @ @ @ @ @ @ @ @ @ @ @ @ + + & + @ @ @ @ @ @ @ @ @ @ @ @ ",
"9 9 9 9 9 9 9 9 9 9 9 9 9 9 9 9 9 9 9 9 9 9 9 9 9 9 9 9 9 9 * + @ @ @ @ @ @ @ @ @ @ @ @ + & + & @ @ @ @ @ @ @ @ @ @ @ @ ",
"9 9 9 9 9 9 9 9 9 9 9 9 9 9 9 9 9 9 9 9 9 9 9 9 9 9 9 9 9 9 * + @ @ @ @ @ @ @ @ @ @ @ @ + & + + @ @ @ @ @ @ @ @ @ @ @ @ ",
"9 9 9 9 9 9 9 9 9 9 9 9 9 9 9 9 9 9 9 9 9 9 9 9 9 9 9 9 9 9 * + & + $ + & + $ & + & + & & + & $ @ @ @ @ @ @ @ @ + & + & ",
"9 9 9 9 9 9 9 9 9 9 9 9 9 9 9 9 9 9 9 9 9 9 9 9 9 9 9 9 9 9 * + + + & + + & + + & + & + + & + & @ @ @ @ @ @ @ @ & + & + ",
"9 9 9 9 9 9 9 9 9 9 9 9 9 9 9 9 9 9 9 9 9 9 9 9 9 9 9 9 9 9 * + + & 2 ; X X 2 + & + + & + + + $ @ @ @ @ @ @ @ @ + + + & ",
"9 9 9 9 9 9 9 9 9 9 9 9 9 9 9 9 9 9 9 9 9 9 9 9 9 9 9 9 9 9 * + $ O I j l c P m $ + & $ + + $ + @ @ @ @ @ @ @ @ + & & + ",
"9 9 9 9 9 9 9 9 9 9 9 9 8 9 9 9 9 9 9 9 9 9 9 9 9 9 9 9 9 9 * + . R ~ | @.X.! g n $ + & + & + + @ @ @ @ @ @ @ @ + + & + ",
"9 9 9 9 9 9 9 9 9 9 9 9 q r ` [ ] ] ] ] ] ] ] ] ] ] ] ] ] ] V M H c +.>.,.&. .g P B N N N O 2 + @ @ @ @ @ + @ @ & + & + ",
"9 9 9 9 9 9 9 9 9 9 9 t S Y h k c c c c c c c c c c c c c c c c l ) :.1.$.a a f l c c c k g P S 3 @ @ @ + & + & + & + + ",
"9 9 9 9 9 9 9 9 9 9 y K x v x c c c c c c c c c c c c c c c c c l | ,.1.O.p i d k c c c c c c c H . @ @ + & $ + + + + & ",
"9 9 9 9 9 9 9 9 9 u Y c c c c c c c c c c c c c c c c c c c c c c ~ =.2.;.o.} ~ c c c c c c c c ~ I - & & + + & & + $ & ",
"9 9 9 9 9 9 9 9 e F x c c c c c c c c c c c c c c c c c c c c c c z ^ #.:.=.) z k c c c c c c c z ! D , & & + + + + & + ",
"9 9 9 9 9 9 9 8 ' h x c c c c c c c c c c c c c c c c c c c c c c c z ! ^ ! l c c c c c c c c c z z R n $ + & + + & + & ",
"9 9 9 9 9 9 9 0 A c c c c c c c c c c c c c c c c c c c c c c c c c c c k c c c c c c c c c c c z z z Z % + & + + & + + ",
"9 9 8 8 9 8 8 w Y x v c c c c c c c c c c c c c c c c c c c c c c c c c c c c c c c c c c c c c c c k H , @ * # + + + + ",
"7 7 7 7 8 8 7 4 W c v c c c c c c c c c c c c c c c c c c c c c c c c c c c c c c c c c c c c c c c c E , + + + & & & & ",
"& & & & & & & < W c c c c c c c c c c c c c c c c c c c c c c c c c c c c c c c c c c c c c c c c c c E e 8 9 6 7 7 7 7 ",
"+ + + + + + + , I x c c c c c c c c c c c c c c c c c c c c c c c c c c c c c c c c c c c c c c c c c Y e 8 8 9 9 9 9 9 ",
"+ + & + + @ @ % Z ~ z c c c c c z z ~ z c c c c c c c x c c c c c c c c j j x x x v c c c c c c c c c A 0 8 9 9 9 9 9 9 ",
"& + & + + + @ $ n R z z c c c c z z l z z c c c c c l ~ c c c c c c c ! ^ ~ x x v x c c c c c c c c h ' 8 8 9 9 9 9 9 9 ",
"+ & + + + * + & , Z z z c c c c ~ l z l c c ~ c c c l c c c c c c z / #.;.*.( j j c c c c c c c c c F e 9 9 9 9 9 9 9 9 ",
"& + + & + & + + $ . I ! c c c c z z z ~ v v l l c c c v c c c k c ~ =.1.-.o.} h x v c c c c c c c T y 9 9 9 9 9 9 9 9 9 ",
"+ & & + + & & + + @ . H z z z z l l ~ z l l l ~ c c c c c c k k l | ,.1.@.i p d c c c c c x c x K y 9 9 9 9 9 9 9 9 9 9 ",
"& + + + + + + + & + + 1 S P R z ! ~ l l ! ~ l ~ x c c c c c c ! l ) :.1.#.a a f x c c c c h Y S t 9 9 9 9 9 9 9 9 9 9 9 ",
"+ & + & & & + + + & + * $ 2 O N N N N N M M N N V V N N N N C S K k +.,.,.&. .! Y S [ [ [ ` r q 9 9 9 9 9 9 9 9 9 9 9 9 ",
"& + & + + + + & & + + @ + $ + + + # # # # # @ @ + + + & + $ 6 8 : R ~ ..#. .~ R ' 8 9 9 9 9 8 8 9 9 9 9 9 9 9 9 9 9 9 9 ",
"@ @ @ @ @ @ @ @ + & + + & & + + @ @ @ @ @ @ @ @ @ @ @ @ @ + 6 9 q ` K j x v P { 0 8 9 9 9 9 9 9 9 9 9 9 9 9 9 9 9 9 9 9 ",
"@ @ @ @ @ @ @ @ & + & + + + + & @ @ @ @ @ @ @ @ @ @ @ @ @ + 6 9 9 8 5 > _ _ r 9 9 9 9 9 9 9 9 9 9 9 9 9 9 9 9 9 9 9 9 9 ",
"@ @ @ @ @ @ @ @ + @ @ + @ @ + & @ @ @ @ @ @ @ @ @ @ @ @ @ + 6 9 9 9 9 9 9 9 9 9 9 9 9 9 9 9 9 9 9 9 9 9 9 9 9 9 9 9 9 9 ",
"@ @ @ @ @ @ @ @ & @ + & @ @ + + @ @ @ @ @ @ @ @ @ @ @ @ @ + 6 9 9 9 9 9 9 9 9 9 9 9 9 9 9 9 9 9 9 9 9 9 9 9 9 9 9 9 9 9 ",
"@ @ @ @ @ @ @ @ @ @ @ @ @ @ @ @ @ @ @ @ @ @ @ @ @ @ @ @ @ + 6 9 9 9 9 9 9 9 9 9 9 9 9 9 9 9 9 9 9 9 9 9 9 9 9 9 9 9 9 9 ",
"@ @ @ @ @ @ @ @ @ @ @ @ @ @ @ @ @ @ @ @ @ @ @ @ @ @ @ @ @ + 6 9 9 9 9 9 9 9 9 9 9 9 9 9 9 9 9 9 9 9 9 9 9 9 9 9 9 9 9 9 ",
"@ @ @ @ @ @ @ @ @ @ @ @ @ @ @ @ @ @ @ @ @ @ @ @ @ @ @ @ @ + 6 9 9 9 9 9 9 9 9 9 9 9 9 9 9 9 9 9 9 9 9 9 9 9 9 9 9 9 9 9 ",
"@ @ @ @ @ @ @ @ @ @ @ @ @ @ @ @ @ @ @ @ @ @ @ @ @ @ @ @ @ + 6 9 9 9 9 9 9 9 9 9 9 9 9 9 9 9 9 9 9 9 9 9 9 9 9 9 9 9 9 9 ",
"@ @ @ @ @ @ @ @ @ @ @ @ @ @ @ @ @ @ @ @ @ @ @ @ @ @ @ @ @ + 6 9 9 9 9 9 9 9 9 9 9 9 9 9 9 9 9 9 9 9 9 9 9 9 9 9 9 9 9 9 ",
"@ @ @ @ @ @ @ @ @ @ @ @ @ @ @ @ @ @ @ @ @ @ @ @ @ @ @ @ @ + 6 9 9 9 9 9 9 9 9 9 9 9 9 9 9 9 9 9 9 9 9 9 9 9 9 9 9 9 9 9 ",
"@ @ @ @ @ @ @ @ @ @ @ @ @ @ @ @ @ @ @ @ @ @ @ @ @ @ @ @ @ + 6 9 9 9 9 9 9 9 9 9 9 9 9 9 9 9 9 9 9 9 9 9 9 9 9 9 9 9 9 9 ",
"@ @ @ @ @ @ @ @ @ @ @ @ @ @ @ @ @ @ @ @ @ @ @ @ @ @ @ @ @ + 6 9 9 9 9 9 9 9 9 9 9 9 9 9 9 9 9 9 9 9 9 9 9 9 9 9 9 9 9 9 ",
"@ @ @ @ @ @ @ @ @ @ @ @ @ @ @ @ @ @ @ @ @ @ @ @ @ @ @ @ @ + 6 9 9 9 9 9 9 9 9 9 9 9 9 9 9 9 9 9 9 9 9 9 9 9 9 9 9 9 9 9 ",
"@ @ @ @ @ @ @ @ @ @ @ @ @ @ @ @ @ @ @ @ @ @ @ @ @ @ @ @ @ + 6 9 9 9 9 9 9 9 9 9 9 9 9 9 9 9 9 9 9 9 9 9 9 9 9 9 9 9 9 9 ",
"@ @ @ @ @ @ @ @ @ @ @ @ @ @ @ @ @ @ @ @ @ @ @ @ @ @ @ @ @ + 6 9 9 9 9 9 9 9 9 9 9 9 9 9 9 9 9 9 9 9 9 9 9 9 9 9 9 9 9 9 ",
"@ @ @ @ @ @ @ @ @ @ @ @ @ @ @ @ @ @ @ @ @ @ @ @ @ @ @ @ @ + 6 9 9 9 9 9 9 9 9 9 9 9 9 9 9 9 9 9 9 9 9 9 9 9 9 9 9 9 9 9 ",
"@ @ @ @ @ @ @ @ @ @ @ @ @ @ @ @ @ @ @ @ @ @ @ @ @ @ @ @ @ + 6 9 9 9 9 9 9 9 9 9 9 9 9 9 9 9 9 9 9 9 9 9 9 9 9 9 9 9 9 9 ",
"@ @ @ @ @ @ @ @ @ @ @ @ @ @ @ @ @ @ @ @ @ @ @ @ @ @ @ @ @ + 6 9 9 9 9 9 9 9 9 9 9 9 9 9 9 9 9 9 9 9 9 9 9 9 9 9 9 9 9 9 ",
"@ @ @ @ @ @ @ @ @ @ @ @ @ @ @ @ @ @ @ @ @ @ @ @ @ @ @ @ @ + 6 9 9 9 9 9 9 9 9 9 9 9 9 9 9 9 9 9 9 9 9 9 9 9 9 9 9 9 9 9 ",
"@ @ @ @ @ @ @ @ @ @ @ @ @ @ @ @ @ @ @ @ @ @ @ @ @ @ @ @ @ + 6 9 9 9 9 9 9 9 9 9 9 9 9 9 9 9 9 9 9 9 9 9 9 9 9 9 9 9 9 9 "
};
