/* XPM */
static char *_00936a02482492ff25e293014c5eb50eRJP2VeYu4MAhx7v[] = {
/* columns rows colors chars-per-pixel */
"60 60 180 2 ",
"   c #7EB42F",
".  c #77A939",
"X  c #7EB234",
"o  c #69945C",
"O  c #74A54A",
"+  c #789F68",
"@  c #729E69",
"#  c #749B79",
"$  c #689576",
"%  c #7CAF7D",
"&  c #7DB17A",
"*  c #7FB375",
"=  c #80B831",
"-  c #8CBA3E",
";  c #91BE3D",
":  c #8ECD36",
">  c #8ECD39",
",  c #89C435",
"<  c #90CC36",
"1  c #92CE38",
"2  c #96D13B",
"3  c #85AD54",
"4  c #85BE55",
"5  c #81A960",
"6  c #83B966",
"7  c #80B572",
"8  c #91BC7D",
"9  c #8AC547",
"0  c #90C74F",
"q  c #99C644",
"w  c #87C154",
"e  c #88C251",
"r  c #9FCE5C",
"t  c #A2D443",
"y  c #A6D845",
"u  c #A8DA45",
"i  c #A6D84A",
"p  c #A9DA4B",
"a  c #A5D54D",
"s  c #A2CF5A",
"d  c #A1D255",
"f  c #9CCB61",
"g  c #94C372",
"h  c #28468F",
"j  c #254696",
"k  c #284497",
"l  c #264897",
"z  c #2A4A94",
"x  c #264698",
"c  c #284799",
"v  c #264999",
"b  c #2B4A9B",
"n  c #304D99",
"m  c #2B4DA2",
"M  c #2D50A4",
"N  c #2E52A9",
"B  c #3352A5",
"V  c #3255AD",
"C  c #3857A9",
"Z  c #3A5EBA",
"A  c #375AB3",
"S  c #43639E",
"D  c #4D6AAC",
"F  c #5B74AD",
"G  c #4468BA",
"H  c #5A74B1",
"J  c #657BAD",
"K  c #385EC1",
"L  c #3F64C6",
"P  c #4266C5",
"I  c #486BC7",
"U  c #4569CB",
"Y  c #496DCD",
"T  c #476CD3",
"R  c #4B6ED3",
"E  c #4C6EDA",
"W  c #4C70D3",
"Q  c #4E71DA",
"!  c #5273DC",
"~  c #567ADF",
"^  c #5A7CDD",
"/  c #5074D5",
"(  c #627FDB",
")  c #5276E2",
"_  c #557BE4",
"`  c #597DE4",
"'  c #567CEA",
"]  c #597DED",
"[  c #5A7DF5",
"{  c #567AF9",
"}  c #5A7CF8",
"|  c #5977F9",
" . c #617FF7",
".. c #628D84",
"X. c #699480",
"o. c #688E99",
"O. c #638D9D",
"+. c #679092",
"@. c #6A9695",
"#. c #739B94",
"$. c #75998B",
"%. c #77A08E",
"&. c #79A786",
"*. c #75A596",
"=. c #76A49B",
"-. c #7FA89A",
";. c #7EA69B",
":. c #658FA3",
">. c #6B92A4",
",. c #6B94A8",
"<. c #729FA2",
"1. c #6980B6",
"2. c #6B8FBF",
"3. c #6688B8",
"4. c #6D99B4",
"5. c #769DBA",
"6. c #7FA8A2",
"7. c #7DA4A9",
"8. c #5E86C4",
"9. c #5F88CA",
"0. c #5D83D6",
"q. c #5F83DE",
"w. c #6386C5",
"e. c #648AC4",
"r. c #6084CE",
"t. c #6991C2",
"y. c #7494C5",
"u. c #7890CC",
"i. c #648AD3",
"p. c #698ED5",
"a. c #6286DF",
"s. c #6489DB",
"d. c #6D8DDA",
"f. c #5D84E3",
"g. c #5C83ED",
"h. c #5E83F2",
"j. c #5D80F8",
"k. c #6285E4",
"l. c #6588E2",
"z. c #6082ED",
"x. c #718EEA",
"c. c #6185F4",
"v. c #6381F8",
"b. c #6E8AF8",
"n. c #718DF8",
"m. c #7A93F7",
"M. c #7992F9",
"N. c #8CB786",
"B. c #8DB984",
"V. c #89B38F",
"C. c #82AB9D",
"Z. c #86B193",
"A. c #93A5D7",
"S. c #829AE8",
"D. c #849BF8",
"F. c #8BA1F4",
"G. c #93A8F7",
"H. c #92A6F5",
"J. c #9AB4F3",
"K. c #A2B2E6",
"L. c #AFBFE1",
"P. c #A7BAE2",
"I. c #B2BFEA",
"U. c #A2B4F6",
"Y. c #A5BFFC",
"T. c #A4C0FF",
"R. c #B6C3F7",
"E. c #BAC6F6",
"W. c #C1CCEC",
"Q. c #CCD5EE",
"!. c #D1DEEF",
"~. c #C2CDF5",
"^. c #C6D0F4",
"/. c #E2E5F1",
"(. c #E4E8F4",
"). c #EDEEF3",
"_. c #EFF0F4",
"`. c #EBF5FF",
"'. c #F4F4F3",
"]. c #F8F7F3",
/* pixels */
"u u u u u u u u u u u u u u u u u u u u u u u u u u u u u u 2 : : : : : 2 > : : : : : : : : : : : : : : : : : : : : : : ",
"u u u u u u u u u u u u u u u u u u u u u u u u u u y y u u 2 : : : : : : : : : : : : : : : : : : : : : : : : : : : : : ",
"u u u u u u u u u u u u u u u u u u u u u u u u u u u u u u 2 : : : : : : : : : : : : : : : : : : : : : : : : : : : : : ",
"u u u u u u u u u u u u u u u u u u u u u u u u u u u y u y 2 : : : : : : : : : : : : : : : : : : : : : : : : : : : : : ",
"u u u u u u u u u u u u u u u u u u u u u u u u u u u u u u 2 : : : : : : : : : : : : : : : : : : : : : : : : : : 1 : : ",
"u u u u u u u u u u u u u u u u u u u u u u u u u u u u u u 1 : : : : : : : : : : : : : : : : : : : : : : : : : : : : : ",
"u u u u u u u u u u u u u u u u u u u u u u u u u u u u u y 2 : : : : : : : : : : : : : : : : : : : : : : : : : : : : : ",
"u u u u u u u u u u u u u u u u u u u u u u u u u u y a d d 0 9 > : : : : : : : : : : : : : : : : : : : : : : : : : : : ",
"u u u u u u u u u u u u u u u u u u u u u u u u u d N.5.s.k.f.s.4.% 9 : : : : : : : : : : : : : : : : : > > : : : : : : ",
"u u u u u u u u u u u u u u u u u u u u u u u u g y.j.} } } } } [ j.t.* : : : : : : : : : 2 : : : : : : 1 : : : : : : : ",
"u u u u u u u u u u u u u u u u u u u u u u u g s.} } } } } } } } } [ s.6 : : : : : : : : : : : : : : : : : : : : : : : ",
"u u u u u u u u u u u u u u u u u u u u u u f p.j.} } } } } } } } } } } i.e : : : : : : : : : : : : 1 : : : : : : : : : ",
"u u u u u u u u u u u u u u u u u u u u u p 7.} } } } } } } } } } } } } { 7.> : : : : : : : : : : : : : : : : : : : : : ",
"u u u u u u u u u u u u u u u u u u u u u f l.} } } } } } } } } } } } } [ a.w : : : : : : : : : : : : : : 1 : : : : : : ",
"u u u u u u u u u u u u u u u u u u u u u N.h.} } } } } } } } } } } } } } [ & > : : : : : : : : : : : : : : : : : : : : ",
"u u u u u u u u u u u u u u u u u u u u u C.} } } } } } } } } } } } } } } [ *.: : : : : : : : : : : : : : : : : : : : : ",
"u u u u u u u u u u u u u u u u u u u u u C.} } } } } } } } } } } } } } } } *.> : : : : : : : : : : : > : : : : : : : : ",
"u u u u u u u u u u u u u u u u u u u u u C.} } } } } } } } } } } } } } } } *.: : : : : : : : : : : : : : : : : : : : : ",
"u u u u u u u u u u u u u u u u u u u u u C.} } } } } } } } } } } } } j.} } *.: : : : : : : : : : : : : : : : : : : : : ",
"u u u u u u u u u u u u u u u u u u u u u C.} } } } } } } } } } } } } } } } *.: : : : : : : : : : : : : : : : : : : : : ",
"u u u u u u u u u u u u u u u u u u u u u C.} } [ } } } } } } } } } } } } } *.: : : : : : : : : : : : : : : : : : : : : ",
"u u u u u u u u u u u u u u u u u u u u u C.} } } } } } } } } } } } } } } } *.: : : : : : : : : : : : : : : : : : : : : ",
"u u u u u u u u u u u u u u u u u u u u u C.} } } } } } } } } } } } } } } } *.: : : : : : : : : : : : : : : : : : : : : ",
"u u u u u u u u u u u u u u u u u u u u u C.} } } } } } } } } } } } } } } } *.: : : : : : : : : : : : : : : : : : : : : ",
"u u u u u u u u u u u u u u u u u u u u u C.} } } } } } } [ } } } } } } } } *.< : : : : : : : : : : : : : : : : : : : : ",
"u u u u u u u u u u u u u u u u u u u u u C.} } } } } } } } } } } } } } } } *.: : : : : : : : : : : : : : : : : : : : : ",
"u u u u u u u u u u u u u u u u u u y u u C.} } } } } } } } } } } } } } } } *.: : : : : : : : : : : : : : : : : : : : : ",
"u u u u u u u u u u u u u u u u u u u u u C.[ } } } } } } } } } } } } } } } *.< : > : : : : : : : : : : : > : : : : : : ",
"u u u u u u u u u u u u u u u u u u u u u C.} } } } } } } } } } } } } } } } *.: : : : : : : : : : : : : : : : : : : : : ",
"y y y y u y y y y y y u y y y y y y y y y C.} } } } } } } } } } } } } } } [ *.: 1 1 < < 1 1 < < < 1 : 1 1 1 < < 1 > 1 1 ",
"1 1 < 1 < < : 1 < < < < < 2 < < < < < 2 < *.} } } } } } } } } } } } } } } } C.a y y y y y y y y y y y y y u u u y y y u ",
": : : : : : : : : : : : : : : : : : : : : *.} [ } } } } } } [ } } } } } } } C.u u u u u u u u u u y u u u u u u u u u u ",
": : : : : : : : : : : : : : : : : : : > 7 i.| | [ } } } } } } } } } } } | } p.8 a u u u u u u u u u u u u u u u u u u u ",
": : : : : : : : : : : : : : > : : : : % g.} m.D.v.{ } } } } } } } } } v.D.m.} z.N.u u u u u u u u u u u u u u u u u u u ",
": : : : : : : : : : : : : : : : : : 4 i. .U.(.'.^.n.[ } } } } } } } b.^._.(.U. .i.s u u u u u u u u u u u u u u u u u u ",
": : : : : : : : : : : : : : : : : : * [ D._.].].].E.} { } } { } } j.E.].].]._.D.} 8 u u u u u u u u u u u u u u u u u u ",
": : : : : : : : : : : : : : : : : : & [ R.'.W.I.(.(.b.} } } } } } b.(.(.R.E.'.R.[ B.u u u u u u u u u u u u u u u u u u ",
": : : : : : : : < : : : : : : : : : * [ G.Q.( E K.~. .| } } } } } j.E.K.R r.Q.G.{ 8 u u u u u u u u u u u u u u u u u u ",
": : : : : : : : : : : : : : : : : : 4 a. .H.^ E S.m.} } } } } } { { M.S./ ( F. .l.f u u u u u u u u u u u u u u u u u u ",
": : : : : : : : : : : : : : : : : : : &.[  .] ]  .} } } } } } } } } } v.] ]  .[ Z.u u u u u u u u u u u u u u u u u u u ",
": : : : 1 : : : : : : > : : : : : : : > &.k.} { j.{ j.{ } } } } } } } } } } l.V.p u u u u u u u u u u u u u u u u u u u ",
": : : : : : : : : : : : : : : : : : : : : =.} } { { { { } } } } } } } { } } 6.u u u u u u u u u u u u u u u u u u u u u ",
": : : : : : : : : : : : : : : : : : : : : *.! ` h._ ) j.[ [ ] ] [ ] ] ) Q ` -.u u u u u u u u u u u u u u u u u u u u u ",
": : : : : : : : : : : : : : : : : : : : : *.! _ j.L L Q g.g.g.[ ] h.' T K ' ;.u u u u u u u y u u u u u u u u u u u u u ",
": : : : : : : : : : : : : : : : : : : : : *.~ _ j.f.L g.] g.g.] h.' g.! Q ' $.u u u u u u y y u u u u u u u u u u u u u ",
": : : : : : : : < < : > : , : : O +.O.>.O.8.f.q.h.c.g.g.g.h.g.g.g.g.g.g.f.q.w.#.#.>.>.# u u u u u u u u u u u u u u u u ",
": : : : : : : : < : : : < : : : $ 0.~ I Z p.J.Y.x.T L L P U P P U U U l.T.J.2.G G ` ` 8.u u u u u u u u u u u u u u u u ",
": : : : : : : : : : : : : : : : o q._ A b D R.`.A.V N N m m m M b m B u.`.P.S M V ` g.3.u u u u u u u u u u u u u u u u ",
": : : : : : : : : : : : : : : : X q._ V l h J Q.A.C j j j c l l v j n y.!.F z j M ` g.o.u u u u u u u u u u u u u u u u ",
": : : : : : : : : : : : : : : : : i.g.L v j z 1.H b k j k c l v v j z D 3.k j l Z ` g.@ u u u u u u u u u u u u u u u u ",
": : : : : : : : : : : : : : : : : $ f.~ V l j z b z c c j k k k j l l c b j k N Y g.f.q u u u u u u u u u u u u u u u u ",
": : : : : : : : : : : : : : : : :   i.c.Y V z j j l c j k k v v l j j l k c m P ` g.%.u u u u u u u u u u u u u u u u u ",
": : : : : : : : : : : : : : : : : : &.f.g.Y V l k j j c l l j j l l v j c V P ~ f.8.t u u u u u u u u u u u u u u u u u ",
": : : : : : : : : : : : : : : : : : : @.f.z.W Z V v j j j j j l j l v M A Y g.c.( V.u u u u u u u u u u u u u u u u u u ",
": : : : : 2 : : : : : : : : : : : : :   :.g.c.f.W Z V N M M m M M V Z Y ~ c.g.e.5 u u u u u u u u u u u u u u u u u u u ",
": : : : : : : : : : : : : : : : : : > :   >.q.g.h.g.` Q U T Y Y Q ) f.f.c.g.e.3 u u u u u u u u u u u u u u u u u u u u ",
": : : : : : : : : : : : : : : : : : : : : : @ 8.q.f.g.g.h.g.c.g.h.g.g.f.s.,.t u u u u u u u u u u u u u u u u u u u u u ",
": : : : : : : : : : : : : : : : : : : : : : : : . ..9.q.f.f.q.k.q.s.3.# ; u u u u u u u u u u u u u u u u u u u u u u u ",
": : : : : : : : : : : : : : : : : : : : : : : : > : : : , X - 9 2 u u u p u u u u u u u u u u u u u u u u u u u u u u u ",
": : : : : : : : : : : : : : : : : : : : : : : : : : : : 1 < 2 y u u u u u u u u u u u u u u u u u u u u u u u u u u u u "
};
