/* XPM */
static char *_c5494d9923a46509ac5f1669eef07d4gqDhrJhsmz3CVKqT[] = {
/* columns rows colors chars-per-pixel */
"60 60 179 2 ",
"   c #7EB22C",
".  c #76A939",
"X  c #69945C",
"o  c #74A54A",
"O  c #789F68",
"+  c #759B78",
"@  c #679676",
"#  c #71A06A",
"$  c #7CAF7D",
"%  c #7EA578",
"&  c #7FB07A",
"*  c #7FB375",
"=  c #80B52F",
"-  c #82BC32",
";  c #83B739",
":  c #91BE3D",
">  c #8ECD36",
",  c #8ECD39",
"<  c #8BC734",
"1  c #90CC36",
"2  c #92CE38",
"3  c #92BE43",
"4  c #85AD55",
"5  c #85BE55",
"6  c #81A960",
"7  c #80B56F",
"8  c #83B966",
"9  c #8FBD7F",
"0  c #80B472",
"q  c #90BD7C",
"w  c #8AC549",
"e  c #99C644",
"r  c #9FD742",
"t  c #89C353",
"y  c #87C055",
"u  c #9BCC5A",
"i  c #A1D642",
"p  c #A6D845",
"a  c #A8DA45",
"s  c #A7D74E",
"d  c #A6DA4A",
"f  c #A0CC5D",
"g  c #A2D356",
"h  c #9CCB62",
"j  c #95C372",
"k  c #254696",
"l  c #264897",
"z  c #2B4A94",
"x  c #264698",
"c  c #26489A",
"v  c #2B4B9B",
"b  c #2A4690",
"n  c #2B4DA2",
"m  c #2C51A5",
"M  c #2E52A9",
"N  c #3352A4",
"B  c #3255AD",
"V  c #3A56A9",
"C  c #3A5EBA",
"Z  c #385AB3",
"A  c #43639E",
"S  c #4D6AAB",
"D  c #5B73AF",
"F  c #4365B9",
"G  c #466CBF",
"H  c #5A74B1",
"J  c #637AAC",
"K  c #385EC1",
"L  c #3E63C6",
"P  c #4266C5",
"I  c #486BC7",
"U  c #4569CA",
"Y  c #496DCE",
"T  c #476DD2",
"R  c #4C6ED9",
"E  c #496CD2",
"W  c #506FD9",
"Q  c #4C71D3",
"!  c #4D72DB",
"~  c #5273DD",
"^  c #567ADF",
"/  c #5B7DDC",
"(  c #5074D5",
")  c #617FDE",
"_  c #4F75E0",
"`  c #5377E2",
"'  c #557BE4",
"]  c #597DE4",
"[  c #567CEB",
"{  c #5A7EEC",
"}  c #577FF1",
"|  c #5A7CF5",
" . c #577AF9",
".. c #5A7CF8",
"X. c #607EF6",
"o. c #638E85",
"O. c #6B9581",
"+. c #688E97",
"@. c #648E9E",
"#. c #699394",
"$. c #739B94",
"%. c #79A687",
"&. c #75A597",
"*. c #7EA797",
"=. c #74A499",
"-. c #7FA99B",
";. c #658FA3",
":. c #6B92A4",
">. c #6F98AE",
",. c #6790A4",
"<. c #6980B6",
"1. c #638CB6",
"2. c #678DBB",
"3. c #6B84BC",
"4. c #6D95B8",
"5. c #769DBA",
"6. c #79A4A4",
"7. c #5F86C3",
"8. c #5C83D6",
"9. c #5D83DD",
"0. c #658CC5",
"q. c #6086CC",
"w. c #6285C7",
"e. c #6991C2",
"r. c #7096C7",
"t. c #7A91C8",
"y. c #648AD3",
"u. c #698ED5",
"i. c #6286DE",
"p. c #6389DB",
"a. c #6A8CDB",
"s. c #6287D5",
"d. c #5E84E3",
"f. c #5D83EC",
"g. c #5D83F2",
"h. c #6185E2",
"j. c #6887E2",
"k. c #6589E1",
"l. c #6183EF",
"z. c #718EEA",
"x. c #6086F3",
"c. c #6282F9",
"v. c #6E8AF8",
"b. c #708CF7",
"n. c #718DF8",
"m. c #7A93F7",
"M. c #8DB984",
"N. c #8BB58C",
"B. c #8DB785",
"V. c #82AB9D",
"C. c #86B193",
"Z. c #81ABA1",
"A. c #8FA3D6",
"S. c #92A7D4",
"D. c #8299E6",
"F. c #849BF9",
"G. c #8BA2F3",
"H. c #93A8F7",
"J. c #9AB3F1",
"K. c #A2B2E6",
"L. c #AFBFE1",
"P. c #A7BAE2",
"I. c #B2BFEA",
"U. c #A2B4F6",
"Y. c #A6BFFF",
"T. c #A3C0FC",
"R. c #B6C3F7",
"E. c #BBC6F6",
"W. c #C1CCEC",
"Q. c #CCD5ED",
"!. c #D1DEEF",
"~. c #C3CDF5",
"^. c #E1E5F0",
"/. c #E4E8F4",
"(. c #EDEEF3",
"). c #EFF0F4",
"_. c #EAF5FF",
"`. c #F3F3F3",
"'. c #F8F7F3",
/* pixels */
"a a a a a a a a a a a a a a a a p a a a a a a a a a a e e 3 ; - > > > > > > > 2 > > > > > > > > > > > > > > > > > > 2 > ",
"a a a a a a a a a a a a a a a a a a a a a a a : + 2.s.h.h.h.d.i.d.w.o.. < > > > > > > > > > > > > > > > > > > > > > > > ",
"a a a a a a a a a a a a a a a a a a a a a i >.p.9.[ f.g.x.g.x.l.f.d.d.9.7.# 2 > > > > > > > , > > > > > > > > > > > > > ",
"a a a a a a a a a a a a a a a a a a a a 4 e.d.g.g.d.^ Q U U U Y ( ' f.x.g.9.:.  > > > , > > > > > > > > > > > > > > > > ",
"a a a a a a a a a a a a a a a a a a a 6 0.x.l.^ Y C M M m n n M B B C E ] x.f.;.  > > > > > > > > > > > > > > > > > > > ",
"a a a a a a a a a a a a a a a a a a %.w.l.f.E Z m c x l l l x l x x c B C Q l.f.#.> > > > > > > > > > > > > > > > > > > ",
"a a a a a a a a a a a a p a a a a p q.x.] P M c x k l k k k k x x x k k c B U f.d.%.> > > > > > > > > > > > > > > > > > ",
"a a a a a a a a a a a a a a a a a %.f.] P n k k k k k k l l x x b l k k k z B Y g.y.  > > > > > > > > > > > > > > > > > ",
"a a a a a a a a a a a a a a a a e d.f.Q M x b v v l k k l l l x x c c v z z x B ~ d.@ > 1 > > > > > > > > > > > > > > > ",
"a a a a a a a a a a a a p a a a O f.f.C x k z 3.S z k k k l c x x x v H <.b k n L f.y.2 > > 1 > > > > > > > > > > > > > ",
"a a a a a a a a a a a a a a a a +.f.' m k b D !.t.v l l x x x x l k N S.Q.J b b B ] s.. > > > > > > > > > > > > > > > > ",
"a a a a a a a a a a a a a a a a 1.g.' M l S P._.t.N m n n n n n v n V A._.L.S v Z ' 8.X > > > 1 > > > > > > > > > > > > ",
"a a a a a a a a a a a a a a a a 7.] ' G F 4.J.T.j.I U U P U P U L U T z.Y.J.a.F I / 8.@ > > > 1 > > > > > > > > > > > > ",
"a a a a a a a a a a a a a a a a + ;.:.$.$.2.{ ] f.f.l.f.g.f.f.f.f.f.g.x.[ d.1.@.;.@.#.o > > < < > > > > > > > > > > > > ",
"a a a a a a a a a a a a a a a a a a p a a % [ _ ` f.[ f.{ { f.{ [ R ` g.] ^ & > > > < > > > > > > > > > > > > > > > > > ",
"a a a a a a a a a a a a a a a a a a a a a *.' K T ' | } g.{ { } ` L T c.` W &.> > > > > > > > > > > > > > > > > > > > > ",
"a a a a a a a a a a a a a a a a a a a a p V.' ~ ` { | { [ } | { | ` ' g.` ` &.> > > > > > > 1 > > > > > > > > > > > > > ",
"a a a a a a a a a a a a a a a a a a a a p V....... .........................&.> 2 > > > > > > > > > > > > > > 2 > > > > ",
"a a a a a a a a a a p a a a a a a a a a a Z.................................=.2 > > > > > > > > > > > > > > > > > > > > ",
"a a a a a a a a a a a a a a a a a a a s C.j..... ..................... .....i.%., > > > > > > > > > > > > > > > > > > > ",
"a a a a a a a a a a a a a a a a a a a C.| X.{ [ X.....................X.{ { X.} %.> > > > > > > > > 2 > > > > > > > > > ",
"a a a a a a a a a a a a a a a a a a h k.c.G./ R D.m. ............. .m.D.W / G.c.d.5 > > > > > > > > > > > > > > > > > > ",
"a a a a a a a a a a a a a a a a a a q ..H.Q.) R K.~.X.............X.~.K.R ) Q.H...* > > > > > > > > > > > > > > > > > > ",
"a a a a a a a a a a a a a a a a a a M. .E.`.W.I.^.^.v........... .v./.^.I.W.`.R. .& > > > > > > > > > > > > > > > > > > ",
"a a a a a a a a a a a a a a a a a p q ..F.(.'.'.'.E.X....... .....c.E.'.'.'.(.G...* > > > , > > > > > > > > > 2 > > > > ",
"a a a a a a a a a a a a a a a a a a f a.X.U./.(.~.n. ...............v.~.)./.U.X.y.t > > > 2 > > > > > > > > > > > > > > ",
"a a a a a a a a a a a a a a a a a a a B.l...m.F.c................... .x.F.m. .f.& > > > > > > > > > > > > > > > > > > > ",
"a a a a a a a a a a a a a a a a p a a a q u. . ......................... ...y.7 > > > > > > > > > > > > > > > > > > > > ",
"a a a a a a a p p p a a a a p p a a a a a Z.................................&.> > > > > > > < > > > < > > > > > > > < > ",
"p p p p p p p p p p p p p p p p p p p p p V.................................&.2 > 2 2 2 2 > 2 2 2 2 2 > 2 2 > > 2 > 2 2 ",
"2 2 1 2 2 1 1 2 2 2 2 2 2 2 2 2 2 2 2 > 2 &.........X.......................6.a p p a p p p p p a p p p p p a p p p a a ",
"> > > > > > > > > > < > > > > > > > > > > =.................................-.a a a a a a a a a a a a a a a a a a a a a ",
"> > > > > > > > > > > > > > > > > > > > > &.................................V.a a a a a a a a a a a a a a a a a a a a a ",
"> > > > > > > > > > > > > > > > > > > > 2 &.................................V.a a a a a a a a a a a a a a a a a a a a a ",
"> > > > > > > > > > > > > > > > > > > > > &.g...............................V.a a a a a a a a a a a a a a a a a a a a a ",
"> > > > > > > > > > > > > > > > > > > > > &. ....... .......................V.a a a a a a a a a a a a a a a a a a a a a ",
"> > > > > > > > > > > > > > > > > > > > > =.................................V.a a a a a a a a a a a a a a a a a a a a a ",
"> > > > > > > > > > > > > > > 2 > > > > > =.................................V.a a a a a a a a a a a a a a a a a a a a a ",
"> > > > > > > > > > > > > > > > > > > > > &.................g...............V.a a a a a a a a a a a a a a a a a a a a a ",
"> > > > > > > > > > > > > > > > > > > > > &................. ...............V.a a a a a a a a a a a a a a a a a a a a a ",
"> > > > > > > > > > > > > > > > > > > > > &....... .........................V.a a a a a a a a a a a a a a a a a a a a a ",
"> > > > > > > > > > > > > > > > > > > > > &.......| | ......................V.a a a a a a a a a a a a a a a a a a a a a ",
"> > > > > > > > > > > > > > > > > > > > > &.g. .............................V.a a a a a a a a a a a a a a a a a a a a a ",
"> > > > > > > > > > > > > > > > > > > > > &. ...............................V.a a a a a a a a a a a a a a a a a a a a a ",
"> > > > > > > > > > > > > > > > > 2 > > > &.................................V.a a a a a a a a a a a a a a a a a a a a a ",
"> > > > > > > > 2 > > > > > > > > > > > > & ............................ .g.B.a a a a a a a a a a a a a a a a a a a a a ",
"> > > > > > > > > > > > > > > > > > > > > t d...........................g.h.u a a a a a a a a a a a a a a a a a a a a a ",
"> > > > > > > > > > > > > > > > > > > > > > =........................... .6.a a a a a a a a a a a a a a a a a a a a a a ",
"> > > > > > > > > > > > > > > > > , > > > 2 t y.........................u.h a a a a a a a a a a a a a a a a a a a a a a ",
"> > > 2 > > > > > > > > > > > > > , > > > > 2 8 p. ...................a.j a a a a a a a a a a a a a a a a a a a a a a a ",
"> > > > > > > > > > > > > > > > > > > > > > > > 8 e.g...............r.j a a a a a a a a a a a a a a a a a a a a a a a a ",
"> > > > > > > > > > > > > > > > > > > > > 2 > > > w $ 4.s.d.h.a.5.B.g a a a a a a a a a a a a a a a a a a a a a a a a a ",
"> > > > > > > > > > > > > > > > , > > > > > > > > > > , w w u g s a a a a a a a a a a a a a a a a a a a a a a a a a a a ",
"> > > > > > > > > > > > > > > > > > > > > > > > > > > > > > r a a a a a a a a a a a a a a a a a a a a a a a a a a a a a ",
"> > > > > 2 > > > > > > > > > > > > 2 > > > > > > > > > > > p a a a a a a a a a a a a a a a a a a a a a a a a a a a a a ",
"> > > > > > > > > > > > > > > > > > > > > > > > > > > > > < r a a a a a a a a a a a a a a a a a a a a a a a a a a a a a ",
"> > > > > > > > > > > > > > > > > > > > > > > > > > > > > > 2 a a a a a a a a a a a a a a a a a a a a a a a a a a a a a ",
"> > > > > > > > > > > > > > > > > > > > > > > > > > > > > > p a a a a a a a a a a a a a a a a a a a a a a a a a a a a a ",
"2 > > > > > > > > > > > > > > > > > > > > > > > > 2 > > > > r a a a a a a a a a a a a a a a a a a a a a a a a a a a a a ",
"> > > > > > > > 2 > > > > > > > > > > > > > > > > > > > > > r d a a a a a a a a a a a a a a a a a a a a a a a a d a a a "
};
