/* XPM */
static char *e659d32811f546d8a0d2737265b2b885QVQBzwSQzQZcjHff[] = {
/* columns rows colors chars-per-pixel */
"60 60 209 2 ",
"   c #7CB46B",
".  c #77AD77",
"X  c #7CB278",
"o  c #8DCE2D",
"O  c #91CE2C",
"+  c #8ED12C",
"@  c #8ECD36",
"#  c #8DCD3A",
"$  c #86C536",
"%  c #91CC35",
"&  c #93CC39",
"*  c #8ED034",
"=  c #8DD13A",
"-  c #94D235",
";  c #9AD035",
":  c #9CD13E",
">  c #91D03B",
",  c #A9DC37",
"<  c #A4D73D",
"1  c #A5DC3B",
"2  c #A9DC3D",
"3  c #A6DD37",
"4  c #87BF68",
"5  c #8ABF6F",
"6  c #84BA7A",
"7  c #89BD7C",
"8  c #87BE74",
"9  c #8EC643",
"0  c #8ECB43",
"q  c #8CC64C",
"w  c #8ECB4B",
"e  c #92CC44",
"r  c #92C848",
"t  c #9CD347",
"y  c #90D044",
"u  c #8BC753",
"i  c #8DC955",
"p  c #8BC65E",
"a  c #8EC95B",
"s  c #87C558",
"d  c #91C85E",
"f  c #A5D743",
"g  c #A9D741",
"h  c #A5DA44",
"j  c #A8DA45",
"k  c #A4D74F",
"l  c #AAD74C",
"z  c #A6DA4A",
"x  c #A8D94A",
"c  c #A4D655",
"v  c #A9D752",
"b  c #A4DA52",
"n  c #A9D952",
"m  c #A5D75B",
"M  c #A6DA5D",
"N  c #85C163",
"B  c #8BC562",
"V  c #8AC26B",
"C  c #8BC860",
"Z  c #91C463",
"A  c #91C966",
"S  c #9CD16E",
"D  c #8DC278",
"F  c #95C67E",
"G  c #9BCD7D",
"H  c #93C878",
"J  c #9FD478",
"K  c #A3D565",
"L  c #A4D963",
"P  c #A2D46D",
"I  c #A6DD68",
"U  c #A4D271",
"Y  c #A4D278",
"T  c #A7D87F",
"R  c #5E6DBE",
"E  c #5F7EBF",
"W  c #636ABB",
"Q  c #596BC9",
"!  c #5B7ECA",
"~  c #577DD7",
"^  c #5C7CDD",
"/  c #597BD6",
"(  c #6177CD",
")  c #727ACD",
"_  c #697ADB",
"`  c #6579DA",
"'  c #5771E2",
"]  c #567DE4",
"[  c #5B7CE3",
"{  c #5A74EB",
"}  c #557AEE",
"|  c #5B7CEC",
" . c #5B77E8",
".. c #5977F4",
"X. c #567DF5",
"o. c #5B7CF5",
"O. c #5676FB",
"+. c #567CFB",
"@. c #5B7CFA",
"#. c #5F77FB",
"$. c #657BE6",
"%. c #617BF5",
"&. c #627BFB",
"*. c #5E819F",
"=. c #68948E",
"-. c #638698",
";. c #6C9B9C",
":. c #6E9B94",
">. c #759899",
",. c #76A78A",
"<. c #7BA78A",
"1. c #75A98B",
"2. c #78A98C",
"3. c #79AC85",
"4. c #7EB18C",
"5. c #7DAC93",
"6. c #7EAA9E",
"7. c #78A597",
"8. c #5B82A9",
"9. c #5A80BF",
"0. c #6684A6",
"q. c #6D95AA",
"w. c #6C9CAA",
"e. c #6994A7",
"r. c #729AA7",
"t. c #658BB5",
"y. c #6287BB",
"u. c #6C84BB",
"i. c #628BBC",
"p. c #6D8DB7",
"a. c #6692BB",
"s. c #6992B8",
"d. c #7698BD",
"f. c #6EA0A9",
"g. c #77A3A9",
"h. c #7AA4A9",
"j. c #7DB1A5",
"k. c #7AA1B4",
"l. c #5C83C5",
"z. c #5D82CE",
"x. c #5786CC",
"c. c #5D83D2",
"v. c #5E81DB",
"b. c #5684D1",
"n. c #6186C5",
"m. c #628BC3",
"M. c #6285CD",
"N. c #6F88CA",
"B. c #6E92C4",
"V. c #6282D3",
"C. c #6883DD",
"Z. c #7280D9",
"A. c #7F94D7",
"S. c #5E80E6",
"D. c #5B80ED",
"F. c #5681E9",
"G. c #5681F4",
"H. c #5A81F3",
"J. c #5E81FC",
"K. c #6080E7",
"L. c #6C86E5",
"P. c #6080EF",
"I. c #7B96EA",
"U. c #7F9AF3",
"Y. c #7A8BE5",
"T. c #80AD86",
"R. c #8DB98D",
"E. c #86B784",
"W. c #97BF83",
"Q. c #84AE93",
"!. c #86AE96",
"~. c #82B194",
"^. c #8CB39D",
"/. c #90B796",
"(. c #83AEA7",
"). c #88B3A1",
"_. c #8FC184",
"`. c #93C283",
"'. c #99CD83",
"]. c #9ED186",
"[. c #9FD38B",
"{. c #92C092",
"}. c #A1CE8D",
"|. c #89A4CF",
" X c #8DA9D9",
".X c #92AED6",
"XX c #8698EA",
"oX c #8699F8",
"OX c #99AFE8",
"+X c #9CB5E7",
"@X c #9BB5E8",
"#X c #8AA3FA",
"$X c #AEBFF7",
"%X c #B0B6EF",
"&X c #AEC8EB",
"*X c #ACC6FA",
"=X c #B4CAFE",
"-X c #B9CBFF",
";X c #B8C5FF",
":X c #BAD0FF",
">X c #C0C6FF",
",X c #D4EDFF",
"<X c #D9E5FF",
"1X c #DCF2FF",
"2X c #DFF8FF",
"3X c #E5FDFF",
"4X c #EDFDFF",
"5X c #E8F3FF",
"6X c #F2FCFF",
/* pixels */
"j j j j j j j j j j j j j j j j h 2 2 2 j g j j x h h h b b * + # @ @ * + @ $ 0 0 @ + + 0 0 @ + @ @ @ @ @ @ @ @ @ @ @ @ ",
"j j z j j j j j j j z j j j j j 2 j j g 2 g x j x h z z b z - * @ @ @ @ * @ = = # # * @ # 0 @ @ @ @ @ @ @ @ @ @ # @ @ @ ",
"j j j j j j j j j j j j j j j h j j j j 2 2 x l j j z n z z - * 0 0 0 @ @ o + o = # @ @ @ @ # @ @ % @ @ @ @ @ @ @ @ @ @ ",
"j j j j j j z j j j j j j j j j j j x j 2 2 x l 2 j x x j 2 ; + & # # # @ + + + $ # # @ @ @ & # @ @ @ @ @ @ @ & @ @ @ @ ",
"j j j j j j j j j j j z j j j j l n z j j g g g j 2 j 2 2 1 ; - O o @ & # @ @ # * * @ o @ @ @ @ @ & @ @ @ @ @ @ @ & @ @ ",
"j z j j j j j j j j j j j j j z n n z z j j g 2 g j j j h h : - O @ @ 0 @ @ # # @ @ @ @ @ @ @ + @ @ @ @ @ @ @ @ @ @ @ @ ",
"j j j j j j j z j j j j j j j j h h z z x j j 2 2 g z b k b e 0 # @ # # @ @ # # # # # @ + @ o @ @ @ @ @ @ @ @ @ @ @ # @ ",
"j j j j j j j j j j j z j j j h h h h z x j j j l v U G ].].D 8 V B u 0 @ @ # # 0 # @ @ o + % @ @ @ @ # @ @ @ @ @ @ @ @ ",
"j j j j h j j z j j j j j j j h 1 2 f j x j h z I G ^.g.p.i.t.s.r.5.8 i @ + * # 0 & O % @ @ @ @ @ @ @ @ @ @ @ # @ @ @ @ ",
"j j j z j j j j j j j j j j j j , 2 f x x z n S W.7.t.z.| H.D.v.c.t.:.X u @ @ # e # % O @ @ @ @ @ @ @ @ @ @ @ @ @ @ @ @ ",
"j j j j j j j z j z j j j j j g , 2 z b z b K _.q.( / ] D.G.+.X.| ^ ! w.X u # + 0 0 @ @ @ # @ @ # @ @ @ @ @ & @ @ & @ @ ",
"j j j j j j j j j j j j j j j g 2 2 n n z L _.;./ o.J.J.G.X.+.+.@.&.| / r.6 w @ # 0 & & @ @ @ @ @ # @ @ @ @ @ @ @ # @ @ ",
"j j j j j j j j j j j j j j j x l l l x z S h.z.P.@.O.+.X.X.+.+.+.@.O.} V.h.N = # # & & % % @ @ @ @ @ @ @ @ @ @ @ @ @ @ ",
"j h j j j z j j j j j j j j j j l l l j z H B.X.@.@.O.@.X.@.o.+.X.X.@.@.o.a.  0 # # # # % % @ @ @ @ @ @ @ @ @ @ @ @ @ @ ",
"z j j j j j j j j j j z j j j j j x x k c 7 M.@.+.o.@.J.@.#.@.o.X.X.@.&.@.n.. w # # & % % @ % % & @ @ @ @ @ @ @ @ @ @ @ ",
"j j j j j j j j j j h j j j z h 2 2 x b m E.! &.@.o.o.o.#.&.@.o.X.G.J.O.O.M.. u 9 & % @ % % @ % @ @ @ @ @ @ # @ @ @ @ @ ",
"j j j j 2 j j 2 j g j j 2 j j 2 j h j n P T.c.@.X.o.@.@.&.@.@.o.+.H.@.@.@.z.3.p 0 % % & % % % @ @ & @ @ @ @ @ @ @ @ @ @ ",
"j j j j j j j j j 2 j j j j j j j h j n P Q.c.@.+.G.@.@.@.o.o.@.@.X.X.@.@.z.2.B 0 % & % % @ @ @ @ @ # @ @ @ @ @ @ @ @ @ ",
"j 2 j 2 j j h j j j j 2 j j j j h h j l U ~.z.@.X.o.@.@.@.o.@.X.+.J.o.@.o.z.2.B 9 % & @ @ @ @ * @ @ @ @ @ @ @ @ @ @ * @ ",
"j j j j 2 j 2 h j 2 j j j 2 h h j h j n U Q.z.@.+.G.@.O.o.o.+.+.@.@.o.o.@.z.,.B 0 @ & % @ @ * * @ @ @ @ @ @ @ @ @ @ * $ ",
"2 j h h h h j h j j h h h h h z j 2 j n U !.c.@.@.o.O.@.&.@.+.o.@.@.o.J.+.z.1.B 0 @ # % % @ $ * @ # % @ @ & # % @ & @ % ",
"j j j h h h z h j j h j j h j h j g j n U !.( o.H.@.@.&.o.o.o.+.@.@.X.@.@.b.1.C 0 @ & @ @ @ # @ @ & % % @ & % % @ @ @ % ",
"h h j z h h h h h h h h h h j j j g j n P !.( @.@.o.O.@.o.@.+.o.@.@.o.@.@.z.,.C 0 @ @ % @ @ @ @ @ @ # @ @ @ @ @ @ @ @ @ ",
"j h h h j j j z j h h h j j j j j g j n U !.M.o.o.X.#.&.@.o.X.+.@.@.o.o.@.z.1.B 0 @ & @ @ @ @ @ @ @ @ @ @ @ @ @ @ @ @ @ ",
"j j j j j j x j j j x j j x j x j g j n U Q.z.@.@.G.@.@.&.o.+.+.X.+.+.@.o.z.1.B 0 @ & % @ @ @ @ @ @ * * = $ * * @ @ @ # ",
"j j j j j j j j j j g j j j f j j g g v P Q.z.@.o.o.@.@.@.@.+.o.X.@.o.@.#.z.1.B 0 % & % @ @ @ @ # @ * * # # * * @ @ # * ",
"j j j j j j x x j j j j j j j j x j j v U Q.c.@.G.G.O.@.@.o.o.+.@.J.o.J.o.M.2.B 9 @ % % @ @ % @ # @ # $ $ # $ * @ @ @ @ ",
"j h j j x j j 2 h h j h j j j j h h g b P Q.z.+.+.X.@.@.@.o.@.o.+.@.o.o.+.! 2.N 0 % & % % % & % * @ * @ * @ = * # @ @ % ",
"z z j z j z z z z j z z z j z x h h h z P ~.c.@.+.o.@.@.o.o.+.o.@.@.X.@.X.z.,.B 9 % % % % % % % % $ @ @ @ % @ @ @ @ @ % ",
"h h h j h h h h h j h h h h h j < h t z S 5.c.+.X.@.@.@.&.o.o.+.+.J.X.@.+.z.1.A r % & ; & % % % ; ; % & > % ; % - - & & ",
"> % & & % & - - & & % % & > & % % % - e p 1.! X.+.G.#.O.o.@.+.o.@.@.o.o...M.4.S k h l f h h t h f f h t f h f f h h t h ",
"% @ % % % @ @ = % % % @ % @ % % % % % w D g.v.J.X.G.@.@.@.o.@.+.@.@.+.o.o.` (.[.S n k f j j z j z z h z h z j z z h h z ",
"@ @ % @ & @ @ @ & @ # @ & @ & @ % & r N j.m.b.} o.@.+.+.+.+.O.@.@.+.&.&.` ( d.^.G L v l g g l x j j j j z j z j j j j j ",
"@ @ @ @ @ @ @ @ @ @ @ @ @ @ @ @ & 9 s . e.l.I.oXL.| @.+.G.J.&.@.@.@.{ L.XXA.u.e.R.J M j j g j j z j j j j j j j j j j j ",
"@ @ @ @ @ @ @ & @ @ @ @ @ # @ @ @ u 6 =.t.+X,X5X;XXX ...J.+.o.X.o. .U.-X1X,X+XE :.`.M j g g x l j j j j j j j j j j j j ",
"@ @ @ @ @ @ @ @ @ @ @ @ @ @ @ @ @ a ~.-.|.,X4X5X6X;X_ %.o.X.} H.o.[ *X3X3X3X5X X-.R.M j j j j j j j j j j j j j j z j j ",
"@ @ @ @ @ @ @ @ @ @ @ @ @ @ @ @ @ B j.-.&X6X>X%X<X<XY.%.| X.G.@.| I.,X,X$X*X1X*X0.^.I x j g 2 2 h j j j j j j j j j j j ",
"& @ @ @ @ @ @ @ @ @ @ @ % @ @ @ * a 5.E .X:X) W %X;XZ.%.o.+.+.o.| L.=X@XQ _ >XOX0./.K j j j 3 2 h j j j z j j j j j j j ",
"@ @ @ @ @ @ @ @ @ @ @ @ @ @ @ @ o 0 7 =.B.#X` Q I.U.' O.O.@.+.H...' oXoXQ _ #XN.>.W.n 1 2 2 j j j j j j j j j j j j j z ",
"@ @ @ @ @ @ @ # % # @ @ @ @ @ @ > $ C 3.8.C.[ ] [ | @.+.@.@.@.o.&.&.{ $._ $._ u.!.U x 1 2 h z z z j j j j j j j j j j j ",
"@ @ @ @ @ # @ @ @ @ @ @ @ & @ @ % $ r N 7.a.v.} G.+.@.O.@.o.o.o.@.@.o.| o.` p.^.Y v z j j j l z z j j j j j j j j j j j ",
"@ @ @ @ & @ @ @ @ @ @ @ @ @ @ @ & % > i E.g.b.G.G.+.+.O.H.| o.o.O.@.H.H.@.$.h.}.m j j x x j l l j j j j j j j z j j j z ",
"@ @ @ @ @ @ @ @ @ @ @ @ @ # @ @ % % # r V 7.l.H.+.+.+.o.o.o.o.o.@.J.G.G.@.c.!.].v 2 j z h j x x z j j z j j j j j j j h ",
"@ @ @ @ @ @ @ @ @ @ @ @ @ @ @ @ $ & & r A 2.9.| +.@.#.%.%.&.o.o.@.+.} G.X.z.5.P l 2 g j 1 1 g j j j j j j j j j j j j j ",
"# @ @ @ @ @ @ @ @ @ # @ @ @ @ @ * * > # Z <.l.H.| o.%.%.%.&.o.@.+.@.X.G.X.z.~.P n j h 1 1 2 2 x j j j j j j j j j j j j ",
"@ @ @ @ @ @ # @ @ @ @ @ @ @ @ @ $ * - # d T.n.| | H.%.&.&.@.O.@.O.&.G.G.} n.R.L n j j h 1 1 h h j j j j j j j j j z j j ",
"@ @ @ & @ @ @ @ @ @ @ @ @ @ @ @ $ + @ @ r 6 s.~ } X.#.o.@.@.@.O.@.&.o.o.[ a.}.n j j j z h h z x j j j j h j j j j j j j ",
"@ @ @ @ @ @ @ & @ @ @ @ @ @ @ # * @ o @ # V f.x.F.o.o.@.@.@.+.+.&.&.} S.M.h.P j 2 g h z z h z z z j j j j z z j j j j j ",
"@ @ @ @ @ @ & = @ & @ @ @ @ @ # # # + + * a 4.w.l.F.G.@.+.+.X.J.#.%.K.l.r.{.L j j j j x h 1 2 h j j j z j j j j j j j j ",
"@ @ @ @ @ # @ @ @ @ @ @ @ @ @ @ # = o o @ w 4 4.e.x.~ } +.J.o.| $./ ( q./.U n h g j x j j j h h j j j j j j j j j j j j ",
"@ @ @ @ @ @ @ @ @ # @ @ @ @ @ @ * @ @ @ # 0 q V . ;.9.v.D.@.%.D.` t.7._.S M n z z j j x j j h 1 j j j j j z j j z j j j ",
"@ # @ @ @ @ @ @ @ @ @ @ @ @ @ @ * o @ @ # @ @ y p D 5.w.t.t.t.t.k.).F L b z n z j j j j x x h h j j j j j j j j j j j j ",
"@ @ @ @ @ @ @ @ # @ @ @ @ @ @ @ @ o % % & % @ # # w a B 4 5 F [.'.J L b h z z h , , 2 z n n z h z j j j j j j j j j j j ",
"@ @ @ @ @ @ @ @ @ @ @ @ @ @ @ @ @ @ o % % % @ % > % @ @ @ @ t t b z h h z z j j , , 2 j b x z z j j j j j j j j j z j j ",
"@ @ @ @ @ @ @ @ @ @ @ @ @ @ @ @ # # O o O O % O @ $ o O % & f z 3 3 h z z j 2 2 2 j j x x x j h j j j j j j j j j j j j ",
"# @ @ @ & @ @ @ @ @ @ & @ @ @ # 9 # % O O O O % @ @ % % O % : h 3 1 h z j j j 2 j x x j j j h h j j j j j z j j j h j j ",
"@ @ @ @ @ @ @ @ @ @ @ @ @ @ @ @ @ # @ @ @ o @ @ # # 0 # & % < 2 h h h j j j 2 x x n x j 2 2 h 2 j j j j j z j j j j j j ",
"@ @ @ @ @ @ @ @ @ # @ @ # @ @ = # # # @ @ @ @ # # 0 0 # & % < , h z z j j j j x x n j j j 2 2 j h j j j j j j j j j j j ",
"@ & @ @ @ @ @ @ @ @ @ & @ @ @ @ = = # # = # # = # # # # & % t h 2 h j z x x x j j j 2 2 2 j j x j j j j j j j j j j j j ",
"@ # @ @ @ @ @ @ @ @ @ @ @ @ @ # $ = # # # # # 0 # # @ $ % @ h z j h j n z n x j j 2 , 2 2 2 x j z j j j j j j j j j j z "
};
