/* XPM */
static char *f33b58b221c74ed9d7104558fd67b1368Rwl3scdFIQUc5br[] = {
/* columns rows colors chars-per-pixel */
"60 60 177 2 ",
"   c #7EB433",
".  c #6C975F",
"X  c #74A54C",
"o  c #71A157",
"O  c #65916E",
"+  c #689671",
"@  c #709E7A",
"#  c #769B65",
"$  c #7CAF7D",
"%  c #7FB07A",
"&  c #7FB375",
"*  c #84BD35",
"=  c #93BD3F",
"-  c #8ECD36",
";  c #8ECD39",
":  c #8AC535",
">  c #90CC36",
",  c #92CE38",
"<  c #98C33D",
"1  c #96D13B",
"2  c #85AD4A",
"3  c #8FBD43",
"4  c #91BC43",
"5  c #86AE56",
"6  c #85BE55",
"7  c #83B966",
"8  c #81A774",
"9  c #81B572",
"0  c #8FBD7D",
"q  c #91BE7C",
"w  c #8AC649",
"e  c #9DCB44",
"r  c #88C253",
"t  c #87C055",
"y  c #9ECD5D",
"u  c #A0D642",
"i  c #A6D945",
"p  c #A8DA45",
"a  c #A7D74E",
"s  c #A6DA49",
"d  c #A2D356",
"f  c #9CCB62",
"g  c #95C372",
"h  c #254696",
"j  c #294694",
"k  c #264897",
"l  c #2B4A94",
"z  c #264698",
"x  c #26499A",
"c  c #2C4B9B",
"v  c #2B4DA1",
"b  c #2D50A5",
"n  c #2F52AA",
"m  c #3252A7",
"M  c #3255AC",
"N  c #3956A5",
"B  c #3B5EBA",
"V  c #375BB5",
"C  c #3F60A3",
"Z  c #4C69AD",
"A  c #5B74AD",
"S  c #4365BA",
"D  c #456BBE",
"F  c #5A74B1",
"G  c #657BAD",
"H  c #6A7FB6",
"J  c #375FC1",
"K  c #3F64C7",
"L  c #4366C5",
"P  c #4569CB",
"I  c #496DCC",
"U  c #4567C8",
"Y  c #466CD2",
"T  c #4B6ED3",
"R  c #4D6FDA",
"E  c #516FDF",
"W  c #4C71D3",
"Q  c #4E71DA",
"!  c #567BDF",
"~  c #5B7DDB",
"^  c #5176D9",
"/  c #627FDB",
"(  c #4F75E0",
")  c #5177E3",
"_  c #557BE4",
"`  c #597DE5",
"'  c #567CE9",
"]  c #597DED",
"[  c #5A7CF5",
"{  c #577AF8",
"}  c #5A7CF8",
"|  c #607EF6",
" . c #6C9789",
".. c #749B85",
"X. c #628C9B",
"o. c #6A9790",
"O. c #6F949A",
"+. c #739B9B",
"@. c #7AAA87",
"#. c #75A596",
"$. c #79A599",
"%. c #78A69C",
"&. c #5E84B5",
"*. c #6188A7",
"=. c #688AAF",
"-. c #6689AF",
";. c #6C91A3",
":. c #6E92AA",
">. c #6794A7",
",. c #7197AA",
"<. c #648BBF",
"1. c #6787B8",
"2. c #6E97B3",
"3. c #769DBA",
"4. c #79A4A4",
"5. c #5E85C4",
"6. c #5E84CB",
"7. c #5E84DC",
"8. c #6289C7",
"9. c #6991C2",
"0. c #7494C5",
"q. c #7991CD",
"w. c #6287D7",
"e. c #638AD3",
"r. c #698ED5",
"t. c #6286DD",
"y. c #648ADB",
"u. c #6B8DD9",
"i. c #5D83E3",
"p. c #5D83EC",
"a. c #5E83F2",
"s. c #6186E4",
"d. c #6887E2",
"f. c #6589E1",
"g. c #718EEA",
"h. c #6086F2",
"j. c #6382F9",
"k. c #6E8AF8",
"l. c #708CF7",
"z. c #728EF9",
"x. c #7992F7",
"c. c #7995F8",
"v. c #80A98B",
"b. c #8DB984",
"n. c #8BB58C",
"m. c #8DB785",
"M. c #82AB9D",
"N. c #86B193",
"B. c #82AAA1",
"V. c #8EA2D5",
"C. c #92A7D4",
"Z. c #8299E7",
"A. c #849CF8",
"S. c #8CA2F3",
"D. c #93A8F7",
"F. c #92A7F6",
"G. c #9AB4F2",
"H. c #A2B2E6",
"J. c #A6B9E3",
"K. c #B2BFEA",
"L. c #A3B4F6",
"P. c #A5BFFC",
"I. c #B0C0E2",
"U. c #A4C0FF",
"Y. c #B6C3F7",
"T. c #BBC6F6",
"R. c #C2CCEC",
"E. c #CCD5EE",
"W. c #D1DEEF",
"Q. c #C4CDF5",
"!. c #E1E4F0",
"~. c #E4E8F4",
"^. c #EEEEF3",
"/. c #EFF0F4",
"(. c #EAF5FF",
"). c #F3F3F3",
"_. c #F9F7F3",
/* pixels */
"p p p p p p p p p p p p p p p p p p p p p p p p p p p p p p , > - - - - - - - - - - - - - - - - - - - - - - - - - - - - ",
"p p p p p p p p p p p p p p p p p p p p p p p p p p p p p p , - - - - - - - - - - - - - - - - - - - - - - - - - - - - - ",
"p p p p p p p p p p p p p p p p p p p p p p p p p p p p p p 1 > - - - - - - - - - , - - - - - - - - - - - - - , - - - - ",
"p p p p p p p p p p p p p p p p p p p p p p p p p p p p p p , - - - - - - - - - - - - - - - - - - - - - - - - - - - - - ",
"p p p p p p p p p p p p p p p p p p p p p p p p p p p p p p 1 > - - - - - - - - - - - - - - - - - - - - - - - - - - - - ",
"p p p p p p p p p p p p p p p p p p p p p p p p p p p p p p 1 - - - - - - - - - - - - - - - - - - - - - - - - - - - - - ",
"p p p p p p p p p p p p p p p p p p p p p p p p p p p p p p 1 - - - - - - - , - - - - - - - - - - - - - - - - - - - - - ",
"p p p p p p p p p p p p p p p p p p p p p p p p p p p p p p , - - - - - - - - - - - - - - - - - - - - - - - - - - - - - ",
"p p p p p p p p p p p p p p p p p p p p p p p p p p p p p p 1 - - - - - - - - - - - - - ; - - - - - - ; - - - - - - - - ",
"p p p p p p p p p p p p p p p p p p p p p p p p p p p p p p , - - - - - - - - - - - - - - - - - - - ; ; - - - - - - - - ",
"p p p p p p p p p p p p p p i p p p p p p p p p p p p p p p 1 > - - - - - - - - - - - - - - - - - - - - - - - - - - - - ",
"p p p p p p p p p p p p p p u p p p p p p p p p p p p p p p 1 - - - - - - - - - - - - - - - - - - - - - - - - - - - - - ",
"p p p p p p p p p p p p p i u i p p p p p p p p p p p p p p 1 - - - - - - - - - - - - - - - - - - - - - - - - - - - - - ",
"p p p p p p p p p p p p p p p p p p p p p p p p p p p p p p , - - - - - - - - - - - - - - - - - - - - - - - - - - - - - ",
"p p p p p p p p p p p p p p p p p p p p p p p p p p p p p p 1 - - - - - - - - - - - - - - - - - - - ; - - - - - - - - - ",
"p p p p p p p p p p p 4 # ..5 p p p p p p p p p p p p p p p 1 - - - - - - - - - - - - - - - - - - - - - - - - - - - - - ",
"p p p p p p p p < ..r.w.~ w.O.p p p p p p p p p i i p p p p , ; - - - - - - - - - - - - - - - - - - - - ; - - - - - - - ",
"p p p p p p p @.e.i.p._ _ ! ;.p p p p p i i p p p p p p p p 1 - - - - - - - - - - ; - - - - - - - - - - - - - - - - - - ",
"p p p p p < +.s.p.! K M V U :.p p p p p p f q b.q y i i p p 1 - - - - - - - - - - - - - - - - - - > - - - - , - - - - - ",
"p p p p 4 :.i.p.I M c j c S O.p p p p a N.d.[ [ [ u.m.s p p , - - - - - - - - - - - - - - - - - - > - - - - - - - - - - ",
"p p p p ,.p.p.I M z h j Z u.2.p p p p N.[ j.F.Y.A.| s.q p p 1 - - - - - - - - - - - , - - - - - - - - - - - - > - - - - ",
"p p p 8 t.h.W M h h l G I.G.7.<.-.=.B.d.| S.E.)./.L.} r.B.B.$.#.#.#.#.#.#.#.#.#.#.#.#.#.#.% t ; > - - ; - ; - - - - - - ",
"p p i 8.p.` B x h l H E.(.U.p.' _ _ } { ] ~ / R._.~.x.{ } } } } } } } } } } } } } } } } [ a.t.4.r - - - > > - - - - - - ",
"p p 2 w.h.T m h h l A C.V.g.a.a.a.a.} } ] E R K._.).A.{ } } } } } } } } } } } } } } } } { { } } r.7 - - - - - - - - - - ",
"p p  .i.p.B c h h x c N N T p.( Y ' } { | Z.H.!._.Q.j.} } } } } } } } } } [ } } } } } } } } } } { y.7 - - - , - - - - - ",
"p p 8.p._ M z h z z h h v P p.Q K ) } } } x.Q.~.T.z.} } } } } } } } } } } } a.} } } } } } } } } } { 9.w - - , - - ; - - ",
"p p t.p.W M z z z z z z v U p.) ) [ } } } } | k.| } } } } } } } } } } } } } } } } } } } } } } } } [ [ % ; - - - - - - - ",
"p e s.a.I b h x z z z z v U p.] a.[ } } } { } } } } } } } } } | } } } } } } } } } } } } } } } } [ } } 2.; - - - - - - - ",
"p 4 i.p.P v z z z z z z v K p.p.' ' } { } } } } } } } } } } } } } } } } } [ } } } } } } } } } } } } { y.w ; - - ; - - - ",
"p w s.a.I v z z h h x h v K p.p.] [ } } } } } } } } } } } } } } } } [ } } } } } } } } } } } } } } } } s.w ; > - > > > > ",
"> * i.a.P b h h h x x h b U a.p.] p.a.{ } } } } } } } } } } } } } } } } } } } } } } } } } } } } } } } s.y u p p p i p p ",
"- * 7.a.Q b k k h x h h b U p.p.[ [ } { } } } { } } } } } } } } } } } } } } } } } } } } } } } } } { } y.d p p p p p p p ",
"- > w.p.! n h h h k j h v U h.` ] [ [ } } } { { { } } } } } } } } } } } } } } } } } } } } } } } } } { 3.a s p p p p p p ",
"- - -.i.i.V x x h x l c m I h.` ' ] { } } { | k.j.{ } } } } } } } } } } } } } } } } } } } } } } } } a.n.s p p p p p p p ",
"- - O i.h.I v x k c Z 0.q.d.p._ Y ) } } } x.Q.~.T.z.} } } } } } } } } } } } } } } } } } } } } } } { 0.d p p p p p p p p ",
"- -   7.h.! V x h l 1.W.(.P.` E J ) } { | Z.H.!._.Q.j.{ } } } } } } } } } } } } } } } } } } } } a.y.g p p p p p p p p p ",
"- - - >.i.p.I n h h j A J.G.` ' ' _ { } ] E R K._.).A.} } } } } } } } } } } { } } } } } } } } [ r.g p p p p p p p p p p ",
"- - - : <.a.p.L v k h k C w.~ E [ [ } } ] ~ ~ R._.~.x.{ } } { { } } } } } } } } } } } { } h.d.4.f p p p p p p p p p p p ",
"- - - - X 5.a._ L n x h v S *.#.#.#.%.t.} F.E./.^.L.} e.$.#.M.M.M.M.M.M.M.M.M.M.M.M.M.M.M.m.f p p p p p p p p p p p p p ",
"- - - - - o 5.h.i.W B b n D  .> - > - @.] j.F.Y.S.} p.9 ; - u i p p p p p p p p p p p p p p p p p p p p p p p p p p p p ",
"- - - - - - @ 6.p.p.' _ _ _ X.- - - - ; @.i.[ { a.6.% - - - u p p p p p p p p p p p p p p p p p p p p p p p p p p p p p ",
"- - - - - - - -  .i.i.p.p.` X.- - - - - - t & % & r - - - - u p p p p p p p p p p p p p p p p p p p p p p p p p p p p p ",
"- - - - - - - - - * . X.&.5.+ , , - - - - - - - ; ; - - - - u i p p p p p p p p p p p p p p p p p p p p p p p p p p p p ",
"- - - - - - - - - - - - - - - - - - - - - - - - , ; - - - - u i p p p p p p p p p p p p p p p p p p p p p p p p p p p p ",
"- - - - - - - - - - - , - - - - - - - - - - - - - - - - - - u i p p p p p p p p p p p p p p p p p p p p p p p p p p i p ",
"- - - - - - - - - - - - - - - - - - - - - - - - - - - - - - u i p p p p p p p p p p p p p p p p p p p p p p p p p p p p ",
"- - - - - - - - - - - - - - - - - - - - - - - - - - - - - - i p p p p p p p p p p p p p p p p p p p p p p p p p p p p p ",
"- - - - - - - - - - - - - - - - - - - - - - - - - - - - - - u p p p p p p p p p p p p p p p p p p p p p p p p p p p p p ",
"- - - - - - - - - - - - - - - - - - - - - - - - - - - - - - 1 p p p p p p p p p p p p p p p p p p p p p i p p p p p p p ",
"- - - - - - - - - - - - - - - - - - - - - - - - - - - - - - i p p p p p p p p p p p p p p p p p p p p p p p p p p p p p ",
"- - - - - - - - - - - - - - - - - - - - - - - - - - - - - - 1 p p p p p p p p p p p p p p p p p p p p p p p p p p p p p ",
"- - - - - - - - - - - - - - - ; - - - - - - - - - - - - - - u p p p p p p p p p p p p p p p p p p p p p p p p p p p p p ",
"- - - - - - - - - - - - - - - - - - - - - - - - - - - - - - u p p p p p p p p p p p p p p p p p p p p p p p p p p p p p ",
"- - - - - , - - - - - - - - - - - - - - - - - - - - - - - - u p p p p p p p p p p p p p p p p p p p p p p p p p p p p p ",
"- - - - - - - - - - - - - - - - - - - - - - - - - - - - - - u p p p p p p p p p p p p p p p p p p p p p p p p p p p p p ",
"- - - - - - - - - - - - - - - - - - - - - - - - - - - - - - u i p p p p p p p p p p p p p p p p p p p p p p p p p p p p ",
"- - - - - - - - - - - - - , - - - - - - - - - - - - - - - - 1 i p p p p p p p p p p p p p p p p p p p p p p p p p p p p ",
"- - - , - - - - - - - - - - - - - - - - - - - - - - - - - - i i p p p p p p p p p p p p p p p p p p p p p p p p p p p p ",
"- - - - - - - - - - - - - - - - - - - - - - - - - - - - - - i s p p p p p p p p p p p p p p p p p p p i p p p p p p p p ",
"- - - - - - - - - - - - - - - - - - - - - - - - - - - - - - i s p p p p p p p p p p p p p p p p p p p p p p p p p p p p "
};
