/* XPM */
static char *_9fdca5a664743b38d25233da6bf10bbF7bU06UmJVWv6VPT[] = {
/* columns rows colors chars-per-pixel */
"60 60 188 2 ",
"   c #7DB45B",
".  c #7FB555",
"X  c #7EB466",
"o  c #7BAC7C",
"O  c #7AAD74",
"+  c #7EB279",
"@  c #92D61D",
"#  c #90CE2F",
"$  c #8FD02A",
"%  c #91D22A",
"&  c #95D722",
"*  c #8CCC36",
"=  c #8ECC39",
"-  c #88C53C",
";  c #91CF35",
":  c #90CD39",
">  c #8ED032",
",  c #92D131",
"<  c #95D13D",
"1  c #99D630",
"2  c #ADDE3E",
"3  c #A5DC38",
"4  c #AEE13B",
"5  c #B3E534",
"6  c #B0E13A",
"7  c #87BF40",
"8  c #86BF4A",
"9  c #85BC5A",
"0  c #86B969",
"q  c #90BC6E",
"w  c #80B474",
"e  c #8CB875",
"r  c #92BD7E",
"t  c #91BD70",
"y  c #89C547",
"u  c #8CC941",
"i  c #8AC549",
"p  c #94CF41",
"a  c #88C251",
"s  c #96C459",
"d  c #9ECD5B",
"f  c #9CCC54",
"g  c #A1D545",
"h  c #AADB44",
"j  c #A6D64D",
"k  c #A8D749",
"l  c #A7D94A",
"z  c #A8D949",
"x  c #A5DA44",
"c  c #A2D254",
"v  c #A0D058",
"b  c #9BC966",
"n  c #95C263",
"m  c #93C274",
"M  c #26428C",
"N  c #264696",
"B  c #294795",
"V  c #274897",
"C  c #2B4A95",
"Z  c #264798",
"A  c #29469A",
"S  c #26499A",
"D  c #2B4B9A",
"F  c #324E98",
"G  c #35519A",
"H  c #2D4EA4",
"J  c #2D4FA9",
"K  c #2D50A6",
"L  c #2F53AB",
"P  c #3050A7",
"I  c #3253AB",
"U  c #3658AF",
"Y  c #3E5CA2",
"T  c #365AB4",
"R  c #3C5EBB",
"E  c #3C60BE",
"W  c #4665AB",
"Q  c #5773AB",
"!  c #4566BF",
"~  c #657CB2",
"^  c #3D5FC0",
"/  c #355DD4",
"(  c #3E63C2",
")  c #4265C5",
"_  c #4A6DCB",
"`  c #4469CD",
"'  c #4970CF",
"]  c #4F73C7",
"[  c #4A6ED4",
"{  c #4D72D3",
"}  c #4C71D9",
"|  c #5276DC",
" . c #557ADB",
".. c #5A7AD9",
"X. c #4E6DEA",
"o. c #4E70EE",
"O. c #567BE5",
"+. c #5B7EE5",
"@. c #567DEC",
"#. c #5A7EEC",
"$. c #4C6CFF",
"%. c #4F70F5",
"&. c #5576F7",
"*. c #577DF2",
"=. c #5C7CF4",
"-. c #5573FE",
";. c #5975FE",
":. c #5678FA",
">. c #5C7BF8",
",. c #617EF9",
"<. c #617EF3",
"1. c #6F9B83",
"2. c #6F9D9A",
"3. c #779F9F",
"4. c #7AAD84",
"5. c #77A48A",
"6. c #75A396",
"7. c #7DA594",
"8. c #73A39A",
"9. c #7CA79C",
"0. c #7DA89D",
"q. c #6D99A7",
"w. c #739DA9",
"e. c #688EB7",
"r. c #7289BB",
"t. c #6790BE",
"y. c #6B95BB",
"u. c #729ABC",
"i. c #7CA2AF",
"p. c #5D82D9",
"a. c #5C82D3",
"s. c #638BCB",
"d. c #668BCB",
"f. c #748BC1",
"g. c #6A91C3",
"h. c #6690C2",
"j. c #7A90C1",
"k. c #6289D3",
"l. c #6489DB",
"z. c #698DD7",
"x. c #6D90D0",
"c. c #5C81E4",
"v. c #5C81EC",
"b. c #5D81F2",
"n. c #6184E4",
"m. c #6283EB",
"M. c #6588E2",
"N. c #7997ED",
"B. c #6785F7",
"V. c #6984F7",
"C. c #748FF8",
"Z. c #7891F8",
"A. c #80A788",
"S. c #8CB68B",
"D. c #8AB685",
"F. c #83AC9E",
"G. c #83AD95",
"H. c #87B392",
"J. c #83ABA0",
"K. c #879CD3",
"L. c #8BA1D0",
"P. c #93A6D0",
"I. c #879EE8",
"U. c #849CF5",
"Y. c #849BF8",
"T. c #88A3EB",
"R. c #96ABEE",
"E. c #86A3F1",
"W. c #96AAF5",
"Q. c #A4B5E2",
"!. c #ADBBE9",
"~. c #A2B5F5",
"^. c #BFCBEE",
"/. c #B9C7ED",
"(. c #BECAF7",
"). c #B5C8F0",
"_. c #C9D7EC",
"`. c #C1CAF1",
"'. c #CCD4F6",
"]. c #D2D7F7",
"[. c #D0D9F8",
"{. c #DEE2EE",
"}. c #DBE7F5",
"|. c #E1EEFE",
" X c #E4E7F3",
".X c #EFF0F5",
"XX c #F5F3F5",
"oX c #FDFCF4",
/* pixels */
"z z z z z z z z z z z z z z z l z z h k z z z z z z z z z z < * = = = = = = = = = = = = = = = = = = = = = = = = : = = = ",
"z z z z z z z z z z z l z z z z z z z l z z z z z z z z z z < * = = = = = = = = = = = = = = = = = = = : = = = = = = = = ",
"z z z z z z z z z z z z z z z z z z z z z z z z z z z z z z < * = = = * = * : = = = = : = : = = = = = * = = = = = = = = ",
"z z z z z z z z z z z l z z z z z z z z z l z l l z z z z z : * = = = = = = = = = = = = = = = = = = = = = = = = = = = = ",
"z z z z z z z z z z z k z z z z z l z z z z h k z z z z z z < : = = = = * = < * = = = = = = * : = = = = = = = = = = = = ",
"z z z z z z l z z z l h l z z z z z z z z l z z z z z z z z < = = = = = = = = = = = = = = = = = = = = = = : = = = = = = ",
"z z z z l z l z z z z z z z z z z z z z z z z z z z z z z z < * = = = = = = = = * = = = = = = = = = = = = = * : = = = = ",
"z z z z z z z z z z z z z z z z z z z z z z z z z z z z z z < * = = = = = = = = : = = = = = = = = = = = = = = = = = = = ",
"l z z z z z z z z z z l l z z z z z z z z z z z z z z z z z < = = = = = = = = = = = = = = = = = = : = = = = = = = = = = ",
"z z z z z z z z z z z z z z z z z z z z z z z z z z z z z z < * = = = = = = = = = = = = = = = = = * = = = = = = = = = = ",
"z z z z z z z z z l z z k l z z z z z z z z z z z z z z z z < * = = = = = = = * = = = = = = = = = = = = = = = = = = = = ",
"z z z z z l z z z k h z h z z z z z z z z z z z z z z z z z < * = = = = = = = = = = = = = = = = = = = = = = = = = = = = ",
"z l z z z z z z z z z z z z z z z z z z z z z z z z z z z z p = = = = = = = = = = = = = = = = = = : = = = = = = = = = = ",
"z z z z h l z z z z z z z z z z z z z z z z z z z z z z z z < * = = = = = = = = = = = = = = = = : = = = = = = = = : = = ",
"z z z z k z z z z l z z z z l z z z z z z z z z z z z z z z < * = = = = = = = = = = * = = * = * = = = = = = = = = = = = ",
"z z z z l z z z z z z z z z z z z z z z z z z z z z z z z z < * = = = = = = = = = = = = =   . - * = : = = = : = = = = = ",
"z z z z z z z z z z z l z z z z z z z z z z z z z z z z z z g * = = = = = u = = = = = :   a.a.h.h.5.i * = = = = = = = = ",
"z z z z z z z z z z z z z z z z z l z z z z z z z z z z z z < * = = = % $ $ : = = = = * X b.b.b.*.b.a.o u * = = = = = = ",
"z z z z z z z z z z z z z z z z z z z z z z z z z k z z z z < * = % y + w w a % = = = * X p.} ' | v.v.@.t.y > * = = = = ",
"z z z z z z z z z z z z z z z k j k j j k j j j j k j j j j p - # + M.-.$.$.#.4.* = = , X { L S L (  .v.:.q.u * * = = = ",
"z z z z z z z z z z z z k z 2 6 4 4 4 4 4 4 2 6 4 4 4 4 4 4 1 & 0 ;.&.U.`.W.>.;.4.& , & 9 ] H N S S T | c.b.2.* = = = = ",
"z z z z z z z z z z l h 2 v S.F.J.F.J.J.J.J.J.J.J.J.J.J.J.J.0.6.l.$.~.oXoX{.R.;.n.1.1.5.q.d.Q C N S Z T c.b.v.O * = = = ",
"z z z z z z l l l l h c i.m.;.-.-.;.-.-.-.-.-.-.-.-.;.-.-.;.:.:.-.C..XoX`.{ ..<.;.o.X.&.=.E.).e.F B A A ( c.b.s.i ; = = ",
"z z z z z z l l l 2 b M.;.>.>.=.=.=.=.<.=.<.=.<.=.=.=.=.=.=.=.b.&.U.oXoX!./ _ #.B.O.( [ c.T.|.}.r.D N S K { v.v.1.* = = ",
"z z x z z z z z h b m.;.,.>.>.>.>.>.>.>.>.>.>.>.>.>.>.>.>.>.=.>.>.>.'.oX XQ.I.,.>.O.` } v.M.K.P.j.F N V S ( c.b.t.= = = ",
"z z z z z l z z k x.;.<.>.>.>.>.>.>.>.>.>.>.>.>.>.>.>.>.>.>.>.>.=.>.V.(.XX].Z.>.>.#.@.O.v.{ P D V B V S V I  .b.k.- = = ",
"z z z z z k l 4 S.;.=.>.=.>.>.=.>.>.=.>.>.>.>.>.=.>.>.>.>.>.>.>.>.>.&.&.V.;.&.=.>.=.#.v.v.{ P N V N V B N H ' v.p.  = = ",
"z z z z z l l h u.;.>.>.>.>.>.>.>.>.>.>.>.>.>.>.>.>.>.>.>.>.>.>.=.>.,.>.;.=.=.>.>.@.=.v.v.{ K Z V V V N N S ) v.=.6., = ",
"z z z z z l z j +.,.,.>.>.=.>.>.>.>.>.>.>.>.>.>.>.>.>.>.>.=.>.>.>.>.>.>.>.>.>.>.>.@.@.v.b.{ K Z S Z Z N N S E v.b.2.$ = ",
"z z l l z z h c #.>.<.>.>.>.>.>.>.=.>.>.>.>.>.>.>.>.>.>.>.>.>.>.>.>.>.>.>.>.>.>.>.=.*.v.v.{ K S Z N Z Z S S E c.>.8.> * ",
"* = = = = = ; u <.>.=.>.>.>.>.>.>.>.>.>.>.>.>.>.>.>.>.=.>.>.>.>.>.>.>.>.=.>.>.>.>.*.v.@.b.{ H Z Z Z Z N N S R #.b.8.h l ",
"= = = = = = * u +.;.>.>.>.>.=.>.>.>.>.>.>.>.>.>.>.>.>.>.>.>.>.>.>.>.>.>.=.>.=.>.>.*.@.v.v.{ P Z Z Z Z Z Z S R v.v.i.4 j ",
"= = = = = = = ; y.;.>.>.>.>.>.>.>.>.>.>.>.>.>.>.>.>.>.>.>.>.>.>.>.>.,.>.=.>.=.>.>.=.*.@.v.{ H A N A Z Z Z D ) c.#.G.h z ",
"= = = * = = = , 4.;.<.>.>.>.>.>.>.>.>.>.>.>.>.>.>.>.>.>.>.>.>.>.>.>.;.&.V.&.&.=.>.@.} } #.{ K S A Z N Z N H _ v.c.e h l ",
"= = = = * = = = * z.:.=.>.>.>.>.>.>.>.>.>.>.>.>.>.>.=.>.>.=.>.>.=.>.V.(.XX].Z.;.,.O.^ ` #.{ H N N N N N N P | #.k.s h z ",
"= = = = = = * * , a v.;.=.>.>.>.>.>.>.=.>.>.>.>.>.>.>.,.>.>.>.=.>.>.'.oX XQ.T.<.>.#.O.@.v...! W Y S N B N T +.#.g.j z k ",
"< = = = = = = = = , 9 M.;.>.>.=.<.=.=.=.,.=.=.=.=.=.<.=.=.#.=.<.&.Y.oXoX!./ [ @.>.v.v.v.v.N.)._.L.G M C H _ c.=.9.x z z ",
"= = = = = = = = = = , i w.v.;.;.;.;.;.;.;.;.;.;.-.-.-.-.;.;.;.&.-.C..XoX/.} ..B.;.&.%.&.#.T.|._.~ C V V T ..b.d.s h l z ",
"= = = = = = = = = = = * , i + 8.6.6.6.6.6.6.6.6.2.3.3.7.3.7.9.F.l.-.~.oXoX{.R.;.m.G.7.5.e.T.Q.Q M B V K { c.v.5.h l z z ",
"= = = = = = = = = = = = = = % % % % % % % % % % & % @ % % $ 3 5 m ;.-.Y.`.W.>.;.S.5 2 5 q ..W C V S K ` v.*.g.c h z z z ",
"= = = = = = = = = = = = = = = u = u = u u = u = u u u = u = c j h r n.-.$.-.v.H.h l k h t [ H B V I _ c.b.s.s x z z z z ",
"= : * = = = = = = = = = = = = = = = = = = : = = : = = = = * l z z h c r r D.d 2 k z z h t  .R U E | v.b.y.f h l l z z z ",
"= = = = = = = = = = = = = = = = = = = = = = = = = = = = = * g z z z z 2 4 2 h z z z k h q c. .+.=.b.l.7.j x z z z z z z ",
"= = = = = = : = = = = = = = = = = : * = = = = = = = = = = * g z z l z j z z z z z z z h q v.=.+.d.3.n h z l z z z z l k ",
"= = = = * : = = = = = = = = = = = = = = = = * = = = = = = * g k z h z z z z z z l z l h f D.D.D.d x h k z l z z z z z z ",
"= = = = = = = = = = = = = = = = = = = = = = : = = = = = = * g l z z z z z z z z z z z l z h 2 h h l z z z h l l z z z z ",
"= = = = = = = = = = = = = = = = = = = : = = = = = = = = = * z z z z z z z z z z z l k k z z j j k l z z z z z h z z z z ",
"= : = = = = = = = = = = = = = = = = = = = = = = = = = = = * g z z z z z z z z z h l h l k l z l z z z z z z l z z l z z ",
"= = = = = = = = : = = = = = = = = = = = = = = = = = = = = * g z z z z z z z z z z z z z g k z z z z z z l z z z z z z h ",
"= = = = = = = = * = = = = : = = = = = = = = = = = = = = = * g k z z z h z z z z z z z z z k z z z z z z z z h z l z z z ",
"* = = = * = = = = = = = = = = = = : = = = : = = = = = = = * g k l z z l z z z z z z z z z z z z z z z z z z l z z z z z ",
": = = = : = = = = = = = = = = = = * = = = = = = = = = = = * g l l l z z z z z z l z z z j z z z z z z z z z z z z z z z ",
"= = = = = = = = = = = = = = = = = = = = = * : = = = = = = * z z z z z z z z z z z z z z l h z z z z z z l z z z z z z z ",
"* = = = = = = = = = = = = = = : = = = = = = = = = = = = = * g z z z z z z z l l z z z z z z z z z z z z z z z z z l z z ",
": = = = = = = = = = = = = = = = = * = = = = = = = = = = = * g k z z z z z l z z z z z z z z z l z z l z z z z z z z z z ",
"= = = = = = : = = = = : * = = = = : = = = = = = = = = = = * g k l z z z z z z z z l z z z z z z z z z z z z z z z z z z ",
"= = = = = = = = = = = = = = = = = = = = * : = = = = = = = * g z z z z z z z z z z l z z z z z z z l l z z z z z z z z z ",
"= = = = : = = = = = = = = = = = = = = = = = = = = = = = = * g k z z z z z z z z l h z z z z z z h k z z z z z z z z h l ",
"= = = = : = = = = = = = = = * = = = = = = = = = = = = = = * k z z z z z z z z z z z z z z z l z z z z z z z z z z z k l ",
"= = = = * = = = = = = = = = : = = : = = = = = = = = = = * * g z z z z z z z z l z z z z z z z z z z z z l z z z z z z z "
};
