/* XPM */
static char *_57eea3406c54daaf789f6133eb90b25fD875BdUburio8Tw[] = {
/* columns rows colors chars-per-pixel */
"60 60 207 2 ",
"   c #7DB56C",
".  c #79AE7B",
"X  c #75A978",
"o  c #7CB278",
"O  c #7BB175",
"+  c #8DCE2D",
"@  c #88C529",
"#  c #90CE2D",
"$  c #88D127",
"%  c #8DD02C",
"&  c #8ECD36",
"*  c #8DCC3A",
"=  c #8FC73E",
"-  c #91CC34",
";  c #93CD39",
":  c #8DD033",
">  c #8DD139",
",  c #95D137",
"<  c #9AD035",
"1  c #9CD13F",
"2  c #91D03B",
"3  c #A6DB36",
"4  c #A9DD37",
"5  c #A4D73C",
"6  c #A4DB3C",
"7  c #A9DC3D",
"8  c #AEE23F",
"9  c #8BBF5B",
"0  c #86BF6C",
"q  c #89BF6F",
"w  c #87BB77",
"e  c #81B67B",
"r  c #84BA7A",
"t  c #89BB7B",
"y  c #8ECC43",
"u  c #8DCB4B",
"i  c #89C64D",
"p  c #92CB42",
"a  c #93CC4A",
"s  c #92C741",
"d  c #8DD141",
"f  c #9CD347",
"g  c #8AC754",
"h  c #8CC952",
"j  c #8BC55E",
"k  c #8DC95A",
"l  c #90CA54",
"z  c #92C85D",
"x  c #9FD15E",
"c  c #A4D643",
"v  c #A9D744",
"b  c #A5DB45",
"n  c #A8DA45",
"m  c #A5D64D",
"M  c #ABD74D",
"N  c #A6DA4A",
"B  c #A9D94B",
"V  c #A3D553",
"C  c #A9D753",
"Z  c #A4DA52",
"A  c #AADB52",
"S  c #A3D55D",
"D  c #A6DA5C",
"F  c #8BC463",
"G  c #8AC468",
"H  c #92C767",
"J  c #9DD36C",
"K  c #9ED465",
"L  c #8BC276",
"P  c #9DCC7D",
"I  c #93C87A",
"U  c #A1D565",
"Y  c #A3D963",
"T  c #A3D56C",
"R  c #A7D96A",
"E  c #A9DC65",
"W  c #A5D372",
"Q  c #A4D57B",
"!  c #5E7FA0",
"~  c #5D7FBF",
"^  c #5C6AAB",
"/  c #626DAF",
"(  c #586BC6",
")  c #5A7FCA",
"_  c #577AD2",
"`  c #5A7CD2",
"'  c #577BDC",
"]  c #5A76DB",
"[  c #757FC7",
"{  c #627CDC",
"}  c #687BD9",
"|  c #597CE4",
" . c #547BED",
".. c #5B7CEB",
"X. c #5877E8",
"o. c #5A75F3",
"O. c #567CF5",
"+. c #5B7CF5",
"@. c #5976FB",
"#. c #567CFA",
"$. c #5B7CFB",
"%. c #5576F9",
"&. c #637DEB",
"*. c #667CE4",
"=. c #607DFC",
"-. c #617BF4",
";. c #6F948D",
":. c #61859D",
">. c #6C9B9C",
",. c #6C9796",
"<. c #749998",
"1. c #75A983",
"2. c #7AAB8B",
"3. c #77A786",
"4. c #7FB18D",
"5. c #7CAB93",
"6. c #7AA899",
"7. c #5E85BE",
"8. c #6286A1",
"9. c #6A8BA5",
"0. c #6386AB",
"q. c #6C99AB",
"w. c #6B97A8",
"e. c #7297AD",
"r. c #719CA2",
"t. c #6484B7",
"y. c #648AB5",
"u. c #6287BB",
"i. c #628ABC",
"p. c #6A8AB5",
"a. c #6C92BB",
"s. c #6792BA",
"d. c #749FB0",
"f. c #7DA7AD",
"g. c #77A3A5",
"h. c #7AA1B4",
"j. c #5D84C5",
"k. c #5D82CC",
"l. c #5E83D2",
"z. c #5C81DC",
"x. c #6D8DC2",
"c. c #6385CB",
"v. c #6980CC",
"b. c #6585C7",
"n. c #6C92C3",
"m. c #6183D5",
"M. c #6189D0",
"N. c #6685DD",
"B. c #7C88D0",
"V. c #7E94DD",
"C. c #5C81E4",
"Z. c #5B80EF",
"A. c #5B81F4",
"S. c #5D81FC",
"D. c #6181E7",
"F. c #6A82EC",
"G. c #6681E8",
"H. c #758AEC",
"J. c #7993E3",
"K. c #7A92EA",
"L. c #6382F3",
"P. c #6084FF",
"I. c #6E8EF3",
"U. c #7F9CF5",
"Y. c #7387F7",
"T. c #81AD8C",
"R. c #82AF84",
"E. c #8EBF84",
"W. c #84B486",
"Q. c #96BF85",
"!. c #82AD91",
"~. c #86AE98",
"^. c #8BB698",
"/. c #91BC9B",
"(. c #82ADA3",
"). c #89B2A2",
"_. c #8FB5A8",
"`. c #91BAAA",
"'. c #8FC186",
"]. c #9CCD83",
"[. c #9CCD8A",
"{. c #97C58C",
"}. c #9ED186",
"|. c #A3D193",
" X c #8CA6D5",
".X c #899BFD",
"XX c #8699F4",
"oX c #95AFE2",
"OX c #9BB7E6",
"+X c #A4B8E9",
"@X c #B6BFE8",
"#X c #ADBBFF",
"$X c #B4C0E8",
"%X c #AFC6FA",
"&X c #B3C5FF",
"*X c #BACDFF",
"=X c #B7C4F1",
"-X c #B3D0FF",
";X c #A8C4E9",
":X c #C0C8F6",
">X c #CEE5FF",
",X c #D4E5FF",
"<X c #DAECFF",
"1X c #E3F6FF",
"2X c #EEFCFF",
"3X c #E7F7FF",
"4X c #F1FDFF",
/* pixels */
"n n n n n n n n n n n n n n n n n 7 n 7 n n n n b b b b Z Z > % & * & % & & * y * * % % y y & + # & & & & & & & & & & & ",
"n n n N n n n n n n n n n n n n b n n n 7 n v n B b n N Z N , : * & > & & % * * * * : & * y & & & & & & & ; & & & & ; & ",
"n n n n n n n N n N n n N n n n n n n 7 7 n B B n n N Z N b , % s y y * : + % + * * & & & & * ; & & & & & & & & & & & & ",
"n n n n n n n n n n n n n n n n n v v n 7 7 B M n 7 B B B b < - ; * * * & % % % : * & * & & * * & & & & & & & & & & & & ",
"n n n n n n n n n n n n n n n B B A Z B v 7 v v v v n n 8 8 , - # & & * & & & & & & & & & & & & & & & & & & & & & & & & ",
"n n n N n n N n n n n n n b n b N Z Z n n n 8 n n n n n 6 6 1 - # % & ; & & y * & & + & & & & + & & & & & & & & & & & & ",
"n n n n n n n n n n n n n n n b N b n b B n v v 8 7 N Z Z Z p = ; & y * & & & * * * & + % + & & & & & & & * & & & & > ; ",
"n n n n n n n n n n n n n n n v b b b B B n v n v C W P [.[.L 0 G F g y & & & = y y * & + % : & & & & ; & & & & & & & & ",
"n n n n n n n n n n N n n n n b 3 7 c B B c b N R P ^.d.a.u.i.s.r.5.w g : # > * ; y - - & & & & & & & & & * & & & & & & ",
"n N n n n n n n n n n n n n n b 4 7 n B n N A K Q.<.y.) *.Z.Z.z.m.y.,.e i > : & y ; + # & & & & & & & & & & & & & & & ; ",
"n n n n n N n n n n n n n n n n 4 7 B m N D U '.q.c._ | Z.A.O.O...] ) q.o g ; & y y & - & * & & * & & & & & & & & & & & ",
"N n n n n n n n n n n n n n n v 7 n B Z N Y '.r.` +.$.P.A.O.#.S.$.$.-.k.>.r u & y s ; - & * & & ; & & * & & & & & & & & ",
"n n n n n n n n n n b N n n n n n M M B N J f.k.+.$.#.$.O.O.#.#.#.$.$.O.l.f.F > * * ; * - - & & & & & > & & & & & & * & ",
"n n n N n n n n n N n n n n n N M M B B Z I n. .$.$.@.$.#.O.#.#.#.#.#.$.+.i.  p * & = ; - & & & & & & & & & & & & * & & ",
"n n n n n n n n n n n n n n n n v n N Z Z t b.$.o.$.=.$.=.=.$.$.A.O.$.$.+.b.X y = * * - - - ; - & & & & & ; & & & & & & ",
"n n n n n n n N n n n n n n n n v b N Z S W.) $.$.A.+.+.@.@.=.+.O.#.A.#.%.k.. h y ; & - # & - - & & & & & & & & & & & & ",
"n 7 n n 7 n n n n n n n n v n 8 8 6 b Z U W.k.$.#.S...+.o.$.$.$.$.=.$.O.S.k.X z s - = ; + @ - ; - & & & & & & & & * & & ",
"n n n 7 n n n n n 7 n n n 7 n b 8 f b x }.5.k.#.#.O.+.+.$.$.$.$.@.@.$.#.O.k.5.H a - = = : $ - - - * & & & & & & & & & & ",
"n n n n n n n n n 7 7 v n 7 n n N N b x |.f.z.S.A. .O.$.$.-.+.o.+.$.S.A. .k.6.w g y = * : : * * * & & & & & & & & & & & ",
"v 7 n v 7 n n 8 n v n n n n n n b A D P ).a.'  .Z. .#.#.@.+.+.+.+.A.O.O..._ 7.4.0 g > : : : * & * & & & & ; * & & & & * ",
"n b b b b b b b b b b b n b b b 4 A W ~.~ *.{ *.&.+.@.#.=.+.+.-.S.O.| C.&.&.N.u.5.G > $ : > & * & - ; & & - ; & & & - * ",
"b n b n b N b b b n b b b b b b 8 A Q.r.[ .X} ( J.U.o.$.$.+.+.$.$. .U.V.( *..Xv.w.o u $ % % & ; & - & - ; & & - & & - - ",
"b b b b b b n b 8 b b b b b b b b x /.9.oX*XB.^ +X&XG.$.$.#.+.+.%.L.&X+X/ [ *XOX:.5.k + + - - ; - & & & & & & & & & * & ",
"8 b b b n b n b B b b b n n n b b K `.:.%X1X=X$X,X<XH.+.#.O.$.O.+.I.,X<X@X:X3X;X8.6.k & - - ; - * & & * & & & & & & & & ",
"B B n B n n v n n n B n n n n n c R ^.8. X<X2X3X4X#XF.o.$.S.O.O.+.| &X2X3X2X,X X:.!.a @ - ; = * * & > : & : * : * : & : ",
"n n n n n n n n n n n v n n n n B E {.;.p.+X,X3X&XXX&.o.$.A.O.O.+.| K.&X<X<X+X! ,.r u & - ; - ; & & & & : * : * & & : * ",
"n n n n n B v n n n n b v n B B c V T t 9.b.V.XXY.-.o.+.A.+.#.+.A.A.X.Y..XH.[ 9.O g y * = - & & & & & & & : & & & & & & ",
"n n n b n b n n n b b c n b n n A C A Q _.a.{ X.@.@.@.$.+.o.=.+.o.O.+.+.-.] x.(.F d y y * ; & & & & * : & * : * & & & - ",
"N N n n n N n N N n N N N b N n M A m R [.g.l.$.$.#.A.=.$.@.-...$.O.O.A.A.N.g.t u * & & & * * * & - & & & & & - & & & - ",
"b f N n b b b f n c b b b b b n c B N D Q 5.k.#.#.#.$.+.+.-.=.+.$.P.A.O.O.k.1.H a ; & * > > ; ; ; ; - ; * - ; - , , ; ; ",
", 2 ; ; - ; , 2 ; ; ; - ; ; - , < - - s F 5.z.#.A.O.o.+.+.+.$.$.@.=.#.#.$.M.2.T V b m N f 8 n 5 c c c b b c c c N f b b ",
"- & - - - & - & - - - & & & - & - @ - s 9 2.l.#.#.Z.A.-.+.#.$.$.$.@.#.#.O.k.2.U A B N m b b b v v B N n N N B c n n n b ",
"- & - & & & - & ; & ; & & & ; & # - & u j 3.l.$.#.+.+.+.+.$.#.$.$.$.$.#.$.k.!.W A v n n n b b B n n n n n n n n b n n n ",
"& & & & ; > & & & & & & & & & & - & = u j 1.c.-.+.$.$.+.+.$.$.$.$.$.#.O.+.l.!.W B n n n N N b B n B b n b B n n B b n n ",
"& & & & & * & & & & & & & & & & & + & u j 1.) @.+.+.+.+.+.+.$.$.$.$.O.O.$.k.!.W A n n 6 b b n B n n n n n n n n n n n n ",
"& & & & & & & & & & & & & & & & + & & u j 1.k.+.$.+.+.+.O.$.+.#.$.$.A.O.+.k.!.W M v n b b b n n b n n n n n n n B n n n ",
"& & & & * ; & & & & & & & & & & # & & u j 1.c.@.$.=.+.+.+.+.+.$.+.+.A.#.A.k.!.T B n b N b b 6 v n n n n n n n n b b B b ",
"& & & & & & & & & & & & & & & & # & & u j 1.c.$.+.$.+.$.+.+.+.+.+.+.#.A.#.k.!.W A n b n b 8 b n n b n n B n n n n n n n ",
"& & & & & & & & & & & & & - & & # & * u j 1.c.$.@.@.$.$.+.A.+.$.$.$.$.O.A.k.5.W C B n n b b 7 n n n n n b n b n n n n n ",
"& & & & & & & & & & & & & & & & & & * i j 1.{ =.=.$.$.$.$.+.O.+.$.$.$.O.$.l.!.Q C B B n b b 7 n n n n n n n n n n n n n ",
"& ; & & & & & & & & & & & & & & & & = u j 1.) $.$.@.$.#.$.+.+.$.$.$.$.$.+.) !.W C B B N N n b v n n b n n n n n n n n n ",
"& & & & & & & & & - & & & & ; & & * = u j 1.c.$.$.$.$.$.#.+.$.#.$.$.#.#.$.) !.W C B B m N N n n B n n n n n n B n n n n ",
"& & & & & & & & & & & & & & & & & * * u k 1.k.+.$.@.$.$.$.$.$.$.$.$.O.O.+.c.T.T C B M N n b n n n n b n n n n n n n n b ",
"& & & & > * ; & & & & & & & & & * & * u g . j.+.=.$.$.#.$.$.$.$.@.$.O.O.A.j.T.T C B B N N b n v n n n n n n b n b B n n ",
"& & & & & & & & & & & & & & * & ; * & y g . u.+.+.-.#.$.$.$.$.#.$.$.#.O.Z.7.4.U B n n n n b b n B n n n n n n n n n n n ",
"& & & & & & & & & & & & & & & & & & * y h o i.| +.+.+.+.O.$.+.$.$.$.+. .Z.7.t S n b n b N N b n b n n n B n n n n n n n ",
"* & & & & * & & & & ; & & & & & & & & * u r s...C.+.+.+.+.+.+.$.$.#.A.| C.n.{.D n 7 n b b n n n n n n n b n n b n B n b ",
"& & & & & & & & & & & * & & & & & & & & y L q.m.z...+.$.$.O.$.+.$.O.Z.z.k.d.[.A 7 7 n b b b n n n n n n n n n n n n n n ",
"& & & & & & & * & & & * & & & & * * % + : k 4.q.j.C.A.S.#.O.+.+.$.-.&.k.e./.R b n n n n n 7 v n n n n n n n n b n n n B ",
"& & & & & & & & & & & & & & & & y > + + & u G 4.w.j.'  .O.#.O...| ] 7.e.^.W Z c n n n n 7 7 7 n n n n n n n n n b n n n ",
"& & ; & & & & & & & & & & ; & & : : & * * y h G . >.7.z. .A.L.D.N.p.<.'.J D A N B n n n B n b 6 n n n n n n n n n n n n ",
"& & & & & & & & & & & & & & & & % + & ; * ; & u F L 5.w.7.7.y.s.d.).P Y Z N Z N n v n n B B v 7 n n n n n n n n n n n B ",
"& & & & & ; & & & & & & & & & & & @ - ; - - & * s i k j G L I }.P W Y Z N N N b 7 4 7 n A Z n N n n n b n B n n n n n b ",
"& & & & * > & & ; * & & & & & & ; - # # - - - - & & & & & * f m Z N c n N N b 8 4 4 6 n Z A N n n n n n n b n n n n n n ",
"& & & & & & & & & & & & & & & * * * # # # # - - & & + # + ; f n 8 3 n N N n 6 8 7 v n N N N N b n n B n n n n n n n B n ",
"; & & & & & & & & & & & & & & & * y - # $ # # - & & - - + - 1 n 3 8 n c n n 7 5 n B N n b b b b n n n n n n b n n n b n ",
"& & & & ; & & & & & & & * & & & * * & & : : & & * * y = ; - 5 7 6 b b n n n n v B A B B b 7 b b B n n n n n n b n B n n ",
"& & & & & * & & & & & & & & ; > * * * & & * & * * y = * ; - 5 3 b b n n v v n n B B B v 6 b b b b n n n n n n n n n n n ",
"& & & & & & & & & > & & & & & & > > * * > * * * * * * * ; - 1 b n v n B M B B n n n 7 7 7 b N N B n n n n n n n n n n b ",
"& * & & & & & & & & & & & & & * * > > * * * * * * * * * ; & b f 7 v n B B B B n 7 7 7 7 6 n N n n n b n b B n n n n n n "
};
