/* XPM */
static char *_58f178c497b4a8595c3b7e66051cfb5yWUrmS1iEFkuKFcf[] = {
/* columns rows colors chars-per-pixel */
"60 60 136 2 ",
"   c #7F9B20",
".  c #7F9C21",
"X  c #7FA828",
"o  c #7EB12D",
"O  c #85971D",
"+  c #949617",
"@  c #939817",
"#  c #979816",
"$  c #979916",
"%  c #929F1B",
"&  c #9D9D1D",
"*  c #A79C10",
"=  c #A89B10",
"-  c #AF9F15",
";  c #A19D1C",
":  c #A19E1C",
">  c #8DA21E",
",  c #93A41E",
"<  c #9BA119",
"1  c #9AA81D",
"2  c #A4A316",
"3  c #AAA41D",
"4  c #A5AA1A",
"5  c #B8AA11",
"6  c #BCAB12",
"7  c #BDB113",
"8  c #8CA320",
"9  c #84A927",
"0  c #8EA32A",
"q  c #8FA42B",
"w  c #91A620",
"e  c #93A126",
"r  c #9FA623",
"t  c #9BA927",
"y  c #93A529",
"u  c #82B02B",
"i  c #84B62E",
"p  c #8AB128",
"a  c #8CB42A",
"s  c #94AF30",
"d  c #83BA30",
"f  c #86BD30",
"g  c #92B234",
"h  c #9FBE36",
"j  c #98BE39",
"k  c #9ABE39",
"l  c #A6A720",
"z  c #A2A823",
"x  c #A0A925",
"c  c #A5AE27",
"v  c #A0A628",
"b  c #A9B227",
"n  c #A7B128",
"m  c #A4BE33",
"M  c #D4AD07",
"N  c #D6AD07",
"B  c #D8AD07",
"V  c #D9AE07",
"C  c #D7AE0A",
"Z  c #D9AF09",
"A  c #DAAF09",
"S  c #D3B40C",
"D  c #DBB009",
"F  c #D2BA0E",
"G  c #D4BB0F",
"H  c #C4AE15",
"J  c #C3B211",
"K  c #CBB510",
"L  c #CAB712",
"P  c #C9B515",
"I  c #C6B518",
"U  c #C4B71D",
"Y  c #D9B710",
"T  c #D7BC11",
"R  c #D3B915",
"E  c #D2BA15",
"W  c #D2BB17",
"Q  c #D9BD13",
"!  c #EBB805",
"~  c #ECBA07",
"^  c #EDBD06",
"/  c #E1B708",
"(  c #E1BC0A",
")  c #E9BC0A",
"_  c #F6BE03",
"`  c #F0BC04",
"'  c #F0BE07",
"]  c #F8BF03",
"[  c #88C032",
"{  c #8AC634",
"}  c #8BC735",
"|  c #8CC835",
" . c #8CC935",
".. c #8DCB35",
"X. c #8ECB36",
"o. c #8ECC35",
"O. c #8ECC36",
"+. c #8FCD36",
"@. c #91CE37",
"#. c #99C13B",
"$. c #98C23D",
"%. c #9AC63D",
"&. c #9DC73D",
"*. c #9AC93E",
"=. c #96D03A",
"-. c #EFC207",
";. c #F7C004",
":. c #F6C105",
">. c #FBC002",
",. c #FDC001",
"<. c #FAC104",
"1. c #F8C205",
"2. c #FDC106",
"3. c #F2C30A",
"4. c #FDC209",
"5. c #FDC727",
"6. c #FDC82A",
"7. c #FEC82A",
"8. c #FDC92F",
"9. c #FEC92E",
"0. c #FDC930",
"q. c #FECA34",
"w. c #FECA35",
"e. c #9FD541",
"r. c #A0CC41",
"t. c #A2D243",
"y. c #A0D641",
"u. c #A4D344",
"i. c #A3D444",
"p. c #A5D645",
"a. c #A6D745",
"s. c #A5D844",
"d. c #A7D845",
"f. c #A7D946",
"g. c #A8DA46",
"h. c #FFDA87",
/* pixels */
"g.g.g.g.g.g.g.g.g.g.g.g.g.g.g.g.g.g.g.g.g.g.g.g.g.g.g.g.g.g.=.o.+.+.+.+.+.+.+.+.+.+.+.+.+.+.+.+.+.+.+.+.+.+.+.+.+.+.+.+.",
"g.g.g.g.g.g.g.g.g.g.g.g.g.g.g.g.g.g.g.g.g.g.g.g.g.g.g.g.g.g.=.o.+.+.+.+.+.+.+.+.+.+.+.+.+.+.+.+.+.+.+.+.+.+.+.+.+.+.+.+.",
"g.g.g.g.g.g.g.g.g.g.g.g.g.g.g.g.g.g.g.g.g.g.g.g.g.g.g.g.g.g.=.o.+.+.+.+.+.+.+.+.+.+.+.+.+.+.+.+.+.+.+.+.+.+.+.+.+.+.+.+.",
"g.g.g.g.g.g.g.g.g.g.g.g.g.g.g.g.g.g.g.g.g.g.g.g.g.g.g.g.g.g.=.o.+.+.+.+.+.+.+.+.+.+.+.+.+.+.+.+.+.+.+.+.+.+.+.+.+.+.+.+.",
"g.g.g.g.g.g.g.g.g.g.g.g.g.g.g.g.g.g.g.g.g.g.g.g.g.g.g.g.g.g.=.o.+.+.+.+.+.+.+.+.+.+.+.+.+.+.+.+.+.+.+.+.+.+.+.+.+.+.+.+.",
"g.g.g.g.g.g.g.g.g.g.g.g.g.g.g.g.g.g.g.g.g.g.g.g.g.g.g.g.g.g.=.o.+.+.+.+.+.+.+.+.+.+.+.+.+.+.+.+.+.+.+.+.+.+.+.+.+.+.+.+.",
"g.g.g.g.g.g.g.g.g.g.g.g.g.g.g.g.g.g.g.g.g.g.g.g.g.g.g.g.g.g.=.o.+.+.+.+.+.+.@...+.+.+.+.+.+.+.+.+.+.+.+.+.+.+.+.+.+.+.+.",
"g.g.g.g.g.g.g.g.g.g.g.g.g.g.g.g.g.g.g.g.g.g.g.g.g.g.g.g.g.g.=.o.+.+.+.+.+.+...@.+.+.+.+.+.+.+.+.+.+.+.+.+.+.+.+.+.+.+.+.",
"g.g.g.g.g.g.g.g.g.g.g.g.g.g.g.g.g.g.g.g.g.g.g.g.g.g.g.g.g.g.=.o.@.o.@.o.@.o.@.....@...@.o.@.o.o.+.+.+.+.+.+.+.+.+.+.+.+.",
"g.g.g.g.g.g.g.g.g.g.g.g.g.g.g.g.g.g.g.g.g.g.g.g.g.g.g.g.g.g.=.o.o.o.o.@.o.@...@.@...@.o.@.o.@.@.+.+.+.+.+.+.+.+.+.+.+.+.",
"g.g.g.g.g.g.g.g.g.g.g.g.g.g.g.g.g.g.g.g.g.g.g.g.g.g.g.g.g.f.=.o.o.o.o.o.@.@.......@.o.@.o.@.o.o.+.+.+.+.+.+.+.+.+.+.+.+.",
"g.g.g.g.g.g.g.g.g.g.g.g.f.f.f.f.i.i.f.i.i.f.i.i.f.i.i.f.i.i.=.{ { ..........{ @.{ { @.{ ..o...@.+.+.+.+.+.+.+.+.+.+.+.+.",
"g.g.g.g.g.g.g.g.g.g.g.g.g.g.t Q Q Q Q Q Q Q Q Q Q Q Q Q Q Q G F F F F F F F F F W F F F F F > o.+.+.+.+.+.+.+.+.+.+.+.+.",
"g.g.g.g.g.g.g.g.g.g.g.g.g.g.; ,.,.,.,.,.,.,.,.,.,.,.,.,.,.,.,.,.,.,.,.,.,.,.,.,.>.>.,.,.,.,.$ ..+.+.+.+.+.+.+.+.+.+.+.+.",
"g.g.g.g.g.g.g.g.g.g.g.g.g.g.; ,.<.e 0 0 q Y ,.4.q.2.,.,.,.,.,.,.,.,.,.,.,.,.,.S . . . O ,.,.$ @.+.+.+.+.+.+.+.+.+.+.+.+.",
"g.g.g.g.g.g.g.g.g.g.g.g.g.g.& ,.<.$.g.f.g.I ,.7.h.5.,.,.,.,.,.,.,.,.,.,.,.,.,.7 o.o.o.o ,.,.@ o.+.+.+.+.+.+.+.+.+.+.+.+.",
"g.g.g.g.g.g.g.g.g.g.g.g.g.g.; ,.:.%.f.f.p.I ,.q.h.0.,.,.,.,.,.,.,.,.,.,.,.,.,.7 ....@.X ,.,.$ o.+.+.+.+.+.+.+.+.o.o.o.@.",
"g.g.g.g.g.g.g.g.g.g.g.g.g.g.; ,.<.%.f.f.p.I ,.q.h.q.,.,.,.,.,.,.,.,.,.,.,.,.,.7 ..@.o.o ,.,.$ @.+.+.+.+.+.+.+.+.@.@.o.o.",
"g.g.g.g.g.g.g.g.g.g.g.g.g.g.& ] :.$.g.g.g.I ,.0.h.5.,.,.,.,.,.,.,.,.,.,.,.,.,.7 @.o.o.o ,.,.+ o.+.+.+.+.+.+.+.+.o.+.@.o.",
"g.g.g.g.g.g.g.g.g.g.g.g.g.g.; ,.<.*.g.g.p.I ,.q.h.9.,.,.,.,.,.,.,.,.,.,.,.,.,.7 ..@.o.o ,.,.$ o.+.+.+.+.+.+.+.+.+.+.o.o.",
"g.g.g.g.g.g.g.g.g.g.g.g.g.g.; ,.:.%.g.g.p.I ,.q.h.0.,.,.,.,.,.,.,.,.,.,.,.,.,.7 ....@.o ] ,.+ @.+.+.+.+.+.+.+.+.+.+.+.+.",
"g.g.g.g.g.g.g.g.g.g.g.g.g.g.x ,.<.k g.g.g.I ] q.h.7.,.,.,.,.,.,.,.,.,.,.,.,.,.7 ..@.o.p ,.,.w @.+.+.+.+.+.+.+.+.+.+.+.+.",
"g.g.g.g.g.g.g.g.g.g.g.g.g.g.m ,.,.c g.g.p.I ,.q.h.0.,.,.,.,.,.,.,.,.,.,.,.,.,.7 o.@.o.4 ,.,.p o.+.+.+.+.+.+.+.+.+.+.+.+.",
"g.g.g.g.g.g.g.g.g.g.g.g.g.g.%.,.,.Y u.g.p.I ,.q.h.0.,.,.,.,.,.,.,.,.,.,.,.,.:.7 ....{ ( ,.<.d o.+.+.+.+.+.+.+.+.+.+.+.+.",
"g.g.g.g.g.g.g.g.g.g.g.g.g.g.s.H ,.,.z f.g.I ,.0.h.7.,.,.,.,.,.,.,.,.,.,.,.,.>.J o.o.< ,.,.6 o.+.+.+.+.+.+.+.+.+.@.o.@.@.",
"g.g.g.g.g.g.g.g.g.g.g.g.g.g.g.s >.,._ W m P ,.q.h.0.,.,.,.,.,.,.,.,.,.,.,.,.:.J a L ,.,.:.9 +.+.+.+.+.+.+.+.+.+.o.@.o.o.",
"g.g.g.g.g.g.g.g.g.g.g.g.g.g.g.t.W ] ,.,.4.<.,.q.h.0.>.,.,.,.,.,.,.,.,.,.,.,.,.:.>.,.:.,.L } +.+.+.+.+.+.+.+.+.+.o.o.@.o.",
"g.g.g.g.g.g.g.g.g.g.g.g.g.g.g.g.r.b ) ,.,.>.,.0.h.7.,.,.,.,.,.,.,.,.,.,.,.,.,.,.,.,./ , } o.o.o.+.+.+.+.+.+.+.+.@.o.o.o.",
"g.g.d.s.g.f.g.g.g.g.g.g.g.g.g.g.g.g.&.U 3.,.,.q.h.9.,.,.,.,.,.,.,.,.,.,.,.,.,.,.-.2 f o.o.o.o.o.o.o.o.o.o.o.o.o.....o.o.",
"s.s.s.f.f.s.s.s.s.s.s.s.s.s.s.s.s.s.s.f.*.P ,.q.h.q.,.,.,.,.,.,.,.,.,.,.,.,.,.J [ @.@.@.@.@.@.@.@.@.@.@.=.+.+.=.@.@.@.@.",
"@.@.@.@.@.@.@.@.@.@.@.@.@.@.@.@.@.@.@.@.@.7 _ 9.h.7.,.,.,.,.,.,.,.,.,.,.,.,.,.I i.f.f.i.s.s.s.f.f.y.y.f.f.g.f.e.s.s.s.p.",
"o...o.o.o.o.o.@.o.o.o.o.o.o.o.o.o.o.....{ 7 ,.q.h.0.,.,.,.,.,.,.,.,.,.,.,.,.,.I s.g.g.g.g.g.g.g.g.g.g.g.g.g.g.g.g.g.f.g.",
"@.@.o.o.+.+.+.+.+.+.+.+.+.+.+.+.+.+.+.+.O.< ,.9.h.7.,.,.,.,.,.,.,.,.,.,.,.,.,.3 g.g.g.g.g.g.g.g.g.g.g.g.g.g.g.g.g.g.g.g.",
"o.o.o.@.+.+.+.+.+.+.+.+.+.+.+.+.+.+.+.+...w ,.<.9.2.,.,.,.,.,.,.,.,.,.,.,.,.,.v g.g.g.g.g.g.g.g.g.g.g.g.g.g.g.g.g.g.g.g.",
"o.@.@.o.+.+.+.+.+.+.+.+.+.+.+.+.+.+.+.+.o.f ^ >.,.,.,.,.] ] ] ] ,.,.,.,.] ,.' &.g.g.g.g.g.g.g.g.g.g.g.g.g.g.g.g.g.g.g.g.",
"o.o.o.@.+.+.+.+.+.+.+.+.+.+.+.+.+.+.+.+.o.o.8 ^ ,.,.,.,.] ] ] ] ,.,.,.,.] ' t f.g.g.g.g.g.g.g.g.g.g.g.g.g.g.g.g.g.g.g.g.",
"@.o.+.+.+.+.+.+.+.+.+.+.+.+.+.+...+.+.+.o.o.o.d , = = = = ^ ] _ - - - - z #.f.g.g.g.g.g.g.g.g.g.g.g.g.g.g.g.g.g.g.g.g.g.",
"@.o.+.o.+.+.+.+.+.+.+.+.+.+.+.+.@...+.+.@.@.o.+.......@.} B ] Z d.g.p.u.g.f.g.g.g.g.g.g.g.g.g.g.g.g.g.g.g.g.g.g.g.g.g.g.",
"o.o.o.o.+.+.+.+.+.+.+.+.+.+.+.+.o.@.o.@.o.@.+.+.@.@...o...N ] Z g.g.g.g.g.g.g.g.g.g.g.g.g.g.g.g.g.g.g.g.g.g.g.g.g.g.g.g.",
"o.@.=.o.+.+.+.+.+.+.+.+.+.+.+.+.@.o.@.o.@.o.+.+.....@.o.@.Z ] Z g.g.g.g.g.g.g.g.g.g.g.g.g.g.g.g.g.g.g.g.g.g.g.g.g.g.g.g.",
"+.+.+.+.+.+.+.+.+.+.+.+.+.+.+.+.+.+.+.+.+.+.+.+.@.o.o.o.@.M ,.Z g.g.g.g.g.g.g.g.g.g.g.g.g.g.g.g.g.g.g.g.g.g.g.g.g.g.g.g.",
"+.+.+.+.+.+.+.+.+.+.+.+.+.+.+.+.+.+.+.+.+.+.+.+.o.o.@.@.o.M ,.D g.g.g.g.g.g.g.g.g.g.g.g.g.g.g.g.g.g.g.g.g.g.g.g.g.g.g.g.",
"+.+.+.+.+.+.+.+.+.+.+.+.+.+.+.+.+.+.+.+.+.+.+.+.o.@.o.o.@.M ,.C g.g.g.g.g.g.g.g.g.g.g.g.g.g.g.g.g.g.g.g.g.g.g.g.g.g.g.g.",
"+.+.+.+.+.+.+.+.+.+.+.+.+.+.+.+.+.+.+.+.+.+.+.+.o.o.@.o.@.M ,.D g.g.g.g.g.g.g.g.g.g.g.g.g.g.g.g.g.g.g.g.g.g.g.g.g.g.g.g.",
"+.+.+.+.+.+.+.+.+.+.+.+.+.+.+.+.+.+.+.+.@.o.+...@.o.o.@...B ,.D p.g.g.g.g.g.g.g.g.g.g.g.g.g.g.g.g.g.g.g.g.g.g.g.g.g.g.g.",
"+.+.+.+.+.+.+.+.+.+.+.+.+.+.+.+.+.+.+.+.o.@.o.=.o.X < 5 K :.,.:.W 6 3 g f.g.g.g.g.g.g.g.g.g.g.g.g.g.g.g.g.g.g.g.g.g.g.g.",
"+.+.+.+.+.+.+.+.+.+.+.+.+.+.+.+.+.+.+.+.@.o.o.o.u ! ,.,.,.,.,.,.,.,.:.^ k g.g.g.g.g.g.g.g.g.g.g.g.g.g.g.g.g.g.g.g.g.g.g.",
"+.+.+.+.+.+.+.+.+.+.+.+.+.+.+.+.+.+.+.o.o.@.o.o., ,.,.,.,.,.,.,.,.] ] _ y g.g.g.g.g.g.g.g.g.g.g.g.g.g.g.g.g.g.g.g.g.g.g.",
"+.+.+.+.+.+.+.+.+.+.+.+.+.+.+.+.+.+.+.+.+.+.+.+.1 F F F F F T Q Q Q Q Q b g.g.g.g.g.g.g.g.g.g.g.g.g.g.g.g.g.g.g.g.g.g.g.",
"+.+.+.+.+.+.+.+.+.+.+.+.+.+.+.+.+.+.+.+.+.+.+.+.o.....o...{ e.i.u.g.u.d.g.g.g.g.g.g.g.g.g.g.g.g.g.g.g.g.g.g.g.g.g.g.g.g.",
"+.+.+.+.+.+.+.+.+.+.+.+.+.+.+.+.+.+.+.+.+.+.+.+.+.+.+.+...o.i.f.g.g.g.g.g.g.g.g.g.g.g.g.g.g.g.g.g.g.g.g.g.g.g.g.g.g.g.g.",
"+.+.+.+.+.+.+.+.+.+.+.+.+.+.+.+.+.+.+.+.+.+.+.+.+.+.+.+.o.o.e.f.g.g.g.g.g.g.g.g.g.g.g.g.g.g.g.g.g.g.g.g.g.g.g.g.g.g.g.g.",
"+.+.+.+.+.+.+.+.+.+.+.+.+.+.+.+.+.+.+.+.+.+.+.+.+.+.+.+.+.+.y.g.g.g.g.g.g.g.g.g.g.g.g.g.g.g.g.g.g.g.g.g.g.g.g.g.g.g.g.g.",
"+.+.+.+.+.+.+.+.+.+.+.+.+.+.+.+.+.+.+.+.+.+.+.+.+.+.+.+.+.+.y.g.g.g.g.g.g.g.g.g.g.g.g.g.g.g.g.g.g.g.g.g.g.g.g.g.g.g.g.g.",
"+.+.+.+.+.+.+.+.+.+.+.+.+.+.+.+.+.+.+.+.+.+.+.+.+.+.+.+.+.o.y.g.g.g.g.g.g.g.g.g.g.g.g.g.g.g.g.g.g.g.g.g.g.g.g.g.g.g.g.g.",
"+.+.+.+.+.+.+.+.+.+.+.+.+.+.+.+.+.+.+.+.+.+.+.+.+.+.+.+.+.o.y.g.g.g.g.g.g.g.g.g.g.g.g.g.g.g.g.g.g.g.g.g.g.g.g.g.g.g.g.g.",
"+.+.+.+.+.+.+.+.+.+.+.+.+.+.+.+.+.+.+.+.+.+.+.+.+.+.+.+.+.o.e.g.g.g.g.g.g.g.g.g.g.g.g.g.g.g.g.g.g.g.g.g.g.g.g.g.g.g.g.g.",
"+.+.+.+.+.+.+.+.+.+.+.+.+.+.+.+.+.+.+.+.+.+.+.+.+.+.+.+.+.o.e.g.g.g.g.g.g.g.g.g.g.g.g.g.g.g.g.g.g.g.g.g.g.g.g.g.g.g.g.g.",
"+.+.+.+.+.+.+.+.+.+.+.+.+.+.+.+.+.+.+.+.+.+.+.+.+.+.+.+.+.o.e.g.g.g.g.g.g.g.g.g.g.g.g.g.g.g.g.g.g.g.g.g.g.g.g.g.g.g.g.g.",
"+.+.+.+.+.+.+.+.+.+.+.+.+.+.+.+.+.+.+.+.+.+.+.+.+.+.+.+.+.+.e.g.g.g.g.g.g.g.g.g.g.g.g.g.g.g.g.g.g.g.g.g.g.g.g.g.g.g.g.g."
};
